<?xml version="1.0" standalone="no"?>
<!DOCTYPE svg PUBLIC "-//W3C//DTD SVG 1.1//EN" "http://www.w3.org/Graphics/SVG/1.1/DTD/svg11.dtd" >
<svg xmlns="http://www.w3.org/2000/svg" xmlns:xlink="http://www.w3.org/1999/xlink" version="1.1">
<metadata>
Created by FontForge 20170731 at Wed Jun 12 14:10:37 2019
 By Aleksey,,,
Serbian Cyrillic
</metadata>
<defs>
<font id="VolvoNovumWebLatin-Bold" horiz-adv-x="650" >
  <font-face 
    font-family="Volvo Novum Web Latin"
    font-weight="700"
    font-stretch="normal"
    units-per-em="1000"
    panose-1="2 11 8 3 4 5 2 6 2 4"
    ascent="780"
    descent="-220"
    x-height="500"
    cap-height="682"
    bbox="-145 -195 1607 980"
    underline-thickness="134"
    underline-position="-260"
    unicode-range="U+000D-FB02"
  />
<missing-glyph horiz-adv-x="1095" 
 />
    <glyph glyph-name=".notdef" horiz-adv-x="1095" 
 />
    <glyph glyph-name=".null" horiz-adv-x="0" 
 />
    <glyph glyph-name=".null" horiz-adv-x="0" 
 />
    <glyph glyph-name="nonmarkingreturn" unicode="&#xd;" horiz-adv-x="262" 
 />
    <glyph glyph-name="space" unicode=" " horiz-adv-x="254" 
 />
    <glyph glyph-name="space" unicode="&#xa0;" horiz-adv-x="254" 
 />
    <glyph glyph-name="exclam" unicode="!" horiz-adv-x="372" 
d="M109 216l-18 486h190l-18 -486h-154zM96 0v164h180v-164h-180z" />
    <glyph glyph-name="quotedbl" unicode="&#x22;" horiz-adv-x="514" 
d="M299 449l-10 281h160l-10 -281h-140zM75 449l-10 281h160l-10 -281h-140z" />
    <glyph glyph-name="numbersign" unicode="#" horiz-adv-x="700" 
d="M403 282l23 118h-129l-23 -118h129zM79 0l29 152h-84v130h110l23 118h-84v130h109l30 152h140l-29 -152h128l30 152h140l-29 -152h84v-130h-110l-23 -118h84v-130h-110l-29 -152h-140l29 152h-129l-29 -152h-140z" />
    <glyph glyph-name="dollar" unicode="$" horiz-adv-x="685" 
d="M264 -107v114q-63 9 -114.5 28.5t-100.5 53.5l62 136q61 -42 121.5 -63t118.5 -21q48 0 75.5 17t27.5 46q0 20 -14.5 32.5t-41 19t-110.5 17.5t-132.5 35.5t-71.5 65.5t-23 99q0 79 54 132t149 69v119h150v-119q45 -6 90 -21.5t79 -35.5l-59 -139q-51 31 -101 47.5
t-96 16.5q-41 0 -63.5 -14t-22.5 -38q0 -17 11.5 -28.5t35 -18.5t112 -18.5t138.5 -36t74 -66.5t24 -103q0 -82 -60.5 -139.5t-161.5 -72.5v-114h-150z" />
    <glyph glyph-name="percent" unicode="%" horiz-adv-x="1138" 
d="M499 560q0 -110 -61.5 -172t-169.5 -62t-165.5 60t-57.5 170q0 109 61 171.5t170 62.5q108 0 165.5 -60t57.5 -170zM344 558q0 52 -18.5 79t-53.5 27t-53.5 -27t-18.5 -79t18.5 -79t53.5 -27t53.5 27t18.5 79zM927 778l-542 -874h-174l542 874h174zM1093 126
q0 -110 -61.5 -172t-169.5 -62t-165.5 60t-57.5 170q0 109 61 171.5t170 62.5q108 0 165.5 -60t57.5 -170zM938 124q0 52 -18.5 79t-53.5 27t-53.5 -27t-18.5 -79t18.5 -79t53.5 -27t53.5 27t18.5 79z" />
    <glyph glyph-name="ampersand" unicode="&#x26;" horiz-adv-x="809" 
d="M260 534q0 -19 13.5 -38.5t46.5 -48.5q27 11 44.5 20.5t28.5 19.5t16.5 21t5.5 24q0 25 -22 39.5t-58 14.5t-55.5 -14t-19.5 -38zM339 112q64 0 117 35q-57 41 -104 76.5t-85 66.5q-30 -20 -44 -41.5t-14 -46.5q0 -43 33.5 -66.5t96.5 -23.5zM34 195q0 62 31.5 108
t97.5 80q-39 41 -56 74.5t-17 71.5q0 56 30 98.5t87 65.5t134 23q76 0 131.5 -21t84 -60.5t28.5 -92.5q0 -30 -10 -55t-29 -46t-47.5 -39.5t-73.5 -38.5q23 -18 54 -40.5t74 -52.5q10 27 15 54.5t5 55.5h160q0 -54 -13.5 -104.5t-39.5 -95.5l120 -83l-95 -123
q-104 71 -130 89q-52 -39 -115 -60t-132 -21q-139 0 -216.5 55.5t-77.5 157.5z" />
    <glyph glyph-name="quotesingle" unicode="'" horiz-adv-x="296" 
d="M75 449l-10 281h166l-10 -281h-146z" />
    <glyph glyph-name="parenleft" unicode="(" horiz-adv-x="364" 
d="M190 -180q-68 111 -103.5 238.5t-35.5 262.5t35.5 262.5t103.5 240.5h175q-72 -115 -109 -242t-37 -259q0 -133 36.5 -258.5t108.5 -244.5h-174z" />
    <glyph glyph-name="parenright" unicode=")" horiz-adv-x="364" 
d="M174 824q68 -111 103.5 -238.5t35.5 -262.5q0 -90 -16 -177t-47 -169t-76 -157h-175q72 115 109 242t37 259q0 133 -36.5 258.5t-108.5 244.5h174z" />
    <glyph glyph-name="asterisk" unicode="*" horiz-adv-x="514" 
d="M307 593l134 63l43 -130l-146 -29l101 -108l-110 -80l-72 129l-72 -129l-110 80l100 108l-145 29l43 130l133 -63l-17 147h136z" />
    <glyph glyph-name="plus" unicode="+" 
d="M247 42v213h-202v134h202v211h156v-211h202v-134h-202v-213h-156z" />
    <glyph glyph-name="comma" unicode="," horiz-adv-x="320" 
d="M254 184v-154q0 -66 -16.5 -107t-53 -68.5t-102.5 -49.5l-33 88q33 18 49.5 32.5t24 32t7.5 42.5h-64v184h188z" />
    <glyph glyph-name="hyphen" unicode="-" horiz-adv-x="376" 
d="M40 206v156h296v-156h-296z" />
    <glyph glyph-name="hyphen" unicode="&#x2010;" horiz-adv-x="376" 
d="M40 206v156h296v-156h-296z" />
    <glyph glyph-name="hyphen" unicode="&#xad;" horiz-adv-x="376" 
d="M40 206v156h296v-156h-296z" />
    <glyph glyph-name="period" unicode="." horiz-adv-x="320" 
d="M66 0v184h188v-184h-188z" />
    <glyph glyph-name="slash" unicode="/" horiz-adv-x="465" 
d="M-51 -142l376 920h172l-376 -920h-172z" />
    <glyph glyph-name="zero" unicode="0" horiz-adv-x="712" 
d="M667 344q0 -113 -38 -194.5t-109.5 -124.5t-168.5 -43t-166 42t-104.5 122t-35.5 192q0 113 38 194.5t109.5 124.5t168.5 43t166 -42t104.5 -122t35.5 -192zM483 340q0 107 -31 158.5t-96 51.5t-96 -51t-31 -157q0 -107 31 -158.5t96 -51.5t96 51t31 157z" />
    <glyph glyph-name="one" unicode="1" horiz-adv-x="462" 
d="M202 486q-31 -18 -71.5 -26.5t-93.5 -8.5v141q54 0 91 9t60.5 27t40.5 54h156v-682h-183v486z" />
    <glyph glyph-name="two" unicode="2" horiz-adv-x="626" 
d="M591 0h-561v150q75 49 130.5 87t95 68.5t65.5 55t41.5 44.5t22 38t6.5 36q0 25 -10 43.5t-30 28.5t-48 10q-27 0 -47 -11.5t-30.5 -31.5t-10.5 -44q0 -19 2.5 -36t6.5 -32h-170q-6 11 -9.5 28.5t-3.5 38.5q0 69 32.5 120t93.5 79t142 28t141.5 -26t92.5 -74.5t32 -112.5
q0 -32 -6.5 -58t-20.5 -51t-36.5 -50.5t-55.5 -53t-77.5 -57.5t-102.5 -64v-5q84 6 164 6h151v-154z" />
    <glyph glyph-name="three" unicode="3" horiz-adv-x="646" 
d="M202 233q7 -60 36.5 -88.5t83.5 -28.5q44 0 68.5 21t24.5 61q0 44 -30.5 63.5t-94.5 18.5h-54v132h55q32 -1 55 6t38 22q10 10 15 23.5t5 30.5q0 34 -24.5 53t-64.5 19q-49 0 -77 -27t-34 -82l-170 23q17 106 91 163t191 57q84 0 144.5 -22.5t92.5 -65t32 -99.5
q0 -58 -31 -100t-83 -58v-3q64 -12 98 -50.5t34 -100.5q0 -69 -33 -118.5t-97.5 -75t-156.5 -25.5q-135 0 -206 54t-84 167z" />
    <glyph glyph-name="four" unicode="4" horiz-adv-x="662" 
d="M358 0v153h-328v133l243 396h259v-390h100v-139h-100v-153h-174zM192 289q83 3 166 3v143q0 43 2 119h-7z" />
    <glyph glyph-name="five" unicode="5" horiz-adv-x="634" 
d="M554 541h-322l-17 -127h3q28 26 63.5 38t81.5 12q72 0 125.5 -28t81.5 -79.5t28 -122.5q0 -79 -36 -136t-102 -86.5t-154 -29.5q-110 0 -180 47.5t-92 136.5l164 43q13 -44 42 -68t69 -24q32 0 55.5 13t36.5 37.5t13 58.5q0 31 -14 55.5t-38 37.5t-53 13q-33 0 -56 -13.5
t-41 -43.5h-156l40 407h458v-141z" />
    <glyph glyph-name="six" unicode="6" horiz-adv-x="658" 
d="M452 492q-17 41 -40 57.5t-64 16.5q-58 0 -86.5 -48t-36.5 -155q25 36 66 54t99 18q111 0 169.5 -55t58.5 -158q0 -108 -78 -174t-204 -66q-143 0 -217.5 85.5t-74.5 250.5q0 186 78.5 284t228.5 98q108 0 166 -35.5t93 -121.5zM345 306q-46 0 -71.5 -25.5t-25.5 -68.5
q0 -44 24.5 -70t64.5 -26q49 0 73 25.5t24 76.5q0 41 -24 64.5t-65 23.5z" />
    <glyph glyph-name="seven" unicode="7" horiz-adv-x="630" 
d="M156 0q6 92 34 181t78.5 177t126.5 180l-355 -1v145h550v-141q-86 -102 -138.5 -192t-77.5 -175.5t-25 -173.5h-193z" />
    <glyph glyph-name="eight" unicode="8" horiz-adv-x="670" 
d="M432 489q0 34 -26.5 55.5t-71.5 21.5t-71 -21.5t-26 -55.5t26 -55.5t71 -21.5t71.5 21.5t26.5 55.5zM444 198q0 38 -29 60t-81 22q-51 0 -79.5 -22t-28.5 -60t29 -60t80 -22t80 22t29 60zM628 198q0 -69 -35 -117.5t-102 -73.5t-160 -25t-158 23t-98 69t-33 113
q0 56 31.5 99t87.5 64v3q-47 16 -75.5 55t-28.5 89q0 61 34 107t98 71t148 25q87 0 149 -24t94 -68.5t32 -106.5q0 -46 -28 -86t-75 -59v-3q58 -19 88.5 -58.5t30.5 -96.5z" />
    <glyph glyph-name="nine" unicode="9" horiz-adv-x="658" 
d="M198 193q18 -42 44 -59.5t68 -17.5q58 0 86.5 48t36.5 155q-23 -36 -64.5 -54t-100.5 -18q-111 0 -169.5 55t-58.5 158q0 108 78 174t204 66q143 0 217.5 -85.5t74.5 -250.5q0 -186 -78.5 -284t-228.5 -98q-106 0 -169.5 38.5t-97.5 121.5zM313 376q46 0 71.5 25.5
t25.5 68.5q0 44 -24.5 70t-64.5 26q-49 0 -73 -25.5t-24 -76.5q0 -41 24 -64.5t65 -23.5z" />
    <glyph glyph-name="colon" unicode=":" horiz-adv-x="346" 
d="M82 318v182h182v-182h-182zM82 0v182h182v-182h-182z" />
    <glyph glyph-name="semicolon" unicode=";" horiz-adv-x="346" 
d="M82 318v182h182v-182h-182zM264 182v-152q0 -64 -16 -105.5t-52.5 -69.5t-103.5 -49l-33 88q30 14 47.5 29t25.5 33.5t8 43.5h-58v182h182z" />
    <glyph glyph-name="less" unicode="&#x3c;" 
d="M595 47l-540 200v150l540 201v-161q-168 -59 -241.5 -82.5t-115.5 -30.5v-2q42 -7 116 -30.5t241 -82.5v-162z" />
    <glyph glyph-name="equal" unicode="=" 
d="M595 360h-540v134h540v-134zM595 150h-540v134h540v-134z" />
    <glyph glyph-name="greater" unicode="&#x3e;" 
d="M55 598l540 -201v-150l-540 -200v161q158 55 235 79.5t122 32.5v2q-42 7 -116 30.5t-241 82.5v163z" />
    <glyph glyph-name="question" unicode="?" horiz-adv-x="647" 
d="M252 270q-1 29 6.5 53.5t24.5 45.5t54 47t49 38.5t17.5 25.5t5.5 28q0 20 -11 36t-31.5 24.5t-46.5 8.5q-27 0 -47 -11.5t-30.5 -31.5t-10.5 -44q0 -14 1.5 -28.5t3.5 -22.5h-173q-2 9 -4 23t-2 26q0 69 32.5 121t93.5 79.5t143 27.5q81 0 141.5 -26t92.5 -72.5
t32 -105.5q0 -37 -10.5 -67t-31.5 -54t-62 -49.5t-52.5 -36t-17.5 -22t-7 -24.5l-2 -43h-156zM242 0v164h180v-164h-180z" />
    <glyph glyph-name="at" unicode="@" horiz-adv-x="1045" 
d="M576 298q0 35 -16.5 53.5t-47.5 18.5q-28 0 -48 -16.5t-31 -46t-11 -65.5q0 -41 16 -62t47 -21q28 0 48.5 18t31.5 51.5t11 69.5zM1008 340q0 -88 -33.5 -157t-95 -106.5t-140.5 -37.5q-61 0 -96 15.5t-51 50.5h-1q-23 -31 -61 -48.5t-79 -17.5q-94 0 -141 48.5
t-47 141.5q0 72 28 133.5t78.5 94.5t118.5 33q40 0 69.5 -14t45.5 -39h2l10 46h153l-44 -238q-6 -35 -5.5 -52.5t8 -25.5t26.5 -8q35 0 61 21.5t40 60t14 87.5q0 85 -36.5 146.5t-107 93.5t-169.5 32q-111 0 -196.5 -45t-133.5 -126.5t-48 -181.5q0 -95 40.5 -167.5
t116 -112t176.5 -39.5q58 0 119.5 7.5t116.5 21.5l15 -114q-52 -15 -120.5 -23t-137.5 -8q-141 0 -246 53.5t-162.5 152.5t-57.5 226q0 133 67 241.5t186.5 169.5t267.5 61q128 0 232 -48.5t161 -134t57 -193.5z" />
    <glyph glyph-name="A" unicode="A" horiz-adv-x="713" 
d="M349 538q-18 -80 -35 -137l-42 -147h156l-43 147q-17 57 -35 137h-1zM466 682l238 -682h-202l-36 124h-232l-35 -124h-190l238 682h219z" />
    <glyph glyph-name="B" unicode="B" horiz-adv-x="729" 
d="M72 682q57 1 144 1.5t153 0.5q97 0 156 -15t93 -49q43 -43 43 -108q0 -56 -28 -93t-83 -54q63 -14 99.5 -56t36.5 -102q0 -72 -36 -118.5t-108 -68.5t-188 -22q-199 0 -282 2v682zM246 414h112q45 0 69 5.5t36 17.5q9 9 13.5 20.5t4.5 25.5q0 26 -16 42q-14 14 -39 18.5
t-82 4.5q-32 0 -98 -2v-132zM246 136q92 -2 134 -2q45 0 70.5 7.5t38.5 23.5t13 42q0 25 -11.5 42t-35.5 25.5t-68 8.5h-141v-147z" />
    <glyph glyph-name="C" unicode="C" horiz-adv-x="715" 
d="M690 221q-31 -115 -113.5 -177t-203.5 -62q-98 0 -175 44t-119 125.5t-42 188.5t43 188t122 126.5t172 45.5q118 0 196.5 -57.5t112.5 -169.5l-168 -39q-16 55 -52.5 82.5t-90.5 27.5q-44 0 -78.5 -25t-53.5 -70.5t-19 -106.5t19.5 -107t55 -70.5t80.5 -24.5q56 0 95 31
t54 88z" />
    <glyph glyph-name="D" unicode="D" horiz-adv-x="755" 
d="M72 682q129 1 257 1q109 0 178.5 -22.5t118.5 -71.5q45 -45 68.5 -107t23.5 -138t-24.5 -141.5t-68.5 -109.5q-48 -48 -118.5 -71t-168.5 -23q-133 0 -266 1v682zM245 144q56 -2 90 -2q63 0 93 9.5t53 32.5q27 27 40 66.5t13 90.5q0 49 -14.5 89t-40.5 66q-25 25 -57 35
t-97 10q-56 0 -80 -1v-396z" />
    <glyph glyph-name="E" unicode="E" horiz-adv-x="655" 
d="M72 682h524v-135h-350v-135h303v-130h-303v-146h367v-136h-541v682z" />
    <glyph glyph-name="F" unicode="F" horiz-adv-x="607" 
d="M72 682h501v-137h-327v-158h283v-132h-283v-255h-174v682z" />
    <glyph glyph-name="G" unicode="G" horiz-adv-x="777" 
d="M569 0v58h-1q-35 -40 -82.5 -58t-113.5 -18q-97 0 -174 44.5t-119 125.5t-42 187q0 105 45.5 187.5t128.5 128t188 45.5q100 0 178 -31.5t127 -91.5l-133 -117q-28 42 -72.5 64t-101.5 22q-54 0 -94 -25t-61 -71t-21 -107q0 -64 21.5 -111t61.5 -71.5t93 -24.5
q45 0 78 14.5t50 40.5t17 58v5h-132v131h303v-385h-144z" />
    <glyph glyph-name="H" unicode="H" horiz-adv-x="770" 
d="M72 682h174v-254h278v254h174v-682h-174v281h-278v-281h-174v682z" />
    <glyph glyph-name="I" unicode="I" horiz-adv-x="318" 
d="M72 682h174v-682h-174v682z" />
    <glyph glyph-name="J" unicode="J" horiz-adv-x="577" 
d="M512 682v-447q0 -57 -15.5 -104t-47 -80t-79 -51t-111.5 -18q-50 0 -95 13t-79.5 43t-57 79t-27.5 120l170 28q5 -69 26 -100t64 -31q40 0 59 25.5t19 71.5v451h174z" />
    <glyph glyph-name="K" unicode="K" horiz-adv-x="718" 
d="M715 682l-231 -235l242 -447h-203l-167 318l-110 -112v-206h-174v682h174v-266l249 266h220z" />
    <glyph glyph-name="L" unicode="L" horiz-adv-x="571" 
d="M72 682h174v-532h305v-150h-479v682z" />
    <glyph glyph-name="M" unicode="M" horiz-adv-x="972" 
d="M72 682h290l90 -281q17 -52 26 -89t12 -64h3q4 31 13 70.5t23 82.5l90 281h281v-682h-174v240q0 103 1.5 176.5t5.5 129.5h-6q-10 -45 -20.5 -85t-26.5 -88l-120 -373h-158l-120 373q-16 48 -26.5 88t-20.5 85h-6q4 -55 5.5 -129.5t1.5 -176.5v-240h-164v682z" />
    <glyph glyph-name="N" unicode="N" horiz-adv-x="778" 
d="M490 0l-194 341q-16 28 -35.5 69t-31.5 70h-4q5 -56 8 -132.5t3 -145.5v-202h-164v682h230l180 -316q16 -28 35.5 -69t31.5 -70h4q-5 56 -8 132.5t-3 145.5v177h164v-682h-216z" />
    <glyph glyph-name="O" unicode="O" horiz-adv-x="794" 
d="M757 343q0 -106 -46 -188.5t-128.5 -127.5t-187.5 -45q-107 0 -188.5 44.5t-125.5 125.5t-44 187t46 188.5t128.5 127.5t187.5 45q107 0 188.5 -44.5t125.5 -125.5t44 -187zM573 341q0 61 -21.5 107t-61 71t-93.5 25q-53 0 -93 -24.5t-61.5 -70.5t-21.5 -108
q0 -61 21.5 -107t61 -71t93.5 -25q53 0 93 24.5t61.5 70.5t21.5 108z" />
    <glyph glyph-name="P" unicode="P" horiz-adv-x="689" 
d="M72 682q144 1 287 2q108 0 176.5 -26t102.5 -78.5t34 -131.5q0 -77 -36 -130t-107.5 -80.5t-176.5 -27.5q-77 0 -106 1v-211h-174v682zM488 446q0 34 -14 54.5t-43.5 30.5t-76.5 10q-74 0 -108 -1v-187q35 -1 111 -1q46 0 75 10.5t42.5 31t13.5 52.5z" />
    <glyph glyph-name="Q" unicode="Q" horiz-adv-x="794" 
d="M757 343q0 -67 -19 -125.5t-55 -104.5l59 -59l-100 -100l-68 68q-41 -20 -86.5 -30t-92.5 -10q-107 0 -188.5 44.5t-125.5 125.5t-44 187t46 188.5t128.5 127.5t187.5 45q107 0 188.5 -44.5t125.5 -125.5t44 -187zM496 300l59 -59q9 21 13.5 46t4.5 54q0 61 -21.5 107
t-61 71t-93.5 25q-53 0 -93 -24.5t-61.5 -70.5t-21.5 -108q0 -61 21.5 -107t61 -71t93.5 -25q16 0 29 2t25 5l-55 55z" />
    <glyph glyph-name="R" unicode="R" horiz-adv-x="713" 
d="M246 371q20 -1 44.5 -1h74.5q38 0 64.5 10t40 30t13.5 50q0 28 -13 45.5t-40 26.5t-68 9q-22 0 -60.5 -0.5t-55.5 -0.5v-169zM488 0l-137 229h-105v-229h-174v682q53 0 157.5 1t141.5 1q95 0 161.5 -25t100.5 -74t34 -121q0 -73 -34 -125t-100 -80l168 -259h-213z" />
    <glyph glyph-name="S" unicode="S" horiz-adv-x="688" 
d="M102 204q60 -38 125.5 -59t124.5 -21q37 0 62 7.5t38 21.5t13 33t-12.5 32.5t-38 22.5t-119 26t-144.5 44.5t-75 71t-24 104.5q0 62 35 111t100 75.5t151 26.5q60 0 127 -16.5t129 -46.5l-60 -139q-48 29 -100.5 45t-99.5 16q-34 0 -57 -7t-34 -19.5t-11 -28.5
q0 -18 12 -30t36.5 -20.5t118 -24t146 -43.5t77.5 -73.5t25 -109.5t-37 -115t-105 -78.5t-157 -27.5q-75 0 -158.5 23t-150.5 63z" />
    <glyph glyph-name="T" unicode="T" horiz-adv-x="542" 
d="M182 539h-185v143h548v-143h-185v-539h-178v539z" />
    <glyph glyph-name="U" unicode="U" horiz-adv-x="746" 
d="M239 287q0 -47 17 -80.5t48.5 -51t74.5 -17.5q44 0 75 16.5t47 50t16 82.5v395h164v-405q0 -88 -36.5 -155.5t-105 -103.5t-163.5 -36q-97 0 -167 35t-107 101t-37 155v409h174v-395z" />
    <glyph glyph-name="V" unicode="V" horiz-adv-x="658" 
d="M222 0l-227 682h192l99 -330q18 -61 28.5 -102t17.5 -82h4q8 40 18.5 85t26.5 101l91 328h191l-229 -682h-212z" />
    <glyph glyph-name="W" unicode="W" horiz-adv-x="1077" 
d="M199 0l-183 682h194l71 -314q8 -36 19 -91t20 -108h4q8 40 20.5 96.5t24.5 101.5l82 315h191l80 -315q21 -83 31 -125t16 -73h4q7 41 17.5 95t22.5 109l70 309h178l-183 -682h-227l-66 252q-30 116 -36 142.5t-9 49.5h-4q-4 -28 -11.5 -61t-32.5 -131l-66 -252h-227z" />
    <glyph glyph-name="X" unicode="X" horiz-adv-x="647" 
d="M219 351l-209 331h209l110 -193l115 193h193l-209 -325l226 -357h-210l-126 219l-132 -219h-194z" />
    <glyph glyph-name="Y" unicode="Y" horiz-adv-x="658" 
d="M242 0v271l-242 411h209l125 -238l121 238h203l-242 -411v-271h-174z" />
    <glyph glyph-name="Z" unicode="Z" horiz-adv-x="628" 
d="M596 0h-564v144l325 397q-134 -2 -202 -2h-108v143h534v-143l-326 -396q125 2 179 2h162v-145z" />
    <glyph glyph-name="bracketleft" unicode="[" horiz-adv-x="414" 
d="M383 -180h-311v1004h311v-132h-156v-740h156v-132z" />
    <glyph glyph-name="backslash" unicode="\" horiz-adv-x="465" 
d="M344 -142l-376 920h173l376 -920h-173z" />
    <glyph glyph-name="bracketright" unicode="]" horiz-adv-x="414" 
d="M31 -180v132h156v740h-156v132h311v-1004h-311z" />
    <glyph glyph-name="asciicircum" unicode="^" 
d="M420 344q-45 88 -65.5 133t-30.5 77h-2q-10 -32 -30.5 -77.5t-65.5 -132.5h-196l203 338h184l203 -338h-200z" />
    <glyph glyph-name="underscore" unicode="_" 
d="M650 -193h-650v134h650v-134z" />
    <glyph glyph-name="grave" unicode="`" horiz-adv-x="382" 
d="M334 552h-145l-141 150h203z" />
    <glyph glyph-name="a" unicode="a" horiz-adv-x="555" 
d="M22 141q0 43 19 76t58.5 55.5t99.5 33.5t141 11v10q0 35 -22.5 52.5t-64.5 17.5q-41 0 -80.5 -14.5t-71.5 -41.5l-67 96q49 38 111 58.5t128 20.5q112 0 169.5 -48t57.5 -141v-90v-80.5t3 -156.5h-149l-2 51h-1q-29 -34 -66.5 -50.5t-85.5 -16.5q-83 0 -130 42t-47 115z
M340 211q-43 0 -72 -3.5t-46.5 -10.5t-25 -18t-7.5 -27q0 -23 14.5 -35t40.5 -12t49 13.5t35 35t12 47.5v10v0z" />
    <glyph glyph-name="b" unicode="b" horiz-adv-x="621" 
d="M222 242q0 -39 12 -68.5t34.5 -45.5t52.5 -16q31 0 53 16.5t33.5 48t11.5 73.5q0 43 -12.5 74.5t-35.5 47.5t-53 16q-29 0 -51 -16t-33.5 -45.5t-11.5 -70.5v-14zM65 702h160v-159q0 -49 -8 -97h2q24 33 64.5 51.5t87.5 18.5q65 0 114.5 -32.5t76.5 -93t27 -139.5
q0 -77 -29 -138t-82.5 -95t-123.5 -34q-49 0 -85.5 18t-58.5 52h-1l-3 -54h-148q5 99 6 145.5t1 106.5v450z" />
    <glyph glyph-name="c" unicode="c" horiz-adv-x="547" 
d="M540 146q-39 -83 -99.5 -122.5t-146.5 -39.5q-81 0 -140.5 32.5t-90.5 92.5t-31 140t32.5 140.5t93.5 93.5t140 33q92 0 152 -39t83 -114l-146 -54q-8 35 -31.5 55.5t-57.5 20.5q-29 0 -51 -15.5t-33.5 -46t-11.5 -72.5q0 -41 11.5 -71.5t33.5 -47t52 -16.5
q32 0 55.5 19.5t36.5 56.5z" />
    <glyph glyph-name="d" unicode="d" horiz-adv-x="621" 
d="M410 0l-2 60h-1q-24 -36 -65.5 -56t-91.5 -20q-67 0 -116.5 33.5t-75.5 94t-26 137.5t29 138t82.5 95t123.5 34q43 0 77 -14.5t55 -40.5h1q-4 40 -4 82v159h160v-452q0 -61 0.5 -107t2.5 -143h-149zM399 258q0 40 -12.5 69.5t-35 45t-51.5 15.5q-31 0 -53 -16.5
t-33.5 -48t-11.5 -73.5q0 -41 12 -72.5t35 -48.5t54 -17q30 0 52 16.5t33 46t11 69.5v14z" />
    <glyph glyph-name="e" unicode="e" horiz-adv-x="591" 
d="M390 305q-1 28 -12 49t-30.5 32.5t-46.5 11.5q-26 0 -46 -10.5t-32.5 -31.5t-17.5 -51h185zM313 -16q-89 0 -152 30.5t-96 90t-33 144.5q0 80 33 140.5t95 93.5t143 33t139 -31t87.5 -89.5t29.5 -140.5q0 -33 -5 -56h-350q6 -33 21.5 -53.5t40.5 -30t61 -9.5
q43 0 85 13.5t75 37.5l55 -104q-50 -33 -109.5 -51t-119.5 -18z" />
    <glyph glyph-name="f" unicode="f" horiz-adv-x="337" 
d="M75 374h-62v126h62v61q-1 49 19.5 84t59.5 53t92 18q29 0 54.5 -3t42.5 -9v-125q-21 4 -37.5 5.5t-31.5 1.5q-13 0 -21.5 -4t-13 -13t-4.5 -24v-45h91v-126h-91v-374h-160v374z" />
    <glyph glyph-name="g" unicode="g" horiz-adv-x="621" 
d="M399 258q0 39 -12 68.5t-34.5 45.5t-52.5 16q-31 0 -53 -16.5t-33.5 -47t-11.5 -69.5q0 -38 12 -68.5t35 -47.5t54 -17q29 0 51 17t33.5 47t11.5 68v4zM564 500q-4 -46 -6 -108.5t-2 -143.5v-232q0 -105 -65 -157.5t-192 -52.5q-62 0 -120 10t-107 29l38 126
q44 -19 95.5 -30.5t95.5 -11.5q48 0 71.5 17.5t23.5 53.5q0 10 1 26.5t2 30.5h-2q-23 -29 -62 -45t-85 -16q-68 0 -117.5 31.5t-75 90t-25.5 136.5q0 75 29.5 135t83 93.5t122.5 33.5q49 0 85.5 -18t58.5 -52h1l5 54h147z" />
    <glyph glyph-name="h" unicode="h" horiz-adv-x="614" 
d="M65 702h160v-159q0 -49 -8 -97h2q24 33 64.5 51.5t87.5 18.5q60 0 102 -23t64 -69.5t22 -115.5v-308h-160v250q0 51 -2 69t-9 32q-9 18 -26 27.5t-42 9.5q-19 0 -35.5 -6.5t-26.5 -16.5q-18 -18 -25.5 -45t-7.5 -69v-251h-160v702z" />
    <glyph glyph-name="i" unicode="i" horiz-adv-x="290" 
d="M64 552v150h162v-150h-162v0zM65 0v500h160v-500h-160z" />
    <glyph glyph-name="j" unicode="j" horiz-adv-x="294" 
d="M68 552v150h162v-150h-162zM229 500v-485q0 -68 -19.5 -113.5t-59 -68.5t-100.5 -23q-17 0 -34 2.5t-24 6.5v124h33q22 0 30 7.5t11 26t3 62.5v461h160z" />
    <glyph glyph-name="k" unicode="k" horiz-adv-x="574" 
d="M65 702h160v-365l144 163h197l-173 -175l198 -325h-192l-123 207l-51 -52v-155h-160v702z" />
    <glyph glyph-name="l" unicode="l" horiz-adv-x="290" 
d="M65 702h160v-702h-160v702z" />
    <glyph glyph-name="m" unicode="m" horiz-adv-x="940" 
d="M725 0v250q0 51 -2 69t-9 32q-9 18 -25.5 27.5t-40.5 9.5q-19 0 -35 -6.5t-26 -16.5q-17 -17 -24.5 -43.5t-7.5 -70.5v-251h-160v250q0 51 -2 69t-9 32q-9 18 -25.5 27.5t-40.5 9.5q-19 0 -35 -6.5t-26 -16.5q-17 -17 -24.5 -43.5t-7.5 -70.5v-251h-160v240v78t-0.5 66.5
t-1 59t-1.5 56.5h148l3 -60h1q25 36 65.5 56t89.5 20q55 0 95 -20.5t63 -59.5q32 41 74.5 60.5t97.5 19.5q90 0 138 -53t48 -155v-308h-160z" />
    <glyph glyph-name="n" unicode="n" horiz-adv-x="614" 
d="M399 0v250q0 51 -2 69t-9 32q-9 18 -26 27.5t-42 9.5q-19 0 -35.5 -6.5t-26.5 -16.5q-18 -18 -25.5 -45t-7.5 -69v-251h-160v240v78t-0.5 66.5t-1 59t-1.5 56.5h148l3 -60h1q24 36 65.5 56t91.5 20q92 0 140 -53t48 -155v-308h-160z" />
    <glyph glyph-name="o" unicode="o" horiz-adv-x="604" 
d="M572 251q0 -80 -33 -140.5t-95.5 -93.5t-143.5 -33q-83 0 -144 32t-92.5 91.5t-31.5 141.5q0 80 33 140.5t95.5 93.5t143.5 33q83 0 144 -32t92.5 -91.5t31.5 -141.5zM402 250q0 41 -11.5 71t-34 46t-54.5 16t-54.5 -16.5t-34 -46.5t-11.5 -70q0 -41 11.5 -71t34 -46
t54.5 -16t54.5 16.5t34 46.5t11.5 70z" />
    <glyph glyph-name="p" unicode="p" horiz-adv-x="621" 
d="M65 -180v430q0 62 -1 128.5t-2 121.5h148l3 -60h1q24 36 65.5 56t91.5 20q65 0 114.5 -32.5t76.5 -93t27 -139.5q0 -77 -29 -138t-82.5 -95t-123.5 -34q-43 0 -77 14.5t-55 40.5h-1q4 -40 4 -82v-137h-160zM222 242q0 -40 12.5 -69.5t35 -45t51.5 -15.5q31 0 53 16.5
t33.5 48t11.5 73.5q0 43 -12.5 74.5t-35.5 47.5t-53 16q-29 0 -51 -16t-33.5 -45.5t-11.5 -70.5v-14z" />
    <glyph glyph-name="q" unicode="q" horiz-adv-x="621" 
d="M399 258q0 39 -12 68.5t-34.5 45.5t-52.5 16q-31 0 -53 -16.5t-33.5 -48t-11.5 -73.5q0 -41 12 -72.5t35 -48.5t54 -17q30 0 52 16.5t33 46t11 69.5v14zM396 -180v137q0 49 8 97h-2q-24 -33 -64.5 -51.5t-87.5 -18.5q-67 0 -116.5 33.5t-75.5 94t-26 137.5t29 138
t82.5 95t123.5 34q49 0 85.5 -18t58.5 -52h1l5 54h146q-4 -70 -5.5 -127.5t-1.5 -108.5v-444h-160z" />
    <glyph glyph-name="r" unicode="r" horiz-adv-x="408" 
d="M65 0v240q0 61 -0.5 110.5t-2.5 149.5h148l4 -82h1q29 52 65 75t85 23q21 0 35 -2v-159q-18 2 -38 2q-33 0 -57 -8t-40 -24q-22 -22 -31 -54t-9 -110v-161h-160z" />
    <glyph glyph-name="s" unicode="s" horiz-adv-x="528" 
d="M83 163q46 -28 93.5 -42.5t94.5 -14.5q34 0 50 8t16 25q0 11 -7.5 19t-24 13.5t-83.5 16.5t-104.5 31.5t-55.5 53t-18 77.5q0 52 27.5 89.5t78.5 57t119 19.5q50 0 103.5 -12t95.5 -33l-51 -111q-32 18 -72 28.5t-78 10.5q-19 0 -32.5 -3.5t-20.5 -10t-7 -16.5
q0 -11 8.5 -19t25 -13t82 -15.5t104 -31t57 -53.5t18.5 -79q0 -53 -27.5 -92.5t-80.5 -60.5t-125 -21q-60 0 -121 16t-120 47z" />
    <glyph glyph-name="t" unicode="t" horiz-adv-x="376" 
d="M18 373v127h61v139l160 29v-168h108v-127h-108v-162q0 -34 1 -49t3.5 -22t7.5 -12q6 -6 14 -8.5t21 -2.5q16 0 32.5 2t28.5 5v-123q-20 -8 -48.5 -12.5t-57.5 -4.5q-60 0 -95.5 18t-51.5 55t-15 97v219h-61z" />
    <glyph glyph-name="u" unicode="u" horiz-adv-x="610" 
d="M400 0l-3 60h-1q-25 -36 -65.5 -56t-89.5 -20q-61 0 -103 24.5t-62.5 71t-20.5 112.5v308h160v-250q0 -51 2 -69t9 -32q9 -18 25.5 -27.5t40.5 -9.5q19 0 35 6.5t26 16.5q17 17 24.5 43.5t7.5 70.5v251h160v-253q0 -60 0.5 -109.5t2.5 -137.5h-148z" />
    <glyph glyph-name="v" unicode="v" horiz-adv-x="538" 
d="M172 0l-175 500h180l57 -195q13 -46 23 -86t15 -71h3q5 27 14 64t23 93l51 195h178l-175 -500h-194z" />
    <glyph glyph-name="w" unicode="w" horiz-adv-x="836" 
d="M489 0l-42 165q-8 33 -15 67.5t-13 74.5h-2q-6 -40 -13 -74.5t-15 -67.5l-42 -165h-190l-151 500h170l56 -202q10 -36 17.5 -70.5t14.5 -78.5h3q8 54 14.5 87.5t13.5 62.5l51 201h156l51 -202q7 -30 14.5 -67t15.5 -82h3q5 33 12 69t17 80l47 202h168l-151 -500h-190z
" />
    <glyph glyph-name="x" unicode="x" horiz-adv-x="546" 
d="M-8 0l179 266l-163 234h192l80 -123l75 123h182l-166 -240l183 -260h-196l-96 146l-84 -146h-186z" />
    <glyph glyph-name="y" unicode="y" horiz-adv-x="538" 
d="M126 -180l79 180h-34l-174 500h179l58 -195q13 -46 23 -86t15 -71h3q5 27 14 64t23 93l51 195h178l-236 -680h-179z" />
    <glyph glyph-name="z" unicode="z" horiz-adv-x="535" 
d="M491 0h-447v130l222 244q-18 0 -63.5 -1t-64.5 -1h-83v128h424v-128l-222 -244q15 0 61.5 1t67.5 1h105v-130z" />
    <glyph glyph-name="braceleft" unicode="{" horiz-adv-x="474" 
d="M24 387h31q36 0 50.5 7t20.5 26.5t6 62.5v130q0 74 22.5 120t71 68.5t126.5 22.5h91v-132h-89q-27 0 -41 -8.5t-20 -25.5t-6 -45v-126q0 -51 -9.5 -84t-29.5 -51.5t-53 -26.5v-2q33 -8 53 -26.5t29.5 -51.5t9.5 -84v-129q0 -31 7 -48t22 -24.5t39 -7.5h88v-132h-93
q-78 0 -125.5 21.5t-70 67t-22.5 120.5v130q0 43 -6.5 63t-22 27.5t-50.5 7.5h-29v130z" />
    <glyph glyph-name="bar" unicode="|" horiz-adv-x="341" 
d="M91 -180v1004h159v-1004h-159z" />
    <glyph glyph-name="braceright" unicode="}" horiz-adv-x="474" 
d="M31 -180v132h89q24 0 38.5 7t21.5 24t7 48v126q0 51 9.5 84t29.5 51.5t53 26.5v2q-33 8 -53 26.5t-29.5 51.5t-9.5 84v129q0 31 -7 48t-22 24.5t-39 7.5h-88v132h93q78 0 125.5 -21.5t70 -67t22.5 -120.5v-130q0 -43 6.5 -63t22 -27.5t50.5 -7.5h29v-130h-31
q-36 0 -50.5 -7t-20.5 -26.5t-6 -62.5v-130q0 -76 -23.5 -122t-71.5 -67.5t-125 -21.5h-91z" />
    <glyph glyph-name="asciitilde" unicode="~" 
d="M50 214q0 72 21 123t62.5 77t102.5 26q44 0 78 -14t60.5 -42.5t34 -33t15.5 -4.5q11 0 18 9.5t10.5 28.5t3.5 46h144q0 -72 -21 -123t-62.5 -77t-102.5 -26q-44 0 -78 14t-60.5 42.5t-34 33t-15.5 4.5q-11 0 -18 -10t-10.5 -28.5t-3.5 -45.5h-144z" />
    <glyph glyph-name="exclamdown" unicode="&#xa1;" horiz-adv-x="372" 
d="M263 390l18 -486h-190l18 486h154zM276 606v-164h-180v164h180z" />
    <glyph glyph-name="cent" unicode="&#xa2;" horiz-adv-x="566" 
d="M374 693v-111q55 -13 95.5 -47.5t60.5 -86.5l-135 -59q-13 35 -35 52t-53 17q-42 0 -66.5 -31t-24.5 -83q0 -55 23.5 -85t68.5 -30q36 0 60 18.5t38 55.5l126 -54q-21 -56 -61.5 -92.5t-96.5 -50.5v-116h-140v114q-91 17 -139.5 79t-48.5 160q0 91 50.5 155t137.5 84v111
h140z" />
    <glyph glyph-name="sterling" unicode="&#xa3;" 
d="M603 0h-548v122q53 31 73 56t20 57q0 7 -2 25h-99v130h68q-8 29 -12 53t-4 45q0 67 30 114.5t88 72.5t142 25q91 0 152.5 -41t98.5 -125l-144 -73q-16 48 -43 71t-66 23q-24 0 -41 -9.5t-25 -26.5t-8 -39q0 -18 3.5 -39t12.5 -51h178v-130h-147q2 -18 2 -25
q0 -27 -9.5 -45.5t-31.5 -34.5v-5q98 4 167 4h145v-154z" />
    <glyph glyph-name="currency" unicode="&#xa4;" horiz-adv-x="668" 
d="M413 322q0 39 -22 62.5t-59 23.5t-58.5 -24t-21.5 -62q0 -39 22 -62.5t59 -23.5t58.5 23.5t21.5 62.5zM553 323q0 -54 -22 -96l92 -88l-97 -98l-96 102q-42 -16 -99 -16q-56 0 -98 15l-94 -100l-97 97l90 87q-20 40 -20 95t22 95l-92 89l97 98l95 -102q46 16 100 16
q55 0 98 -15l94 101l97 -98l-91 -87q21 -44 21 -95z" />
    <glyph glyph-name="yen" unicode="&#xa5;" 
d="M240 0v79h-158v112h158v54h-158v112h158v6l-225 319h214l52 -89q26 -43 49 -78q27 41 47 76l51 91h207l-225 -319v-6h158v-112h-158v-54h158v-112h-158v-79h-170z" />
    <glyph glyph-name="brokenbar" unicode="&#xa6;" horiz-adv-x="341" 
d="M91 -180v420h159v-420h-159zM91 405v419h159v-419h-159z" />
    <glyph glyph-name="section" unicode="&#xa7;" horiz-adv-x="651" 
d="M437 269q0 17 -11 29t-32.5 20.5t-70.5 19.5t-70 17q-19 -15 -29 -35t-10 -42q0 -17 11.5 -29.5t34.5 -21.5t71.5 -19t67.5 -15q18 15 28 34.5t10 41.5zM53 266q0 43 23.5 79.5t66.5 61.5q-24 22 -36 51.5t-12 68.5q0 42 16.5 77.5t48.5 60.5t77 38t101 13t113.5 -15.5
t101.5 -42.5l-55 -126q-33 25 -77 39.5t-86 14.5q-40 0 -59.5 -12t-19.5 -35q0 -16 10.5 -27t32 -20t98.5 -26.5t118.5 -41t62 -59t20.5 -84.5q0 -43 -22.5 -79t-64.5 -61q27 -22 40.5 -52.5t13.5 -69.5q0 -41 -17 -76t-49 -60.5t-77 -38.5t-101 -13q-61 0 -120.5 18
t-111.5 52l58 124q42 -30 89.5 -47t87.5 -17q42 0 61 11.5t19 35.5q0 15 -10 26.5t-32 20.5t-103 27t-123.5 42t-62.5 59t-20 83z" />
    <glyph glyph-name="dieresis" unicode="&#xa8;" horiz-adv-x="494" 
d="M282 552v150h150v-150h-150zM62 552v150h150v-150h-150z" />
    <glyph glyph-name="copyright" unicode="&#xa9;" horiz-adv-x="980" 
d="M716 256q-26 -68 -84 -105.5t-136 -37.5q-72 0 -125 28t-81 79.5t-28 119.5q0 69 29.5 121.5t84.5 81t127 28.5q78 0 131.5 -34.5t77.5 -100.5l-126 -53q-10 31 -32 47t-54 16q-25 0 -43.5 -12t-28.5 -36t-10 -57q0 -31 9.5 -54.5t28.5 -36t45 -12.5q32 0 56 18.5
t35 52.5zM793 340q0 89 -38 160t-107 110t-157 39q-90 0 -159.5 -39.5t-107 -110t-37.5 -159.5q0 -88 38 -159t107 -110t157 -39q90 0 159.5 39.5t107 110t37.5 158.5zM934 344q0 -122 -57.5 -222.5t-160 -157.5t-228.5 -57q-127 0 -228 55.5t-157.5 154.5t-56.5 221
t57.5 222.5t160 157t228.5 56.5q127 0 228 -55.5t157.5 -154.5t56.5 -220z" />
    <glyph glyph-name="ordfeminine" unicode="&#xaa;" horiz-adv-x="524" 
d="M62 145v116h396v-116h-396zM319 524q-37 0 -62.5 -3t-40.5 -9.5t-21.5 -15.5t-6.5 -23q0 -20 12.5 -30.5t35.5 -10.5t42.5 11.5t30 30t10.5 41.5v9zM459 479q0 -32 0.5 -57t3.5 -82h-130l-3 45q-26 -30 -58.5 -44.5t-75.5 -14.5q-48 0 -82.5 16.5t-53 47.5t-18.5 73
q0 38 16.5 66.5t50.5 47.5t86.5 29t123.5 10v9q0 31 -19.5 46t-56.5 15q-35 0 -66 -11.5t-66 -36.5l-59 83q55 36 104.5 52.5t104.5 16.5q97 0 147.5 -42t50.5 -123v-146z" />
    <glyph glyph-name="guillemotleft" unicode="&#xab;" horiz-adv-x="684" 
d="M477 46l-142 238l144 238l132 -62l-84 -175l84 -175zM209 30l-154 254l156 253l133 -61l-97 -191l96 -191z" />
    <glyph glyph-name="logicalnot" unicode="&#xac;" 
d="M430 66v189h-385v134h541v-323h-156z" />
    <glyph glyph-name="registered" unicode="&#xae;" horiz-adv-x="736" 
d="M332 550h41q21 0 31 8t10 24q0 11 -5 17t-14.5 8.5t-22.5 2.5h-40v-60zM404 385l-42 95h-30v-95h-100v296q72 1 141 1q51 0 83 -11t47 -32.5t15 -54.5q0 -28 -15.5 -50t-44.5 -36l64 -113h-118zM577 527q0 62 -26.5 112.5t-74 79t-108.5 28.5t-109 -28.5t-74 -79
t-26 -112.5q0 -64 27 -114.5t74.5 -78t107.5 -27.5q61 0 109 28.5t74 79t26 112.5zM664 529q0 -81 -39 -150t-107.5 -108t-151.5 -39q-82 0 -149.5 38t-106 105.5t-38.5 149.5q0 81 39 150t107.5 108t151.5 39t150.5 -38.5t105.5 -106t38 -148.5z" />
    <glyph glyph-name="macron" unicode="&#xaf;" horiz-adv-x="470" 
d="M408 559h-346v128h346v-128z" />
    <glyph glyph-name="macron" unicode="&#x2c9;" horiz-adv-x="470" 
d="M408 559h-346v128h346v-128z" />
    <glyph glyph-name="degree" unicode="&#xb0;" horiz-adv-x="455" 
d="M428 616q0 -50 -24 -88.5t-70 -59.5t-108 -21t-106.5 19.5t-68.5 57t-24 90.5q0 50 24 88.5t70 59.5t108 21q63 0 108 -20.5t68 -58t23 -88.5zM293 615q0 30 -17 47t-49 17q-31 0 -48 -17t-17 -47q0 -31 17 -47.5t49 -16.5t48.5 17t16.5 47z" />
    <glyph glyph-name="plusminus" unicode="&#xb1;" 
d="M595 0h-540v134h540v-134zM247 184v183h-192v134h192v181h156v-181h192v-134h-192v-183h-156z" />
    <glyph glyph-name="twosuperior" unicode="&#xb2;" horiz-adv-x="543" 
d="M480 338h-418v137q78 36 126 60t74.5 41.5t35.5 31t9 30.5q0 18 -12.5 28.5t-33.5 10.5q-22 0 -34 -10.5t-12 -30.5q0 -19 6 -37h-151q-6 17 -6 36q0 71 56 113t148 42q101 0 155 -38.5t54 -111.5q0 -27 -11.5 -51.5t-36 -46.5t-64.5 -41.5t-97 -37.5v-5q78 2 110 2h102
v-122z" />
    <glyph glyph-name="threesuperior" unicode="&#xb3;" horiz-adv-x="543" 
d="M196 488q4 -58 66 -58q22 0 34.5 10t12.5 29q0 23 -17 33.5t-51 10.5h-47v94h41q23 0 36.5 3.5t21.5 11.5q11 11 11 28t-11.5 27t-32.5 10q-27 0 -43 -15.5t-19 -42.5l-144 20q10 66 65.5 103.5t145.5 37.5q100 0 154 -32.5t54 -93.5q0 -34 -23 -59.5t-61 -34.5v-3
q95 -20 95 -105q0 -63 -59.5 -99.5t-162.5 -36.5q-100 0 -153 35t-61 107z" />
    <glyph glyph-name="acute" unicode="&#xb4;" horiz-adv-x="394" 
d="M137 702h203l-141 -150h-145z" />
    <glyph glyph-name="mu" unicode="&#xb5;" horiz-adv-x="620" 
d="M65 -180v680h160v-250q0 -51 2 -69t9 -32q9 -18 25.5 -27.5t40.5 -9.5q19 0 35 6.5t26 16.5q17 17 24.5 43.5t7.5 70.5v251h160v-253q0 -60 0.5 -109.5t2.5 -137.5h-148l-3 60h-1q-22 -33 -59.5 -53t-76.5 -20q-28 0 -54 10h-1q4 -38 10 -100l7 -77h-167z" />
    <glyph glyph-name="mu" unicode="&#x3bc;" horiz-adv-x="620" 
d="M65 -180v680h160v-250q0 -51 2 -69t9 -32q9 -18 25.5 -27.5t40.5 -9.5q19 0 35 6.5t26 16.5q17 17 24.5 43.5t7.5 70.5v251h160v-253q0 -60 0.5 -109.5t2.5 -137.5h-148l-3 60h-1q-22 -33 -59.5 -53t-76.5 -20q-28 0 -54 10h-1q4 -38 10 -100l7 -77h-167z" />
    <glyph glyph-name="paragraph" unicode="&#xb6;" horiz-adv-x="793" 
d="M567 -180v717h-93v-717h-154v376h-18q-82 0 -141.5 30t-90 85.5t-30.5 130.5q0 78 33.5 132t96.5 81.5t151 27.5q24 0 106 -0.5t116 -0.5h178v-862h-154z" />
    <glyph glyph-name="periodcentered" unicode="&#xb7;" horiz-adv-x="320" 
d="M66 230v184h188v-184h-188z" />
    <glyph glyph-name="periodcentered" unicode="&#x22c5;" horiz-adv-x="320" 
d="M66 230v184h188v-184h-188z" />
    <glyph glyph-name="periodcentered" unicode="&#x2219;" horiz-adv-x="320" 
d="M66 230v184h188v-184h-188z" />
    <glyph glyph-name="cedilla" unicode="&#xb8;" horiz-adv-x="322" 
d="M60 -180q26 26 34.5 40t8.5 25q0 9 -6.5 17.5t-28.5 22.5l48 83h123l-23 -40q24 -18 34 -34.5t10 -36.5q0 -19 -13 -39.5t-35 -37.5h-152z" />
    <glyph glyph-name="onesuperior" unicode="&#xb9;" horiz-adv-x="390" 
d="M154 338v279q-16 -14 -46.5 -21t-70.5 -7v122q50 0 86.5 18.5t46.5 48.5h146v-440h-162z" />
    <glyph glyph-name="ordmasculine" unicode="&#xba;" horiz-adv-x="555" 
d="M62 145v116h431v-116h-431zM513 559q0 -70 -29 -122.5t-83 -81.5t-125 -29q-74 0 -127 28t-80 80t-27 123q0 70 29 122.5t83 81.5t125 29q72 0 125 -27t81 -79t28 -125zM365 558q0 37 -11 63.5t-31 39.5t-46 13q-28 0 -47.5 -14.5t-29.5 -40.5t-10 -61t10 -61t29.5 -40.5
t47.5 -14.5t48 14.5t30 40.5t10 61z" />
    <glyph glyph-name="guillemotright" unicode="&#xbb;" horiz-adv-x="684" 
d="M207 522l142 -238l-144 -238l-132 62l84 175l-84 175zM475 538l154 -254l-156 -253l-133 61l97 191l-96 191z" />
    <glyph glyph-name="onequarter" unicode="&#xbc;" horiz-adv-x="995" 
d="M154 338v279q-16 -14 -46.5 -21t-70.5 -7v122q50 0 86.5 18.5t46.5 48.5h146v-440h-162zM809 778l-542 -874h-174l542 874h174zM629 99q84 2 102 2v76q0 11 1 57h-4zM731 -96v77h-245v126l174 237h231v-242h68v-121h-68v-77h-160z" />
    <glyph glyph-name="onehalf" unicode="&#xbd;" horiz-adv-x="1024" 
d="M154 338v279q-16 -14 -46.5 -21t-70.5 -7v122q50 0 86.5 18.5t46.5 48.5h146v-440h-162zM809 778l-542 -874h-174l542 874h174zM961 -96h-418v137q78 36 126 60t74.5 41.5t35.5 31t9 30.5q0 18 -12.5 28.5t-33.5 10.5q-22 0 -34 -10.5t-12 -30.5q0 -19 6 -37h-151
q-6 17 -6 36q0 71 56 113t148 42q101 0 155 -38.5t54 -111.5q0 -27 -11.5 -51.5t-36 -46.5t-64.5 -41.5t-97 -37.5v-5q78 2 110 2h102v-122z" />
    <glyph glyph-name="threequarters" unicode="&#xbe;" horiz-adv-x="1127" 
d="M196 488q4 -58 66 -58q22 0 34.5 10t12.5 29q0 23 -17 33.5t-51 10.5h-47v94h41q23 0 36.5 3.5t21.5 11.5q11 11 11 28t-11.5 27t-32.5 10q-27 0 -43 -15.5t-19 -42.5l-144 20q10 66 65.5 103.5t145.5 37.5q100 0 154 -32.5t54 -93.5q0 -34 -23 -59.5t-61 -34.5v-3
q95 -20 95 -105q0 -63 -59.5 -99.5t-162.5 -36.5q-100 0 -153 35t-61 107zM941 778l-542 -874h-174l542 874h174zM761 99q84 2 102 2v76q0 11 1 57h-4zM863 -96v77h-245v126l174 237h231v-242h68v-121h-68v-77h-160z" />
    <glyph glyph-name="questiondown" unicode="&#xbf;" horiz-adv-x="647" 
d="M395.016 336.017q1 -28.998 -6.5 -53.4971q-7.49902 -24.498 -24.498 -45.4971t-53.9971 -46.9971t-48.9971 -38.498q-11.999 -12.499 -17.499 -25.498q-5.49902 -12.999 -5.49902 -27.998q0 -19.999 10.999 -35.998t31.498 -24.498q20.499 -8.5 46.4971 -8.5
q26.998 0 46.9971 11.499q19.999 11.5 30.498 31.498q10.499 19.999 10.499 43.998q0 13.999 -1.49902 28.498q-1.5 14.499 -3.5 22.498h172.989q2 -8.99902 4 -22.998t2 -25.999q0 -68.9951 -32.498 -120.992t-93.4941 -79.4951q-60.9971 -27.498 -142.992 -27.498
q-80.9941 0 -141.491 25.998q-60.4961 25.999 -92.4941 72.4961t-31.998 105.493q0 36.998 10.499 66.9961q10.5 29.998 31.498 53.9961q20.999 23.999 61.9971 49.4971q40.9971 25.499 52.4961 35.998q11.5 10.499 17.499 21.999q6 11.499 7 24.498l2 42.998h155.99z
M405.015 606v-163.99h-179.989v163.99h179.989z" />
    <glyph glyph-name="Agrave" unicode="&#xc0;" horiz-adv-x="713" 
d="M349 538q-18 -80 -35 -137l-42 -147h156l-43 147q-17 57 -35 137h-1zM466 682l238 -682h-202l-36 124h-232l-35 -124h-190l238 682h219zM459 734h-155l-141 150h213z" />
    <glyph glyph-name="Aacute" unicode="&#xc1;" horiz-adv-x="713" 
d="M349 538q-18 -80 -35 -137l-42 -147h156l-43 147q-17 57 -35 137h-1zM466 682l238 -682h-202l-36 124h-232l-35 -124h-190l238 682h219zM335 884h213l-141 -150h-155z" />
    <glyph glyph-name="Acircumflex" unicode="&#xc2;" horiz-adv-x="713" 
d="M349 538q-18 -80 -35 -137l-42 -147h156l-43 147q-17 57 -35 137h-1zM466 682l238 -682h-202l-36 124h-232l-35 -124h-190l238 682h219zM250 887h212l108 -150h-156l-60 66l-60 -66h-152z" />
    <glyph glyph-name="Atilde" unicode="&#xc3;" horiz-adv-x="713" 
d="M349 538q-18 -80 -35 -137l-42 -147h156l-43 147q-17 57 -35 137h-1zM466 682l238 -682h-202l-36 124h-232l-35 -124h-190l238 682h219zM280 769q-12 0 -17 -8t-5 -27h-126q0 51 17 86.5t51 54t85 18.5q29 0 54.5 -6.5t49.5 -19.5t30.5 -15.5t12.5 -2.5q12 0 17 8t5 27
h126q0 -51 -17 -86.5t-51 -54t-85 -18.5q-29 0 -54.5 6.5t-49.5 19.5t-30.5 15.5t-12.5 2.5z" />
    <glyph glyph-name="Adieresis" unicode="&#xc4;" horiz-adv-x="713" 
d="M349 538q-18 -80 -35 -137l-42 -147h156l-43 147q-17 57 -35 137h-1zM466 682l238 -682h-202l-36 124h-232l-35 -124h-190l238 682h219zM401 734v150h160v-150h-160zM151 734v150h160v-150h-160z" />
    <glyph glyph-name="Aring" unicode="&#xc5;" horiz-adv-x="713" 
d="M349 538q-18 -80 -35 -137l-42 -147h156l-43 147q-17 57 -35 137h-1zM466 682l238 -682h-202l-36 124h-232l-35 -124h-190l238 682h219zM388 834q0 17 -8 27.5t-24 10.5t-24 -10.5t-8 -27.5t8 -27.5t24 -10.5t24 10.5t8 27.5zM509 835q0 -51 -40.5 -84t-113.5 -33
q-74 0 -113 32t-39 83t40.5 84t113.5 33q74 0 113 -32t39 -83z" />
    <glyph glyph-name="AE" unicode="&#xc6;" horiz-adv-x="996" 
d="M271 236h170v311h-45zM937 682v-135h-322v-135h275v-130h-275v-146h339v-136h-513v106h-222l-41 -106h-191l292 682h658z" />
    <glyph glyph-name="Ccedilla" unicode="&#xc7;" horiz-adv-x="715" 
d="M259 -180q1 1 14.5 13.5t22.5 26.5t9 25q0 20 -35 39l36 64q-83 15 -144 63t-93 122t-32 167q0 107 43 188t122 126.5t172 45.5q118 0 196.5 -57.5t112.5 -169.5l-168 -39q-16 55 -52.5 82.5t-90.5 27.5q-44 0 -78.5 -25t-53.5 -70.5t-19 -106.5q0 -59 19 -105
t54.5 -71.5t81.5 -25.5q56 0 95 31t54 88l165 -38q-17 -65 -52.5 -114t-87 -80t-112.5 -41l-10 -18q24 -19 34 -35t10 -36q0 -21 -15 -41.5t-39 -35.5h-159z" />
    <glyph glyph-name="Egrave" unicode="&#xc8;" horiz-adv-x="655" 
d="M72 682h524v-135h-350v-135h303v-130h-303v-146h367v-136h-541v682zM448 734h-155l-141 150h213z" />
    <glyph glyph-name="Eacute" unicode="&#xc9;" horiz-adv-x="655" 
d="M72 682h524v-135h-350v-135h303v-130h-303v-146h367v-136h-541v682zM326 884h213l-141 -150h-155z" />
    <glyph glyph-name="Ecircumflex" unicode="&#xca;" horiz-adv-x="655" 
d="M72 682h524v-135h-350v-135h303v-130h-303v-146h367v-136h-541v682zM239 887h212l108 -150h-156l-60 66l-60 -66h-152z" />
    <glyph glyph-name="Edieresis" unicode="&#xcb;" horiz-adv-x="655" 
d="M72 682h524v-135h-350v-135h303v-130h-303v-146h367v-136h-541v682zM390 734v150h160v-150h-160zM140 734v150h160v-150h-160z" />
    <glyph glyph-name="Igrave" unicode="&#xcc;" horiz-adv-x="318" 
d="M72 682h174v-682h-174v682zM262 734h-155l-141 150h213z" />
    <glyph glyph-name="Iacute" unicode="&#xcd;" horiz-adv-x="318" 
d="M72 682h174v-682h-174v682zM142 884h213l-141 -150h-155z" />
    <glyph glyph-name="Icircumflex" unicode="&#xce;" horiz-adv-x="318" 
d="M72 682h174v-682h-174v682zM53 887h212l108 -150h-156l-60 66l-60 -66h-152z" />
    <glyph glyph-name="Idieresis" unicode="&#xcf;" horiz-adv-x="318" 
d="M72 682h174v-682h-174v682zM204 734v150h160v-150h-160zM-46 734v150h160v-150h-160z" />
    <glyph glyph-name="Eth" unicode="&#xd0;" horiz-adv-x="765" 
d="M82 282h-80v130h80v270q129 1 257 1q109 0 178.5 -22.5t118.5 -71.5q45 -45 68.5 -107t23.5 -138t-24.5 -141.5t-68.5 -109.5q-48 -48 -118.5 -71t-168.5 -23q-133 0 -266 1v282zM255 142q56 -2 90 -2q59 0 90.5 9.5t55.5 33.5q27 27 40 67t13 91q0 49 -14.5 89.5
t-40.5 66.5q-25 25 -58 35.5t-96 10.5q-56 0 -80 -1v-130h166v-130h-166v-140z" />
    <glyph glyph-name="Ntilde" unicode="&#xd1;" horiz-adv-x="778" 
d="M490 0l-194 341q-16 28 -35.5 69t-31.5 70h-4q5 -56 8 -132.5t3 -145.5v-202h-164v682h230l180 -316q16 -28 35.5 -69t31.5 -70h4q-5 56 -8 132.5t-3 145.5v177h164v-682h-216zM316 769q-12 0 -17 -8t-5 -27h-126q0 51 17 86.5t51 54t85 18.5q29 0 54.5 -6.5t49.5 -19.5
t30.5 -15.5t12.5 -2.5q12 0 17 8t5 27h126q0 -51 -17 -86.5t-51 -54t-85 -18.5q-29 0 -54.5 6.5t-49.5 19.5t-30.5 15.5t-12.5 2.5z" />
    <glyph glyph-name="Ograve" unicode="&#xd2;" horiz-adv-x="794" 
d="M757 343q0 -106 -46 -188.5t-128.5 -127.5t-187.5 -45q-107 0 -188.5 44.5t-125.5 125.5t-44 187t46 188.5t128.5 127.5t187.5 45q107 0 188.5 -44.5t125.5 -125.5t44 -187zM573 341q0 61 -21.5 107t-61 71t-93.5 25q-53 0 -93 -24.5t-61.5 -70.5t-21.5 -108
q0 -61 21.5 -107t61 -71t93.5 -25q53 0 93 24.5t61.5 70.5t21.5 108zM499 734h-155l-141 150h213z" />
    <glyph glyph-name="Oacute" unicode="&#xd3;" horiz-adv-x="794" 
d="M757 343q0 -106 -46 -188.5t-128.5 -127.5t-187.5 -45q-107 0 -188.5 44.5t-125.5 125.5t-44 187t46 188.5t128.5 127.5t187.5 45q107 0 188.5 -44.5t125.5 -125.5t44 -187zM573 341q0 61 -21.5 107t-61 71t-93.5 25q-53 0 -93 -24.5t-61.5 -70.5t-21.5 -108
q0 -61 21.5 -107t61 -71t93.5 -25q53 0 93 24.5t61.5 70.5t21.5 108zM377 884h213l-141 -150h-155z" />
    <glyph glyph-name="Ocircumflex" unicode="&#xd4;" horiz-adv-x="794" 
d="M757 343q0 -106 -46 -188.5t-128.5 -127.5t-187.5 -45q-107 0 -188.5 44.5t-125.5 125.5t-44 187t46 188.5t128.5 127.5t187.5 45q107 0 188.5 -44.5t125.5 -125.5t44 -187zM573 341q0 61 -21.5 107t-61 71t-93.5 25q-53 0 -93 -24.5t-61.5 -70.5t-21.5 -108
q0 -61 21.5 -107t61 -71t93.5 -25q53 0 93 24.5t61.5 70.5t21.5 108zM291 887h212l108 -150h-156l-60 66l-60 -66h-152z" />
    <glyph glyph-name="Otilde" unicode="&#xd5;" horiz-adv-x="794" 
d="M757 343q0 -106 -46 -188.5t-128.5 -127.5t-187.5 -45q-107 0 -188.5 44.5t-125.5 125.5t-44 187t46 188.5t128.5 127.5t187.5 45q107 0 188.5 -44.5t125.5 -125.5t44 -187zM573 341q0 61 -21.5 107t-61 71t-93.5 25q-53 0 -93 -24.5t-61.5 -70.5t-21.5 -108
q0 -61 21.5 -107t61 -71t93.5 -25q53 0 93 24.5t61.5 70.5t21.5 108zM321 769q-12 0 -17 -8t-5 -27h-126q0 51 17 86.5t51 54t85 18.5q29 0 54.5 -6.5t49.5 -19.5t30.5 -15.5t12.5 -2.5q12 0 17 8t5 27h126q0 -51 -17 -86.5t-51 -54t-85 -18.5q-29 0 -54.5 6.5t-49.5 19.5
t-30.5 15.5t-12.5 2.5z" />
    <glyph glyph-name="Odieresis" unicode="&#xd6;" horiz-adv-x="794" 
d="M757 343q0 -106 -46 -188.5t-128.5 -127.5t-187.5 -45q-107 0 -188.5 44.5t-125.5 125.5t-44 187t46 188.5t128.5 127.5t187.5 45q107 0 188.5 -44.5t125.5 -125.5t44 -187zM573 341q0 61 -21.5 107t-61 71t-93.5 25q-53 0 -93 -24.5t-61.5 -70.5t-21.5 -108
q0 -61 21.5 -107t61 -71t93.5 -25q53 0 93 24.5t61.5 70.5t21.5 108zM442 734v150h160v-150h-160zM192 734v150h160v-150h-160z" />
    <glyph glyph-name="multiply" unicode="&#xd7;" 
d="M490 52l-165 168l-165 -168l-105 105l168 165l-168 165l105 105l165 -168l165 168l105 -105l-168 -165l168 -165z" />
    <glyph glyph-name="Oslash" unicode="&#xd8;" horiz-adv-x="794" 
d="M217 341q0 -19 3 -41.5t7 -41.5l250 276q-17 7 -38.5 11t-41.5 4q-56 0 -96.5 -26t-62 -73t-21.5 -109zM577 341q0 19 -3 41.5t-7 41.5l-250 -276q17 -7 38.5 -11t41.5 -4q56 0 96.5 26t62 73t21.5 109zM33 48l68 75q-32 45 -48 99.5t-16 116.5q0 105 45.5 187.5
t128.5 128t188 45.5q50 0 96.5 -11t87.5 -33l67 75l111 -97l-68 -75q31 -44 47.5 -99t16.5 -117q0 -105 -45.5 -187.5t-128.5 -128t-188 -45.5q-50 0 -96.5 11t-87.5 33l-67 -75z" />
    <glyph glyph-name="Ugrave" unicode="&#xd9;" horiz-adv-x="746" 
d="M239 287q0 -47 17 -80.5t48.5 -51t74.5 -17.5q44 0 75 16.5t47 50t16 82.5v395h164v-405q0 -88 -36.5 -155.5t-105 -103.5t-163.5 -36q-97 0 -167 35t-107 101t-37 155v409h174v-395zM475 734h-155l-141 150h213z" />
    <glyph glyph-name="Uacute" unicode="&#xda;" horiz-adv-x="746" 
d="M239 287q0 -47 17 -80.5t48.5 -51t74.5 -17.5q44 0 75 16.5t47 50t16 82.5v395h164v-405q0 -88 -36.5 -155.5t-105 -103.5t-163.5 -36q-97 0 -167 35t-107 101t-37 155v409h174v-395zM353 884h213l-141 -150h-155z" />
    <glyph glyph-name="Ucircumflex" unicode="&#xdb;" horiz-adv-x="746" 
d="M239 287q0 -47 17 -80.5t48.5 -51t74.5 -17.5q44 0 75 16.5t47 50t16 82.5v395h164v-405q0 -88 -36.5 -155.5t-105 -103.5t-163.5 -36q-97 0 -167 35t-107 101t-37 155v409h174v-395zM267 887h212l108 -150h-156l-60 66l-60 -66h-152z" />
    <glyph glyph-name="Udieresis" unicode="&#xdc;" horiz-adv-x="746" 
d="M239 287q0 -47 17 -80.5t48.5 -51t74.5 -17.5q44 0 75 16.5t47 50t16 82.5v395h164v-405q0 -88 -36.5 -155.5t-105 -103.5t-163.5 -36q-97 0 -167 35t-107 101t-37 155v409h174v-395zM418 734v150h160v-150h-160zM168 734v150h160v-150h-160z" />
    <glyph glyph-name="Yacute" unicode="&#xdd;" horiz-adv-x="658" 
d="M242 0v271l-242 411h209l125 -238l121 238h203l-242 -411v-271h-174zM309 884h213l-141 -150h-155z" />
    <glyph glyph-name="Thorn" unicode="&#xde;" horiz-adv-x="689" 
d="M246 263q35 -1 111 -1q46 0 75 10.5t42.5 31t13.5 52.5q0 34 -14 54.5t-43.5 30.5t-76.5 10q-73 0 -108 -1v-187zM72 0v682h174v-89q12 0 51.5 0.5t61.5 0.5q108 0 176.5 -26t102.5 -78.5t34 -131.5q0 -77 -36 -130t-107.5 -80.5t-176.5 -27.5q-77 0 -106 1v-121h-174z
" />
    <glyph glyph-name="germandbls" unicode="&#xdf;" horiz-adv-x="678" 
d="M65 469q0 82 32.5 137t95.5 82.5t155 27.5q85 0 143.5 -20t88 -58t29.5 -90q0 -32 -10 -58t-31.5 -46.5t-56.5 -37.5t-43 -22.5t-12.5 -11.5t-4.5 -13q0 -8 5.5 -14.5t16 -12.5t55.5 -22t72 -37.5t39.5 -50.5t12.5 -67q0 -51 -25.5 -90t-74 -60t-112.5 -21q-40 0 -81.5 8
t-78.5 23l35 125q30 -16 63 -25t65 -9q15 0 24.5 4t14 11t4.5 17q0 9 -5.5 16t-16.5 13t-55.5 22t-71 37.5t-39 51.5t-12.5 69q0 31 9.5 55.5t28.5 44t53.5 38.5t43.5 26.5t13.5 15t4.5 16.5q0 16 -10.5 28t-32 18.5t-52.5 6.5q-41 0 -67 -13t-39 -40t-13 -69v-474h-160v469
z" />
    <glyph glyph-name="agrave" unicode="&#xe0;" horiz-adv-x="555" 
d="M22 141q0 43 19 76t58.5 55.5t99.5 33.5t141 11v10q0 35 -22.5 52.5t-64.5 17.5q-41 0 -80.5 -14.5t-71.5 -41.5l-67 96q49 38 111 58.5t128 20.5q112 0 169.5 -48t57.5 -141v-90v-80.5t3 -156.5h-149l-2 51h-1q-29 -34 -66.5 -50.5t-85.5 -16.5q-83 0 -130 42t-47 115z
M340 211q-43 0 -72 -3.5t-46.5 -10.5t-25 -18t-7.5 -27q0 -23 14.5 -35t40.5 -12t49 13.5t35 35t12 47.5v10v0zM373 556h-145l-141 150h203z" />
    <glyph glyph-name="aacute" unicode="&#xe1;" horiz-adv-x="555" 
d="M22 141q0 43 19 76t58.5 55.5t99.5 33.5t141 11v10q0 35 -22.5 52.5t-64.5 17.5q-41 0 -80.5 -14.5t-71.5 -41.5l-67 96q49 38 111 58.5t128 20.5q112 0 169.5 -48t57.5 -141v-90v-80.5t3 -156.5h-149l-2 51h-1q-29 -34 -66.5 -50.5t-85.5 -16.5q-83 0 -130 42t-47 115z
M340 211q-43 0 -72 -3.5t-46.5 -10.5t-25 -18t-7.5 -27q0 -23 14.5 -35t40.5 -12t49 13.5t35 35t12 47.5v10v0zM264 706h203l-141 -150h-145z" />
    <glyph glyph-name="acircumflex" unicode="&#xe2;" horiz-adv-x="555" 
d="M22 141q0 43 19 76t58.5 55.5t99.5 33.5t141 11v10q0 35 -22.5 52.5t-64.5 17.5q-41 0 -80.5 -14.5t-71.5 -41.5l-67 96q49 38 111 58.5t128 20.5q112 0 169.5 -48t57.5 -141v-90v-80.5t3 -156.5h-149l-2 51h-1q-29 -34 -66.5 -50.5t-85.5 -16.5q-83 0 -130 42t-47 115z
M340 211q-43 0 -72 -3.5t-46.5 -10.5t-25 -18t-7.5 -27q0 -23 14.5 -35t40.5 -12t49 13.5t35 35t12 47.5v10v0zM180 706h192l108 -150h-146l-60 66l-60 -66h-142z" />
    <glyph glyph-name="atilde" unicode="&#xe3;" horiz-adv-x="555" 
d="M22 141q0 43 19 76t58.5 55.5t99.5 33.5t141 11v10q0 35 -22.5 52.5t-64.5 17.5q-41 0 -80.5 -14.5t-71.5 -41.5l-67 96q49 38 111 58.5t128 20.5q112 0 169.5 -48t57.5 -141v-90v-80.5t3 -156.5h-149l-2 51h-1q-29 -34 -66.5 -50.5t-85.5 -16.5q-83 0 -130 42t-47 115z
M340 211q-43 0 -72 -3.5t-46.5 -10.5t-25 -18t-7.5 -27q0 -23 14.5 -35t40.5 -12t49 13.5t35 35t12 47.5v10v0zM203 595q-12 0 -17 -7.5t-5 -27.5h-115q0 52 15.5 86.5t47 52t80.5 17.5q27 0 50.5 -6t47 -18t30 -14.5t12.5 -2.5q12 0 17 7.5t5 27.5h115q0 -52 -15.5 -86.5
t-47 -52t-80.5 -17.5q-27 0 -50.5 6t-47 18.5t-30.5 14.5t-12 2z" />
    <glyph glyph-name="adieresis" unicode="&#xe4;" horiz-adv-x="555" 
d="M22 141q0 43 19 76t58.5 55.5t99.5 33.5t141 11v10q0 35 -22.5 52.5t-64.5 17.5q-41 0 -80.5 -14.5t-71.5 -41.5l-67 96q49 38 111 58.5t128 20.5q112 0 169.5 -48t57.5 -141v-90v-80.5t3 -156.5h-149l-2 51h-1q-29 -34 -66.5 -50.5t-85.5 -16.5q-83 0 -130 42t-47 115z
M340 211q-43 0 -72 -3.5t-46.5 -10.5t-25 -18t-7.5 -27q0 -23 14.5 -35t40.5 -12t49 13.5t35 35t12 47.5v10v0zM312 556v150h150v-150h-150zM92 556v150h150v-150h-150z" />
    <glyph glyph-name="aring" unicode="&#xe5;" horiz-adv-x="555" 
d="M22 141q0 43 19 76t58.5 55.5t99.5 33.5t141 11v10q0 35 -22.5 52.5t-64.5 17.5q-41 0 -80.5 -14.5t-71.5 -41.5l-67 96q49 38 111 58.5t128 20.5q112 0 169.5 -48t57.5 -141v-90v-80.5t3 -156.5h-149l-2 51h-1q-29 -34 -66.5 -50.5t-85.5 -16.5q-83 0 -130 42t-47 115z
M340 211q-43 0 -72 -3.5t-46.5 -10.5t-25 -18t-7.5 -27q0 -23 14.5 -35t40.5 -12t49 13.5t35 35t12 47.5v10v0zM309 666q0 17 -8 27.5t-24 10.5t-24 -10.5t-8 -27.5t8 -27.5t24 -10.5t24 10.5t8 27.5zM430 667q0 -51 -40.5 -84t-113.5 -33q-74 0 -113 32t-39 83t40.5 84
t113.5 33q74 0 113 -32t39 -83z" />
    <glyph glyph-name="ae" unicode="&#xe6;" horiz-adv-x="890" 
d="M244 105q25 0 47.5 12.5t35.5 34.5t13 49v10q-43 0 -72 -3.5t-46.5 -10.5t-25 -18t-7.5 -27q0 -23 14.5 -35t40.5 -12zM689 305q-1 30 -12.5 51t-31 31.5t-45.5 10.5t-46 -10.5t-32.5 -31.5t-17.5 -51h185zM205 -16q-87 0 -135 42t-48 115q0 43 19 76t58.5 55.5
t99.5 33.5t141 11v10q0 35 -22.5 52.5t-64.5 17.5q-41 0 -80.5 -14.5t-71.5 -41.5l-67 96q49 38 111 58.5t128 20.5q58 0 99 -13t68 -40q27 25 70 39t92 14q80 0 138 -30.5t88 -89t30 -141.5q0 -33 -5 -56h-350q8 -48 38 -70.5t85 -22.5q43 0 85 13.5t75 37.5l55 -104
q-50 -33 -109.5 -51t-119.5 -18q-77 0 -127.5 24t-83.5 76q-27 -48 -78.5 -74t-117.5 -26z" />
    <glyph glyph-name="ccedilla" unicode="&#xe7;" horiz-adv-x="547" 
d="M172 -180l13.5 13.5t21 26.5t8.5 25q0 17 -35 40l39 68q-89 20 -138 87t-49 169q0 122 73.5 194.5t192.5 72.5q92 0 152 -39t83 -114l-146 -54q-8 35 -31.5 55.5t-57.5 20.5q-45 0 -70.5 -36t-25.5 -99q0 -62 26 -98t71 -36q32 0 55.5 19.5t36.5 56.5l149 -46
q-32 -70 -83 -110t-118 -49l-11 -19q24 -19 34 -35t10 -36t-13 -40.5t-35 -36.5h-152z" />
    <glyph glyph-name="egrave" unicode="&#xe8;" horiz-adv-x="591" 
d="M390 305q-1 28 -12 49t-30.5 32.5t-46.5 11.5q-26 0 -46 -10.5t-32.5 -31.5t-17.5 -51h185zM313 -16q-89 0 -152 30.5t-96 90t-33 144.5q0 80 33 140.5t95 93.5t143 33t139 -31t87.5 -89.5t29.5 -140.5q0 -33 -5 -56h-350q6 -33 21.5 -53.5t40.5 -30t61 -9.5
q43 0 85 13.5t75 37.5l55 -104q-50 -33 -109.5 -51t-119.5 -18zM391 556h-145l-141 150h203z" />
    <glyph glyph-name="eacute" unicode="&#xe9;" horiz-adv-x="591" 
d="M390 305q-1 28 -12 49t-30.5 32.5t-46.5 11.5q-26 0 -46 -10.5t-32.5 -31.5t-17.5 -51h185zM313 -16q-89 0 -152 30.5t-96 90t-33 144.5q0 80 33 140.5t95 93.5t143 33t139 -31t87.5 -89.5t29.5 -140.5q0 -33 -5 -56h-350q6 -33 21.5 -53.5t40.5 -30t61 -9.5
q43 0 85 13.5t75 37.5l55 -104q-50 -33 -109.5 -51t-119.5 -18zM282 706h203l-141 -150h-145z" />
    <glyph glyph-name="ecircumflex" unicode="&#xea;" horiz-adv-x="591" 
d="M390 305q-1 28 -12 49t-30.5 32.5t-46.5 11.5q-26 0 -46 -10.5t-32.5 -31.5t-17.5 -51h185zM313 -16q-89 0 -152 30.5t-96 90t-33 144.5q0 80 33 140.5t95 93.5t143 33t139 -31t87.5 -89.5t29.5 -140.5q0 -33 -5 -56h-350q6 -33 21.5 -53.5t40.5 -30t61 -9.5
q43 0 85 13.5t75 37.5l55 -104q-50 -33 -109.5 -51t-119.5 -18zM199 706h192l108 -150h-146l-60 66l-60 -66h-142z" />
    <glyph glyph-name="edieresis" unicode="&#xeb;" horiz-adv-x="591" 
d="M390 305q-1 28 -12 49t-30.5 32.5t-46.5 11.5q-26 0 -46 -10.5t-32.5 -31.5t-17.5 -51h185zM313 -16q-89 0 -152 30.5t-96 90t-33 144.5q0 80 33 140.5t95 93.5t143 33t139 -31t87.5 -89.5t29.5 -140.5q0 -33 -5 -56h-350q6 -33 21.5 -53.5t40.5 -30t61 -9.5
q43 0 85 13.5t75 37.5l55 -104q-50 -33 -109.5 -51t-119.5 -18zM330 556v150h150v-150h-150zM110 556v150h150v-150h-150z" />
    <glyph glyph-name="igrave" unicode="&#xec;" horiz-adv-x="290" 
d="M65 0v500h160v-500h-160zM241 552h-145l-141 150h203z" />
    <glyph glyph-name="iacute" unicode="&#xed;" horiz-adv-x="290" 
d="M65 0v500h160v-500h-160zM132 702h203l-141 -150h-145z" />
    <glyph glyph-name="icircumflex" unicode="&#xee;" horiz-adv-x="290" 
d="M65 0v500h160v-500h-160zM49 702h192l108 -150h-146l-60 66l-60 -66h-142z" />
    <glyph glyph-name="idieresis" unicode="&#xef;" horiz-adv-x="290" 
d="M65 0v500h160v-500h-160zM165 552v150h140v-150h-140zM-15 552v150h140v-150h-140z" />
    <glyph glyph-name="eth" unicode="&#xf0;" horiz-adv-x="606" 
d="M154 515l-31 91l84 25q-27 21 -78 50l171 47q41 -24 70 -48l125 38l30 -90l-76 -23q57 -67 89.5 -147t32.5 -166q0 -98 -31.5 -167t-93 -105t-146.5 -36q-83 0 -144 31.5t-92.5 90t-31.5 138.5q0 75 30 133t85.5 90.5t122.5 32.5q24 0 44 -4.5t36 -13.5q1 0 1.5 0.5
t1.5 0.5q-8 13 -22 32t-38 42zM401 242q0 39 -11.5 67t-34 43t-54.5 15t-54 -15.5t-33.5 -43.5t-11.5 -66q0 -40 12.5 -68.5t35 -42.5t52.5 -14q32 0 54 15.5t33.5 43.5t11.5 66z" />
    <glyph glyph-name="ntilde" unicode="&#xf1;" horiz-adv-x="614" 
d="M399 0v250q0 51 -2 69t-9 32q-9 18 -26 27.5t-42 9.5q-19 0 -35.5 -6.5t-26.5 -16.5q-18 -18 -25.5 -45t-7.5 -69v-251h-160v240v78t-0.5 66.5t-1 59t-1.5 56.5h148l3 -60h1q24 36 65.5 56t91.5 20q92 0 140 -53t48 -155v-308h-160zM234 595q-12 0 -17 -7.5t-5 -27.5
h-115q0 52 15.5 86.5t47 52t80.5 17.5q27 0 50.5 -6t47 -18t30 -14.5t12.5 -2.5q12 0 17 7.5t5 27.5h115q0 -52 -15.5 -86.5t-47 -52t-80.5 -17.5q-27 0 -50.5 6t-47 18.5t-30.5 14.5t-12 2z" />
    <glyph glyph-name="ograve" unicode="&#xf2;" horiz-adv-x="604" 
d="M572 251q0 -80 -33 -140.5t-95.5 -93.5t-143.5 -33q-83 0 -144 32t-92.5 91.5t-31.5 141.5q0 80 33 140.5t95.5 93.5t143.5 33q83 0 144 -32t92.5 -91.5t31.5 -141.5zM402 250q0 41 -11.5 71t-34 46t-54.5 16t-54.5 -16.5t-34 -46.5t-11.5 -70q0 -41 11.5 -71t34 -46
t54.5 -16t54.5 16.5t34 46.5t11.5 70zM398 556h-145l-141 150h203z" />
    <glyph glyph-name="oacute" unicode="&#xf3;" horiz-adv-x="604" 
d="M572 251q0 -80 -33 -140.5t-95.5 -93.5t-143.5 -33q-83 0 -144 32t-92.5 91.5t-31.5 141.5q0 80 33 140.5t95.5 93.5t143.5 33q83 0 144 -32t92.5 -91.5t31.5 -141.5zM402 250q0 41 -11.5 71t-34 46t-54.5 16t-54.5 -16.5t-34 -46.5t-11.5 -70q0 -41 11.5 -71t34 -46
t54.5 -16t54.5 16.5t34 46.5t11.5 70zM289 706h203l-141 -150h-145z" />
    <glyph glyph-name="ocircumflex" unicode="&#xf4;" horiz-adv-x="604" 
d="M572 251q0 -80 -33 -140.5t-95.5 -93.5t-143.5 -33q-83 0 -144 32t-92.5 91.5t-31.5 141.5q0 80 33 140.5t95.5 93.5t143.5 33q83 0 144 -32t92.5 -91.5t31.5 -141.5zM402 250q0 41 -11.5 71t-34 46t-54.5 16t-54.5 -16.5t-34 -46.5t-11.5 -70q0 -41 11.5 -71t34 -46
t54.5 -16t54.5 16.5t34 46.5t11.5 70zM206 706h192l108 -150h-146l-60 66l-60 -66h-142z" />
    <glyph glyph-name="otilde" unicode="&#xf5;" horiz-adv-x="604" 
d="M572 251q0 -80 -33 -140.5t-95.5 -93.5t-143.5 -33q-83 0 -144 32t-92.5 91.5t-31.5 141.5q0 80 33 140.5t95.5 93.5t143.5 33q83 0 144 -32t92.5 -91.5t31.5 -141.5zM402 250q0 41 -11.5 71t-34 46t-54.5 16t-54.5 -16.5t-34 -46.5t-11.5 -70q0 -41 11.5 -71t34 -46
t54.5 -16t54.5 16.5t34 46.5t11.5 70zM229 595q-12 0 -17 -7.5t-5 -27.5h-115q0 52 15.5 86.5t47 52t80.5 17.5q27 0 50.5 -6t47 -18t30 -14.5t12.5 -2.5q12 0 17 7.5t5 27.5h115q0 -52 -15.5 -86.5t-47 -52t-80.5 -17.5q-27 0 -50.5 6t-47 18.5t-30.5 14.5t-12 2z" />
    <glyph glyph-name="odieresis" unicode="&#xf6;" horiz-adv-x="604" 
d="M572 251q0 -80 -33 -140.5t-95.5 -93.5t-143.5 -33q-83 0 -144 32t-92.5 91.5t-31.5 141.5q0 80 33 140.5t95.5 93.5t143.5 33q83 0 144 -32t92.5 -91.5t31.5 -141.5zM402 250q0 41 -11.5 71t-34 46t-54.5 16t-54.5 -16.5t-34 -46.5t-11.5 -70q0 -41 11.5 -71t34 -46
t54.5 -16t54.5 16.5t34 46.5t11.5 70zM337 556v150h150v-150h-150zM117 556v150h150v-150h-150z" />
    <glyph glyph-name="divide" unicode="&#xf7;" 
d="M247 449v160h156v-160h-156zM605 255h-560v134h560v-134zM247 35v160h156v-160h-156z" />
    <glyph glyph-name="oslash" unicode="&#xf8;" horiz-adv-x="604" 
d="M410 250q0 19 0.5 27t2.5 15l-156 -173q7 -4 19.5 -6.5t25.5 -2.5q34 0 58.5 17t37 48.5t12.5 74.5zM194 250q0 -19 -0.5 -27t-2.5 -15l156 173q-9 4 -21 6.5t-24 2.5q-34 0 -58.5 -17t-37 -48.5t-12.5 -74.5zM27 31l50 55q-22 32 -33.5 73t-11.5 90q0 80 33 140.5
t95.5 93.5t143.5 33q38 0 71 -7t63 -20l53 60l86 -80l-50 -55q22 -32 33.5 -73t11.5 -90q0 -80 -33 -140.5t-95.5 -93.5t-143.5 -33q-38 0 -71 7t-63 20l-53 -60z" />
    <glyph glyph-name="ugrave" unicode="&#xf9;" horiz-adv-x="610" 
d="M400 0l-3 60h-1q-25 -36 -65.5 -56t-89.5 -20q-61 0 -103 24.5t-62.5 71t-20.5 112.5v308h160v-250q0 -51 2 -69t9 -32q9 -18 25.5 -27.5t40.5 -9.5q19 0 35 6.5t26 16.5q17 17 24.5 43.5t7.5 70.5v251h160v-253q0 -60 0.5 -109.5t2.5 -137.5h-148zM401 552h-145
l-141 150h203z" />
    <glyph glyph-name="uacute" unicode="&#xfa;" horiz-adv-x="610" 
d="M400 0l-3 60h-1q-25 -36 -65.5 -56t-89.5 -20q-61 0 -103 24.5t-62.5 71t-20.5 112.5v308h160v-250q0 -51 2 -69t9 -32q9 -18 25.5 -27.5t40.5 -9.5q19 0 35 6.5t26 16.5q17 17 24.5 43.5t7.5 70.5v251h160v-253q0 -60 0.5 -109.5t2.5 -137.5h-148zM292 702h203
l-141 -150h-145z" />
    <glyph glyph-name="ucircumflex" unicode="&#xfb;" horiz-adv-x="610" 
d="M400 0l-3 60h-1q-25 -36 -65.5 -56t-89.5 -20q-61 0 -103 24.5t-62.5 71t-20.5 112.5v308h160v-250q0 -51 2 -69t9 -32q9 -18 25.5 -27.5t40.5 -9.5q19 0 35 6.5t26 16.5q17 17 24.5 43.5t7.5 70.5v251h160v-253q0 -60 0.5 -109.5t2.5 -137.5h-148zM209 702h192l108 -150
h-146l-60 66l-60 -66h-142z" />
    <glyph glyph-name="udieresis" unicode="&#xfc;" horiz-adv-x="610" 
d="M400 0l-3 60h-1q-25 -36 -65.5 -56t-89.5 -20q-61 0 -103 24.5t-62.5 71t-20.5 112.5v308h160v-250q0 -51 2 -69t9 -32q9 -18 25.5 -27.5t40.5 -9.5q19 0 35 6.5t26 16.5q17 17 24.5 43.5t7.5 70.5v251h160v-253q0 -60 0.5 -109.5t2.5 -137.5h-148zM340 552v150h150v-150
h-150zM120 552v150h150v-150h-150z" />
    <glyph glyph-name="yacute" unicode="&#xfd;" horiz-adv-x="538" 
d="M126 -180l79 180h-34l-174 500h179l58 -195q13 -46 23 -86t15 -71h3q5 27 14 64t23 93l51 195h178l-236 -680h-179zM256 702h203l-141 -150h-145z" />
    <glyph glyph-name="thorn" unicode="&#xfe;" horiz-adv-x="621" 
d="M65 702h160v-159q0 -49 -8 -97h2q24 33 64.5 51.5t87.5 18.5q67 0 116.5 -33.5t75.5 -94t26 -137.5t-29 -138t-82.5 -95t-123.5 -34q-43 0 -77 14.5t-55 40.5h-1q4 -40 4 -82v-137h-160v882zM222 242q0 -39 12 -68.5t34.5 -45.5t52.5 -16q31 0 53 16.5t33.5 48t11.5 73.5
q0 41 -12 72.5t-35 48.5t-54 17q-29 0 -51 -16t-33.5 -45.5t-11.5 -70.5v-14z" />
    <glyph glyph-name="ydieresis" unicode="&#xff;" horiz-adv-x="538" 
d="M126 -180l79 180h-34l-174 500h179l58 -195q13 -46 23 -86t15 -71h3q5 27 14 64t23 93l51 195h178l-236 -680h-179zM304 552v150h150v-150h-150zM84 552v150h150v-150h-150z" />
    <glyph glyph-name="Amacron" unicode="&#x100;" horiz-adv-x="713" 
d="M349 538q-18 -80 -35 -137l-42 -147h156l-43 147q-17 57 -35 137h-1zM466 682l238 -682h-202l-36 124h-232l-35 -124h-190l238 682h219zM539 741h-366v132h366v-132z" />
    <glyph glyph-name="amacron" unicode="&#x101;" horiz-adv-x="555" 
d="M22 141q0 43 19 76t58.5 55.5t99.5 33.5t141 11v10q0 35 -22.5 52.5t-64.5 17.5q-41 0 -80.5 -14.5t-71.5 -41.5l-67 96q49 38 111 58.5t128 20.5q112 0 169.5 -48t57.5 -141v-90v-80.5t3 -156.5h-149l-2 51h-1q-29 -34 -66.5 -50.5t-85.5 -16.5q-83 0 -130 42t-47 115z
M340 211q-43 0 -72 -3.5t-46.5 -10.5t-25 -18t-7.5 -27q0 -23 14.5 -35t40.5 -12t49 13.5t35 35t12 47.5v10v0zM450 563h-346v128h346v-128z" />
    <glyph glyph-name="Abreve" unicode="&#x102;" horiz-adv-x="713" 
d="M349 538q-18 -80 -35 -137l-42 -147h156l-43 147q-17 57 -35 137h-1zM466 682l238 -682h-202l-36 124h-232l-35 -124h-190l238 682h219zM546 908q0 -60 -22 -99.5t-64.5 -58.5t-105.5 -19t-104.5 19t-62.5 58.5t-21 99.5h129q0 -21 6 -33.5t19.5 -19t35.5 -6.5t35.5 6.5
t19.5 19t6 33.5h129z" />
    <glyph glyph-name="abreve" unicode="&#x103;" horiz-adv-x="555" 
d="M22 141q0 43 19 76t58.5 55.5t99.5 33.5t141 11v10q0 35 -22.5 52.5t-64.5 17.5q-41 0 -80.5 -14.5t-71.5 -41.5l-67 96q49 38 111 58.5t128 20.5q112 0 169.5 -48t57.5 -141v-90v-80.5t3 -156.5h-149l-2 51h-1q-29 -34 -66.5 -50.5t-85.5 -16.5q-83 0 -130 42t-47 115z
M340 211q-43 0 -72 -3.5t-46.5 -10.5t-25 -18t-7.5 -27q0 -23 14.5 -35t40.5 -12t49 13.5t35 35t12 47.5v10v0zM454 724q0 -57 -20 -94.5t-59.5 -56.5t-99.5 -19q-59 0 -98 19t-58 56t-19 95h120q0 -20 6 -32.5t18.5 -18.5t32.5 -6q21 0 33.5 6.5t18 19t5.5 31.5h120z" />
    <glyph glyph-name="Aogonek" unicode="&#x104;" horiz-adv-x="713" 
d="M272 254h156l-43 147q-22 79 -35 137h-1q-15 -67 -35 -137zM698 -183q-33 -11 -92 -11q-48 0 -78.5 9t-45 27.5t-14.5 46.5q0 27 16 54.5t48 56.5h-30l-36 124h-232l-35 -124h-190l238 682h219l238 -682q-32 -17 -50.5 -37t-18.5 -39q0 -12 7.5 -17.5t24.5 -5.5h31v-84z
" />
    <glyph glyph-name="aogonek" unicode="&#x105;" horiz-adv-x="555" 
d="M352 51h-1q-29 -34 -66.5 -50.5t-85.5 -16.5q-83 0 -130 42t-47 115q0 43 19 76t58.5 55.5t99.5 33.5t141 11v10q0 35 -22.5 52.5t-64.5 17.5q-41 0 -80.5 -14.5t-71.5 -41.5l-67 96q49 38 111 58.5t128 20.5q112 0 170 -48t57 -141v-90v-126.5t1 -110.5
q-30 -37 -39.5 -53t-9.5 -29q0 -11 7 -16t23 -5h33v-81q-16 -5 -37 -7.5t-42 -2.5q-51 0 -82 9t-45 27t-14 47q0 27 14.5 54.5t44.5 56.5zM340 211q-43 0 -72 -3.5t-46.5 -10.5t-25 -18t-7.5 -27q0 -23 14.5 -35t40.5 -12q25 0 47.5 12.5t35.5 34.5t13 49v10v0z" />
    <glyph glyph-name="Cacute" unicode="&#x106;" horiz-adv-x="715" 
d="M690 221q-31 -115 -113.5 -177t-203.5 -62q-98 0 -175 44t-119 125.5t-42 188.5t43 188t122 126.5t172 45.5q118 0 196.5 -57.5t112.5 -169.5l-168 -39q-16 55 -52.5 82.5t-90.5 27.5q-44 0 -78.5 -25t-53.5 -70.5t-19 -106.5t19.5 -107t55 -70.5t80.5 -24.5q56 0 95 31
t54 88zM361 884h213l-141 -150h-155z" />
    <glyph glyph-name="cacute" unicode="&#x107;" horiz-adv-x="547" 
d="M540 146q-39 -83 -99.5 -122.5t-146.5 -39.5q-81 0 -140.5 32.5t-90.5 92.5t-31 140t32.5 140.5t93.5 93.5t140 33q92 0 152 -39t83 -114l-146 -54q-8 35 -31.5 55.5t-57.5 20.5q-29 0 -51 -15.5t-33.5 -46t-11.5 -72.5q0 -41 11.5 -71.5t33.5 -47t52 -16.5
q32 0 55.5 19.5t36.5 56.5zM286 706h203l-141 -150h-145z" />
    <glyph glyph-name="Ccircumflex" unicode="&#x108;" horiz-adv-x="715" 
d="M690 221q-31 -115 -113.5 -177t-203.5 -62q-98 0 -175 44t-119 125.5t-42 188.5t43 188t122 126.5t172 45.5q118 0 196.5 -57.5t112.5 -169.5l-168 -39q-16 55 -52.5 82.5t-90.5 27.5q-44 0 -78.5 -25t-53.5 -70.5t-19 -106.5t19.5 -107t55 -70.5t80.5 -24.5q56 0 95 31
t54 88zM275 887h212l108 -150h-156l-60 66l-60 -66h-152z" />
    <glyph glyph-name="ccircumflex" unicode="&#x109;" horiz-adv-x="547" 
d="M540 146q-39 -83 -99.5 -122.5t-146.5 -39.5q-81 0 -140.5 32.5t-90.5 92.5t-31 140t32.5 140.5t93.5 93.5t140 33q92 0 152 -39t83 -114l-146 -54q-8 35 -31.5 55.5t-57.5 20.5q-29 0 -51 -15.5t-33.5 -46t-11.5 -72.5q0 -41 11.5 -71.5t33.5 -47t52 -16.5
q32 0 55.5 19.5t36.5 56.5zM202 706h192l108 -150h-146l-60 66l-60 -66h-142z" />
    <glyph glyph-name="Cdotaccent" unicode="&#x10a;" horiz-adv-x="715" 
d="M690 221q-31 -115 -113.5 -177t-203.5 -62q-98 0 -175 44t-119 125.5t-42 188.5t43 188t122 126.5t172 45.5q118 0 196.5 -57.5t112.5 -169.5l-168 -39q-16 55 -52.5 82.5t-90.5 27.5q-44 0 -78.5 -25t-53.5 -70.5t-19 -106.5t19.5 -107t55 -70.5t80.5 -24.5q56 0 95 31
t54 88zM295 734v150h172v-150h-172z" />
    <glyph glyph-name="cdotaccent" unicode="&#x10b;" horiz-adv-x="547" 
d="M540 146q-39 -83 -99.5 -122.5t-146.5 -39.5q-81 0 -140.5 32.5t-90.5 92.5t-31 140t32.5 140.5t93.5 93.5t140 33q92 0 152 -39t83 -114l-146 -54q-8 35 -31.5 55.5t-57.5 20.5q-29 0 -51 -15.5t-33.5 -46t-11.5 -72.5q0 -41 11.5 -71.5t33.5 -47t52 -16.5
q32 0 55.5 19.5t36.5 56.5zM214 556v150h162v-150h-162z" />
    <glyph glyph-name="Ccaron" unicode="&#x10c;" horiz-adv-x="715" 
d="M690 221q-31 -115 -113.5 -177t-203.5 -62q-98 0 -175 44t-119 125.5t-42 188.5t43 188t122 126.5t172 45.5q118 0 196.5 -57.5t112.5 -169.5l-168 -39q-16 55 -52.5 82.5t-90.5 27.5q-44 0 -78.5 -25t-53.5 -70.5t-19 -106.5t19.5 -107t55 -70.5t80.5 -24.5q56 0 95 31
t54 88zM487 737h-212l-108 150h156l60 -66l60 66h152z" />
    <glyph glyph-name="ccaron" unicode="&#x10d;" horiz-adv-x="547" 
d="M540 146q-39 -83 -99.5 -122.5t-146.5 -39.5q-81 0 -140.5 32.5t-90.5 92.5t-31 140t32.5 140.5t93.5 93.5t140 33q92 0 152 -39t83 -114l-146 -54q-8 35 -31.5 55.5t-57.5 20.5q-29 0 -51 -15.5t-33.5 -46t-11.5 -72.5q0 -41 11.5 -71.5t33.5 -47t52 -16.5
q32 0 55.5 19.5t36.5 56.5zM391 556h-192l-108 150h146l60 -66l60 66h142z" />
    <glyph glyph-name="Dcaron" unicode="&#x10e;" horiz-adv-x="755" 
d="M72 682q129 1 257 1q109 0 178.5 -22.5t118.5 -71.5q45 -45 68.5 -107t23.5 -138t-24.5 -141.5t-68.5 -109.5q-48 -48 -118.5 -71t-168.5 -23q-133 0 -266 1v682zM245 144q56 -2 90 -2q63 0 93 9.5t53 32.5q27 27 40 66.5t13 90.5q0 49 -14.5 89t-40.5 66q-25 25 -57 35
t-97 10q-56 0 -80 -1v-396zM463 737h-212l-108 150h156l60 -66l60 66h152z" />
    <glyph glyph-name="dcaron" unicode="&#x10f;" horiz-adv-x="706" 
d="M410 0l-2 60h-1q-24 -36 -65.5 -56t-91.5 -20q-67 0 -116.5 33.5t-75.5 94t-26 137.5t29 138t82.5 95t123.5 34q43 0 77 -14.5t55 -40.5h1q-4 40 -4 82v159h160v-452q0 -61 0.5 -107t2.5 -143h-149zM399 258q0 40 -12.5 69.5t-35 45t-51.5 15.5q-31 0 -53 -16.5
t-33.5 -48t-11.5 -73.5q0 -41 12 -72.5t35 -48.5t54 -17q30 0 52 16.5t33 46t11 69.5v14zM617 760h161l-57 -194h-127z" />
    <glyph glyph-name="Dcroat" unicode="&#x110;" horiz-adv-x="765" 
d="M82 282h-80v130h80v270q129 1 257 1q109 0 178.5 -22.5t118.5 -71.5q45 -45 68.5 -107t23.5 -138t-24.5 -141.5t-68.5 -109.5q-48 -48 -118.5 -71t-168.5 -23q-133 0 -266 1v282zM255 142q56 -2 90 -2q59 0 90.5 9.5t55.5 33.5q27 27 40 67t13 91q0 49 -14.5 89.5
t-40.5 66.5q-25 25 -58 35.5t-96 10.5q-56 0 -80 -1v-130h166v-130h-166v-140z" />
    <glyph glyph-name="dcroat" unicode="&#x111;" horiz-adv-x="621" 
d="M399 258q0 39 -12 68.5t-34.5 45.5t-52.5 16q-31 0 -53 -16.5t-33.5 -48t-11.5 -73.5q0 -41 12 -72.5t35 -48.5t54 -17q30 0 52 16.5t33 46t11 69.5v14zM410 0l-2 60h-1q-24 -36 -65.5 -56t-91.5 -20q-67 0 -116.5 33.5t-75.5 94t-26 137.5t29 138t82.5 95t123.5 34
q43 0 77 -14.5t55 -40.5h1q-4 40 -4 82v8h-96v120h96v48h160v-48h61v-120h-61v-301q0 -61 0.5 -107t2.5 -143h-149z" />
    <glyph glyph-name="Emacron" unicode="&#x112;" horiz-adv-x="655" 
d="M72 682h524v-135h-350v-135h303v-130h-303v-146h367v-136h-541v682zM528 741h-366v132h366v-132z" />
    <glyph glyph-name="emacron" unicode="&#x113;" horiz-adv-x="591" 
d="M390 305q-1 28 -12 49t-30.5 32.5t-46.5 11.5q-26 0 -46 -10.5t-32.5 -31.5t-17.5 -51h185zM313 -16q-89 0 -152 30.5t-96 90t-33 144.5q0 80 33 140.5t95 93.5t143 33t139 -31t87.5 -89.5t29.5 -140.5q0 -33 -5 -56h-350q6 -33 21.5 -53.5t40.5 -30t61 -9.5
q43 0 85 13.5t75 37.5l55 -104q-50 -33 -109.5 -51t-119.5 -18zM468 563h-346v128h346v-128z" />
    <glyph glyph-name="Ebreve" unicode="&#x114;" horiz-adv-x="655" 
d="M72 682h524v-135h-350v-135h303v-130h-303v-146h367v-136h-541v682zM535 908q0 -60 -22 -99.5t-64.5 -58.5t-105.5 -19t-104.5 19t-62.5 58.5t-21 99.5h129q0 -21 6 -33.5t19.5 -19t35.5 -6.5t35.5 6.5t19.5 19t6 33.5h129z" />
    <glyph glyph-name="ebreve" unicode="&#x115;" horiz-adv-x="591" 
d="M390 305q-1 28 -12 49t-30.5 32.5t-46.5 11.5q-26 0 -46 -10.5t-32.5 -31.5t-17.5 -51h185zM313 -16q-89 0 -152 30.5t-96 90t-33 144.5q0 80 33 140.5t95 93.5t143 33t139 -31t87.5 -89.5t29.5 -140.5q0 -33 -5 -56h-350q6 -33 21.5 -53.5t40.5 -30t61 -9.5
q43 0 85 13.5t75 37.5l55 -104q-50 -33 -109.5 -51t-119.5 -18zM472 724q0 -57 -20 -94.5t-59.5 -56.5t-99.5 -19q-59 0 -98 19t-58 56t-19 95h120q0 -20 6 -32.5t18.5 -18.5t32.5 -6q21 0 33.5 6.5t18 19t5.5 31.5h120z" />
    <glyph glyph-name="Edotaccent" unicode="&#x116;" horiz-adv-x="655" 
d="M72 682h524v-135h-350v-135h303v-130h-303v-146h367v-136h-541v682zM259 734v150h172v-150h-172z" />
    <glyph glyph-name="edotaccent" unicode="&#x117;" horiz-adv-x="591" 
d="M390 305q-1 28 -12 49t-30.5 32.5t-46.5 11.5q-26 0 -46 -10.5t-32.5 -31.5t-17.5 -51h185zM313 -16q-89 0 -152 30.5t-96 90t-33 144.5q0 80 33 140.5t95 93.5t143 33t139 -31t87.5 -89.5t29.5 -140.5q0 -33 -5 -56h-350q6 -33 21.5 -53.5t40.5 -30t61 -9.5
q43 0 85 13.5t75 37.5l55 -104q-50 -33 -109.5 -51t-119.5 -18zM214 556v150h162v-150h-162z" />
    <glyph glyph-name="Eogonek" unicode="&#x118;" horiz-adv-x="655" 
d="M613 -183q-33 -11 -92 -11q-47 0 -77.5 9t-45.5 27t-15 47q0 28 20 58t55 53h-386v682h524v-135h-350v-135h303v-130h-303v-146h367v-135q-31 -20 -47 -40t-16 -37q0 -12 7.5 -17.5t24.5 -5.5h31v-84z" />
    <glyph glyph-name="eogonek" unicode="&#x119;" horiz-adv-x="591" 
d="M301 398q-25 0 -45 -10.5t-33 -31t-18 -51.5h185q-1 28 -12 49t-30.5 32.5t-46.5 11.5zM516 -184q-16 -5 -37 -7.5t-42 -2.5q-51 0 -82 9t-45 27t-14 47q0 25 14 50.5t42 48.5q-17 -4 -39 -4q-89 0 -152 30.5t-96 90t-33 144.5q0 82 34 142.5t95.5 92.5t141.5 32
q81 0 139 -31t87.5 -89.5t29.5 -140.5q0 -33 -5 -56h-350q6 -33 21.5 -53.5t40.5 -30t61 -9.5q43 0 85 13.5t75 37.5l54 -103q-50 -58 -63 -77t-19 -33t-6 -24q0 -12 6.5 -17.5t23.5 -5.5h33v-81z" />
    <glyph glyph-name="Ecaron" unicode="&#x11a;" horiz-adv-x="655" 
d="M72 682h524v-135h-350v-135h303v-130h-303v-146h367v-136h-541v682zM451 737h-212l-108 150h156l60 -66l60 66h152z" />
    <glyph glyph-name="ecaron" unicode="&#x11b;" horiz-adv-x="591" 
d="M390 305q-1 28 -12 49t-30.5 32.5t-46.5 11.5q-26 0 -46 -10.5t-32.5 -31.5t-17.5 -51h185zM313 -16q-89 0 -152 30.5t-96 90t-33 144.5q0 80 33 140.5t95 93.5t143 33t139 -31t87.5 -89.5t29.5 -140.5q0 -33 -5 -56h-350q6 -33 21.5 -53.5t40.5 -30t61 -9.5
q43 0 85 13.5t75 37.5l55 -104q-50 -33 -109.5 -51t-119.5 -18zM391 556h-192l-108 150h146l60 -66l60 66h142z" />
    <glyph glyph-name="Gcircumflex" unicode="&#x11c;" horiz-adv-x="777" 
d="M569 0v58h-1q-35 -40 -82.5 -58t-113.5 -18q-97 0 -174 44.5t-119 125.5t-42 187q0 105 45.5 187.5t128.5 128t188 45.5q100 0 178 -31.5t127 -91.5l-133 -117q-28 42 -72.5 64t-101.5 22q-54 0 -94 -25t-61 -71t-21 -107q0 -64 21.5 -111t61.5 -71.5t93 -24.5
q45 0 78 14.5t50 40.5t17 58v5h-132v131h303v-385h-144zM294 887h212l108 -150h-156l-60 66l-60 -66h-152z" />
    <glyph glyph-name="gcircumflex" unicode="&#x11d;" horiz-adv-x="621" 
d="M399 258q0 39 -12 68.5t-34.5 45.5t-52.5 16q-31 0 -53 -16.5t-33.5 -47t-11.5 -69.5q0 -38 12 -68.5t35 -47.5t54 -17q29 0 51 17t33.5 47t11.5 68v4zM564 500q-4 -46 -6 -108.5t-2 -143.5v-232q0 -105 -65 -157.5t-192 -52.5q-62 0 -120 10t-107 29l38 126
q44 -19 95.5 -30.5t95.5 -11.5q48 0 71.5 17.5t23.5 53.5q0 10 1 26.5t2 30.5h-2q-23 -29 -62 -45t-85 -16q-68 0 -117.5 31.5t-75 90t-25.5 136.5q0 75 29.5 135t83 93.5t122.5 33.5q49 0 85.5 -18t58.5 -52h1l5 54h147zM207 706h192l108 -150h-146l-60 66l-60 -66h-142z
" />
    <glyph glyph-name="Gbreve" unicode="&#x11e;" horiz-adv-x="777" 
d="M569 0v58h-1q-35 -40 -82.5 -58t-113.5 -18q-97 0 -174 44.5t-119 125.5t-42 187q0 105 45.5 187.5t128.5 128t188 45.5q100 0 178 -31.5t127 -91.5l-133 -117q-28 42 -72.5 64t-101.5 22q-54 0 -94 -25t-61 -71t-21 -107q0 -64 21.5 -111t61.5 -71.5t93 -24.5
q45 0 78 14.5t50 40.5t17 58v5h-132v131h303v-385h-144zM590 908q0 -60 -22 -99.5t-64.5 -58.5t-105.5 -19t-104.5 19t-62.5 58.5t-21 99.5h129q0 -21 6 -33.5t19.5 -19t35.5 -6.5t35.5 6.5t19.5 19t6 33.5h129z" />
    <glyph glyph-name="gbreve" unicode="&#x11f;" horiz-adv-x="621" 
d="M399 258q0 39 -12 68.5t-34.5 45.5t-52.5 16q-31 0 -53 -16.5t-33.5 -47t-11.5 -69.5q0 -38 12 -68.5t35 -47.5t54 -17q29 0 51 17t33.5 47t11.5 68v4zM564 500q-4 -46 -6 -108.5t-2 -143.5v-232q0 -105 -65 -157.5t-192 -52.5q-62 0 -120 10t-107 29l38 126
q44 -19 95.5 -30.5t95.5 -11.5q48 0 71.5 17.5t23.5 53.5q0 10 1 26.5t2 30.5h-2q-23 -29 -62 -45t-85 -16q-68 0 -117.5 31.5t-75 90t-25.5 136.5q0 75 29.5 135t83 93.5t122.5 33.5q49 0 85.5 -18t58.5 -52h1l5 54h147zM480 724q0 -57 -20 -94.5t-59.5 -56.5t-99.5 -19
q-59 0 -98 19t-58 56t-19 95h120q0 -20 6 -32.5t18.5 -18.5t32.5 -6q21 0 33.5 6.5t18 19t5.5 31.5h120z" />
    <glyph glyph-name="Gdotaccent" unicode="&#x120;" horiz-adv-x="777" 
d="M569 0v58h-1q-35 -40 -82.5 -58t-113.5 -18q-97 0 -174 44.5t-119 125.5t-42 187q0 105 45.5 187.5t128.5 128t188 45.5q100 0 178 -31.5t127 -91.5l-133 -117q-28 42 -72.5 64t-101.5 22q-54 0 -94 -25t-61 -71t-21 -107q0 -64 21.5 -111t61.5 -71.5t93 -24.5
q45 0 78 14.5t50 40.5t17 58v5h-132v131h303v-385h-144zM314 734v150h172v-150h-172z" />
    <glyph glyph-name="gdotaccent" unicode="&#x121;" horiz-adv-x="621" 
d="M399 258q0 39 -12 68.5t-34.5 45.5t-52.5 16q-31 0 -53 -16.5t-33.5 -47t-11.5 -69.5q0 -38 12 -68.5t35 -47.5t54 -17q29 0 51 17t33.5 47t11.5 68v4zM564 500q-4 -46 -6 -108.5t-2 -143.5v-232q0 -105 -65 -157.5t-192 -52.5q-62 0 -120 10t-107 29l38 126
q44 -19 95.5 -30.5t95.5 -11.5q48 0 71.5 17.5t23.5 53.5q0 10 1 26.5t2 30.5h-2q-23 -29 -62 -45t-85 -16q-68 0 -117.5 31.5t-75 90t-25.5 136.5q0 75 29.5 135t83 93.5t122.5 33.5q49 0 85.5 -18t58.5 -52h1l5 54h147zM222 556v150h162v-150h-162z" />
    <glyph glyph-name="Gcommaaccent" unicode="&#x122;" horiz-adv-x="777" 
d="M569 0v58h-1q-35 -40 -82.5 -58t-113.5 -18q-97 0 -174 44.5t-119 125.5t-42 187q0 105 45.5 187.5t128.5 128t188 45.5q100 0 178 -31.5t127 -91.5l-133 -117q-28 42 -72.5 64t-101.5 22q-54 0 -94 -25t-61 -71t-21 -107q0 -64 21.5 -111t61.5 -71.5t93 -24.5
q45 0 78 14.5t50 40.5t17 58v5h-132v131h303v-385h-144zM484 -42v-63q0 -47 -38.5 -68t-120.5 -21h-29v54h17q19 0 26.5 6t7.5 18h-31v74h168z" />
    <glyph glyph-name="gcommaaccent" unicode="&#x123;" horiz-adv-x="621" 
d="M399 258q0 39 -12 68.5t-34.5 45.5t-52.5 16q-31 0 -53 -16.5t-33.5 -47t-11.5 -69.5q0 -38 12 -68.5t35 -47.5t54 -17q29 0 51 17t33.5 47t11.5 68v4zM564 500q-4 -46 -6 -108.5t-2 -143.5v-232q0 -105 -65 -157.5t-192 -52.5q-62 0 -120 10t-107 29l38 126
q44 -19 95.5 -30.5t95.5 -11.5q48 0 71.5 17.5t23.5 53.5q0 10 1 26.5t2 30.5h-2q-23 -29 -62 -45t-85 -16q-68 0 -117.5 31.5t-75 90t-25.5 136.5q0 75 29.5 135t83 93.5t122.5 33.5q49 0 85.5 -18t58.5 -52h1l5 54h147zM214 556v69q0 43 34 66.5t115 23.5h29v-57h-17
q-21 0 -27.5 -6.5t-6.5 -17.5h31v-78h-158z" />
    <glyph glyph-name="Hcircumflex" unicode="&#x124;" horiz-adv-x="770" 
d="M72 682h174v-254h278v254h174v-682h-174v281h-278v-281h-174v682zM279 887h212l108 -150h-156l-60 66l-60 -66h-152z" />
    <glyph glyph-name="hcircumflex" unicode="&#x125;" horiz-adv-x="614" 
d="M65 702h160v-159q0 -49 -8 -97h2q24 33 64.5 51.5t87.5 18.5q60 0 102 -23t64 -69.5t22 -115.5v-308h-160v250q0 51 -2 69t-9 32q-9 18 -26 27.5t-42 9.5q-19 0 -35.5 -6.5t-26.5 -16.5q-18 -18 -25.5 -45t-7.5 -69v-251h-160v702zM200 904h192l108 -150h-146l-60 66
l-60 -66h-142z" />
    <glyph glyph-name="Hbar" unicode="&#x126;" horiz-adv-x="790" 
d="M534 391v84h-278v-84h278zM82 475h-80v132h80v75h174v-75h278v75h174v-75h80v-132h-80v-475h-174v254h-278v-254h-174v475z" />
    <glyph glyph-name="hbar" unicode="&#x127;" horiz-adv-x="614" 
d="M65 551h-61v120h61v48h160v-48h96v-120h-96v-8q0 -49 -8 -97h2q24 33 64.5 51.5t87.5 18.5q61 0 103 -23.5t63.5 -70t21.5 -114.5v-308h-160v250q0 50 -2.5 69t-8.5 32q-9 18 -26 27.5t-42 9.5q-19 0 -35.5 -6.5t-26.5 -16.5q-18 -18 -25.5 -45t-7.5 -69v-251h-160v551z
" />
    <glyph glyph-name="Itilde" unicode="&#x128;" horiz-adv-x="318" 
d="M72 682h174v-682h-174v682zM83 769q-12 0 -17 -8t-5 -27h-126q0 51 17 86.5t51 54t85 18.5q29 0 54.5 -6.5t49.5 -19.5t30.5 -15.5t12.5 -2.5q12 0 17 8t5 27h126q0 -51 -17 -86.5t-51 -54t-85 -18.5q-29 0 -54.5 6.5t-49.5 19.5t-30.5 15.5t-12.5 2.5z" />
    <glyph glyph-name="itilde" unicode="&#x129;" horiz-adv-x="290" 
d="M65 0v500h160v-500h-160zM86 595q-10 0 -14.5 -9.5t-4.5 -29.5h-102q0 57 13.5 92t40.5 51.5t69 16.5q24 0 44 -7t38 -22t23.5 -17.5t10.5 -2.5q10 0 14.5 9.5t4.5 29.5h102q0 -57 -13.5 -92t-40.5 -51.5t-69 -16.5q-24 0 -44 7t-38 22t-23.5 17.5t-10.5 2.5z" />
    <glyph glyph-name="Imacron" unicode="&#x12a;" horiz-adv-x="318" 
d="M72 682h174v-682h-174v682zM342 741h-366v132h366v-132z" />
    <glyph glyph-name="imacron" unicode="&#x12b;" horiz-adv-x="290" 
d="M65 0v500h160v-500h-160zM318 559h-346v128h346v-128z" />
    <glyph glyph-name="Ibreve" unicode="&#x12c;" horiz-adv-x="318" 
d="M72 682h174v-682h-174v682zM349 908q0 -60 -22 -99.5t-64.5 -58.5t-105.5 -19t-104.5 19t-62.5 58.5t-21 99.5h129q0 -21 6 -33.5t19.5 -19t35.5 -6.5t35.5 6.5t19.5 19t6 33.5h129z" />
    <glyph glyph-name="ibreve" unicode="&#x12d;" horiz-adv-x="290" 
d="M65 0v500h160v-500h-160zM322 720q0 -57 -20 -94.5t-59.5 -56.5t-99.5 -19q-59 0 -98 19t-58 56t-19 95h120q0 -20 6 -32.5t18.5 -18.5t32.5 -6q21 0 33.5 6.5t18 19t5.5 31.5h120z" />
    <glyph glyph-name="Iogonek" unicode="&#x12e;" horiz-adv-x="318" 
d="M263 -183q-15 -5 -38 -8t-45 -3q-54 0 -86.5 9t-46.5 27t-14 47q0 25 16.5 52.5t49.5 58.5h-27v682h174v-678q-25 -32 -35.5 -51t-10.5 -31q0 -11 7 -16t23 -5h33v-84z" />
    <glyph glyph-name="iogonek" unicode="&#x12f;" horiz-adv-x="290" 
d="M242 -184q-16 -5 -37 -7.5t-42 -2.5q-51 0 -82 9t-45 27t-14 47q0 25 15.5 52t47.5 59h-20v500h160v-495q-25 -33 -35.5 -52t-10.5 -35q0 -11 7 -16t23 -5h33v-81zM64 552v150h162v-150h-162z" />
    <glyph glyph-name="Idotaccent" unicode="&#x130;" horiz-adv-x="318" 
d="M72 682h174v-682h-174v682zM73 734v150h172v-150h-172z" />
    <glyph glyph-name="dotlessi" unicode="&#x131;" horiz-adv-x="290" 
d="M65 0v500h160v-500h-160z" />
    <glyph glyph-name="IJ" unicode="&#x132;" horiz-adv-x="895" 
d="M72 682h174v-682h-174v682zM830 682v-447q0 -57 -15.5 -104t-47 -80t-79 -51t-111.5 -18q-50 0 -95 13t-79.5 43t-57 79t-27.5 120l170 28q5 -69 26 -100t64 -31q40 0 59 25.5t19 71.5v451h174z" />
    <glyph glyph-name="ij" unicode="&#x133;" horiz-adv-x="592" 
d="M64 552v150h162v-150h-162v0zM65 0v500h160v-500h-160zM366 552v150h162v-150h-162zM527 500v-485q0 -68 -19.5 -113.5t-59 -68.5t-100.5 -23q-17 0 -34 2.5t-24 6.5v124h33q22 0 30 7.5t11 26t3 62.5v461h160z" />
    <glyph glyph-name="Jcircumflex" unicode="&#x134;" horiz-adv-x="577" 
d="M512 682v-447q0 -57 -15.5 -104t-47 -80t-79 -51t-111.5 -18q-50 0 -95 13t-79.5 43t-57 79t-27.5 120l170 28q5 -69 26 -100t64 -31q40 0 59 25.5t19 71.5v451h174zM315 887h212l108 -150h-156l-60 66l-60 -66h-152z" />
    <glyph glyph-name="jcircumflex" unicode="&#x135;" horiz-adv-x="294" 
d="M229 500v-485q0 -68 -19.5 -113.5t-59 -68.5t-100.5 -23q-17 0 -34 2.5t-24 6.5v124h33q22 0 30 7.5t11 26t3 62.5v461h160zM51 702h192l108 -150h-146l-60 66l-60 -66h-142z" />
    <glyph glyph-name="Kcommaaccent" unicode="&#x136;" horiz-adv-x="718" 
d="M715 682l-231 -235l242 -447h-203l-167 318l-110 -112v-206h-174v682h174v-266l249 266h220zM453 -42v-63q0 -47 -38.5 -68t-120.5 -21h-29v54h17q19 0 26.5 6t7.5 18h-31v74h168z" />
    <glyph glyph-name="kcommaaccent" unicode="&#x137;" horiz-adv-x="574" 
d="M65 702h160v-365l144 163h197l-173 -175l198 -325h-192l-123 207l-51 -52v-155h-160v702zM376 -42v-62q0 -43 -34 -65.5t-115 -22.5h-29v53h17q21 0 27.5 6.5t6.5 17.5h-31v73h158z" />
    <glyph glyph-name="kgreenlandic" unicode="&#x138;" horiz-adv-x="573" 
d="M65 500h160v-176l144 176h194l-176 -194l203 -306h-190l-122 187l-53 -58v-129h-160v500z" />
    <glyph glyph-name="Lacute" unicode="&#x139;" horiz-adv-x="571" 
d="M72 682h174v-532h305v-150h-479v682zM146 884h213l-141 -150h-155z" />
    <glyph glyph-name="lacute" unicode="&#x13a;" horiz-adv-x="290" 
d="M65 702h160v-702h-160v702zM132 904h203l-141 -150h-145z" />
    <glyph glyph-name="Lcommaaccent" unicode="&#x13b;" horiz-adv-x="571" 
d="M72 682h174v-532h305v-150h-479v682zM385 -42v-63q0 -47 -38.5 -68t-120.5 -21h-29v54h17q19 0 26.5 6t7.5 18h-31v74h168z" />
    <glyph glyph-name="lcommaaccent" unicode="&#x13c;" horiz-adv-x="290" 
d="M65 702h160v-702h-160v702zM224 -42v-62q0 -43 -34 -65.5t-115 -22.5h-29v53h17q21 0 27.5 6.5t6.5 17.5h-31v73h158z" />
    <glyph glyph-name="Lcaron" unicode="&#x13d;" horiz-adv-x="571" 
d="M72 682h174v-532h305v-150h-479v682zM322 760h161l-57 -194h-127z" />
    <glyph glyph-name="lcaron" unicode="&#x13e;" horiz-adv-x="375" 
d="M65 702h160v-702h-160v702zM286 760h161l-57 -194h-127z" />
    <glyph glyph-name="Ldot" unicode="&#x13f;" horiz-adv-x="571" 
d="M72 682h174v-532h305v-150h-479v682zM348 280v184h188v-184h-188z" />
    <glyph glyph-name="ldot" unicode="&#x140;" horiz-adv-x="448" 
d="M65 702h160v-702h-160v702zM275 230v184h188v-184h-188z" />
    <glyph glyph-name="Lslash" unicode="&#x141;" horiz-adv-x="581" 
d="M434 376l-178 -74v-152h305v-150h-479v230l-80 -35v141l80 33v313h174v-240l178 74v-140z" />
    <glyph glyph-name="lslash" unicode="&#x142;" horiz-adv-x="310" 
d="M75 0v222l-62 -39v141l62 39v339h160v-239l62 40v-142l-62 -39v-322h-160z" />
    <glyph glyph-name="Nacute" unicode="&#x143;" horiz-adv-x="778" 
d="M490 0l-194 341q-16 28 -35.5 69t-31.5 70h-4q5 -56 8 -132.5t3 -145.5v-202h-164v682h230l180 -316q16 -28 35.5 -69t31.5 -70h4q-5 56 -8 132.5t-3 145.5v177h164v-682h-216zM369 884h213l-141 -150h-155z" />
    <glyph glyph-name="nacute" unicode="&#x144;" horiz-adv-x="614" 
d="M399 0v250q0 51 -2 69t-9 32q-9 18 -26 27.5t-42 9.5q-19 0 -35.5 -6.5t-26.5 -16.5q-18 -18 -25.5 -45t-7.5 -69v-251h-160v240v78t-0.5 66.5t-1 59t-1.5 56.5h148l3 -60h1q24 36 65.5 56t91.5 20q92 0 140 -53t48 -155v-308h-160zM294 706h203l-141 -150h-145z" />
    <glyph glyph-name="Ncommaaccent" unicode="&#x145;" horiz-adv-x="778" 
d="M490 0l-194 341q-16 28 -35.5 69t-31.5 70h-4q5 -56 8 -132.5t3 -145.5v-202h-164v682h230l180 -316q16 -28 35.5 -69t31.5 -70h4q-5 56 -8 132.5t-3 145.5v177h164v-682h-216zM483 -42v-63q0 -47 -38.5 -68t-120.5 -21h-29v54h17q19 0 26.5 6t7.5 18h-31v74h168z" />
    <glyph glyph-name="ncommaaccent" unicode="&#x146;" horiz-adv-x="614" 
d="M399 0v250q0 51 -2 69t-9 32q-9 18 -26 27.5t-42 9.5q-19 0 -35.5 -6.5t-26.5 -16.5q-18 -18 -25.5 -45t-7.5 -69v-251h-160v240v78t-0.5 66.5t-1 59t-1.5 56.5h148l3 -60h1q24 36 65.5 56t91.5 20q92 0 140 -53t48 -155v-308h-160zM396 -42v-62q0 -43 -34 -65.5
t-115 -22.5h-29v53h17q21 0 27.5 6.5t6.5 17.5h-31v73h158z" />
    <glyph glyph-name="Ncaron" unicode="&#x147;" horiz-adv-x="778" 
d="M490 0l-194 341q-16 28 -35.5 69t-31.5 70h-4q5 -56 8 -132.5t3 -145.5v-202h-164v682h230l180 -316q16 -28 35.5 -69t31.5 -70h4q-5 56 -8 132.5t-3 145.5v177h164v-682h-216zM495 737h-212l-108 150h156l60 -66l60 66h152z" />
    <glyph glyph-name="ncaron" unicode="&#x148;" horiz-adv-x="614" 
d="M399 0v250q0 51 -2 69t-9 32q-9 18 -26 27.5t-42 9.5q-19 0 -35.5 -6.5t-26.5 -16.5q-18 -18 -25.5 -45t-7.5 -69v-251h-160v240v78t-0.5 66.5t-1 59t-1.5 56.5h148l3 -60h1q24 36 65.5 56t91.5 20q92 0 140 -53t48 -155v-308h-160zM403 556h-192l-108 150h146l60 -66
l60 66h142z" />
    <glyph glyph-name="Eng" unicode="&#x14a;" horiz-adv-x="778" 
d="M501 -53q18 0 26.5 4.5t11.5 13t3 24.5v3l-233 346q-23 35 -45 73.5t-36 67.5h-3q5 -58 8 -133t3 -144v-202h-164v682h214l175 -259q27 -40 51.5 -82.5t38.5 -73.5h4q-6 42 -9.5 102t-3.5 131v182h164v-686q0 -63 -20.5 -104.5t-60.5 -61.5t-99 -20q-37 0 -58 9v128h33z
" />
    <glyph glyph-name="eng" unicode="&#x14b;" horiz-adv-x="614" 
d="M399 250q0 51 -2 69t-9 32q-9 18 -26 27.5t-42 9.5q-19 0 -35.5 -6.5t-26.5 -16.5q-18 -18 -25.5 -45t-7.5 -69v-251h-160v240q0 61 -0.5 110.5t-2.5 149.5h148l3 -60h1q24 36 65.5 56t91.5 20q92 0 140 -53t48 -155v-299q0 -66 -19.5 -110t-59.5 -66.5t-100 -22.5
q-42 0 -58 9v124h33q22 0 30 7.5t11 26t3 62.5v211z" />
    <glyph glyph-name="Omacron" unicode="&#x14c;" horiz-adv-x="794" 
d="M757 343q0 -106 -46 -188.5t-128.5 -127.5t-187.5 -45q-107 0 -188.5 44.5t-125.5 125.5t-44 187t46 188.5t128.5 127.5t187.5 45q107 0 188.5 -44.5t125.5 -125.5t44 -187zM573 341q0 61 -21.5 107t-61 71t-93.5 25q-53 0 -93 -24.5t-61.5 -70.5t-21.5 -108
q0 -61 21.5 -107t61 -71t93.5 -25q53 0 93 24.5t61.5 70.5t21.5 108zM580 741h-366v132h366v-132z" />
    <glyph glyph-name="omacron" unicode="&#x14d;" horiz-adv-x="604" 
d="M572 251q0 -80 -33 -140.5t-95.5 -93.5t-143.5 -33q-83 0 -144 32t-92.5 91.5t-31.5 141.5q0 80 33 140.5t95.5 93.5t143.5 33q83 0 144 -32t92.5 -91.5t31.5 -141.5zM402 250q0 41 -11.5 71t-34 46t-54.5 16t-54.5 -16.5t-34 -46.5t-11.5 -70q0 -41 11.5 -71t34 -46
t54.5 -16t54.5 16.5t34 46.5t11.5 70zM475 563h-346v128h346v-128z" />
    <glyph glyph-name="Obreve" unicode="&#x14e;" horiz-adv-x="794" 
d="M757 343q0 -106 -46 -188.5t-128.5 -127.5t-187.5 -45q-107 0 -188.5 44.5t-125.5 125.5t-44 187t46 188.5t128.5 127.5t187.5 45q107 0 188.5 -44.5t125.5 -125.5t44 -187zM573 341q0 61 -21.5 107t-61 71t-93.5 25q-53 0 -93 -24.5t-61.5 -70.5t-21.5 -108
q0 -61 21.5 -107t61 -71t93.5 -25q53 0 93 24.5t61.5 70.5t21.5 108zM587 908q0 -60 -22 -99.5t-64.5 -58.5t-105.5 -19t-104.5 19t-62.5 58.5t-21 99.5h129q0 -21 6 -33.5t19.5 -19t35.5 -6.5t35.5 6.5t19.5 19t6 33.5h129z" />
    <glyph glyph-name="obreve" unicode="&#x14f;" horiz-adv-x="604" 
d="M572 251q0 -80 -33 -140.5t-95.5 -93.5t-143.5 -33q-83 0 -144 32t-92.5 91.5t-31.5 141.5q0 80 33 140.5t95.5 93.5t143.5 33q83 0 144 -32t92.5 -91.5t31.5 -141.5zM402 250q0 41 -11.5 71t-34 46t-54.5 16t-54.5 -16.5t-34 -46.5t-11.5 -70q0 -41 11.5 -71t34 -46
t54.5 -16t54.5 16.5t34 46.5t11.5 70zM479 724q0 -57 -20 -94.5t-59.5 -56.5t-99.5 -19q-59 0 -98 19t-58 56t-19 95h120q0 -20 6 -32.5t18.5 -18.5t32.5 -6q21 0 33.5 6.5t18 19t5.5 31.5h120z" />
    <glyph glyph-name="Ohungarumlaut" unicode="&#x150;" horiz-adv-x="794" 
d="M757 343q0 -106 -46 -188.5t-128.5 -127.5t-187.5 -45q-107 0 -188.5 44.5t-125.5 125.5t-44 187t46 188.5t128.5 127.5t187.5 45q107 0 188.5 -44.5t125.5 -125.5t44 -187zM573 341q0 61 -21.5 107t-61 71t-93.5 25q-53 0 -93 -24.5t-61.5 -70.5t-21.5 -108
q0 -61 21.5 -107t61 -71t93.5 -25q53 0 93 24.5t61.5 70.5t21.5 108zM517 884h213l-141 -150h-155zM244 884h200l-102 -150h-152z" />
    <glyph glyph-name="ohungarumlaut" unicode="&#x151;" horiz-adv-x="604" 
d="M572 251q0 -80 -33 -140.5t-95.5 -93.5t-143.5 -33q-83 0 -144 32t-92.5 91.5t-31.5 141.5q0 80 33 140.5t95.5 93.5t143.5 33q83 0 144 -32t92.5 -91.5t31.5 -141.5zM402 250q0 41 -11.5 71t-34 46t-54.5 16t-54.5 -16.5t-34 -46.5t-11.5 -70q0 -41 11.5 -71t34 -46
t54.5 -16t54.5 16.5t34 46.5t11.5 70zM410 706h202l-141 -150h-145zM155 706h195l-107 -150h-142z" />
    <glyph glyph-name="OE" unicode="&#x152;" horiz-adv-x="1138" 
d="M573 341q0 61 -21.5 107t-61 71t-93.5 25t-94 -25t-61 -71t-21 -107q0 -62 22 -108.5t62 -70.5t92 -24q54 0 94 25t61 71t21 107zM389 696q57 0 104.5 -16.5t79.5 -47.5h1v50h505v-135h-331v-135h284v-130h-284v-146h348v-136h-522v59h-1q-25 -34 -75 -53.5t-113 -19.5
q-102 0 -181.5 43.5t-123 124t-43.5 185.5q0 103 44 184.5t125 127t183 45.5z" />
    <glyph glyph-name="oe" unicode="&#x153;" horiz-adv-x="953" 
d="M752 305q-1 28 -12 49t-30.5 32.5t-46.5 11.5q-26 0 -46 -10.5t-32.5 -31.5t-17.5 -51h185zM302 117q30 0 52.5 15.5t34.5 45.5t12 72q0 41 -11.5 71t-34 46t-54.5 16t-54 -16.5t-33.5 -46.5t-11.5 -70q0 -43 12.5 -73t35 -45t52.5 -15zM300 -16q-83 0 -143.5 31.5
t-92.5 91t-32 142.5q0 80 33 140.5t95 93.5t143 33q60 0 108 -21t74 -59q27 38 75 59t105 21q81 0 139 -31t87.5 -89.5t29.5 -140.5q0 -33 -5 -56h-350q5 -31 20 -51.5t40 -31t63 -10.5q43 0 85 13.5t75 37.5l55 -104q-50 -33 -109.5 -51t-119.5 -18q-66 0 -116.5 20.5
t-78.5 59.5q-27 -38 -75 -59t-105 -21z" />
    <glyph glyph-name="Racute" unicode="&#x154;" horiz-adv-x="713" 
d="M246 371q20 -1 44.5 -1h74.5q38 0 64.5 10t40 30t13.5 50q0 28 -13 45.5t-40 26.5t-68 9q-22 0 -60.5 -0.5t-55.5 -0.5v-169zM488 0l-137 229h-105v-229h-174v682q53 0 157.5 1t141.5 1q95 0 161.5 -25t100.5 -74t34 -121q0 -73 -34 -125t-100 -80l168 -259h-213z
M337 884h213l-141 -150h-155z" />
    <glyph glyph-name="racute" unicode="&#x155;" horiz-adv-x="408" 
d="M65 0v240q0 61 -0.5 110.5t-2.5 149.5h148l4 -82h1q29 52 65 75t85 23q21 0 35 -2v-159q-18 2 -38 2q-33 0 -57 -8t-40 -24q-22 -22 -31 -54t-9 -110v-161h-160zM223 702h203l-141 -150h-145z" />
    <glyph glyph-name="Rcommaaccent" unicode="&#x156;" horiz-adv-x="713" 
d="M246 371q20 -1 44.5 -1h74.5q38 0 64.5 10t40 30t13.5 50q0 28 -13 45.5t-40 26.5t-68 9q-22 0 -60.5 -0.5t-55.5 -0.5v-169zM488 0l-137 229h-105v-229h-174v682q53 0 157.5 1t141.5 1q95 0 161.5 -25t100.5 -74t34 -121q0 -73 -34 -125t-100 -80l168 -259h-213z
M450 -42v-63q0 -47 -38.5 -68t-120.5 -21h-29v54h17q19 0 26.5 6t7.5 18h-31v74h168z" />
    <glyph glyph-name="rcommaaccent" unicode="&#x157;" horiz-adv-x="408" 
d="M65 0v240q0 61 -0.5 110.5t-2.5 149.5h148l4 -82h1q29 52 65 75t85 23q21 0 35 -2v-159q-18 2 -38 2q-33 0 -57 -8t-40 -24q-22 -22 -31 -54t-9 -110v-161h-160zM224 -42v-62q0 -43 -34 -65.5t-115 -22.5h-29v53h17q21 0 27.5 6.5t6.5 17.5h-31v73h158z" />
    <glyph glyph-name="Rcaron" unicode="&#x158;" horiz-adv-x="713" 
d="M246 371q20 -1 44.5 -1h74.5q38 0 64.5 10t40 30t13.5 50q0 28 -13 45.5t-40 26.5t-68 9q-22 0 -60.5 -0.5t-55.5 -0.5v-169zM488 0l-137 229h-105v-229h-174v682q53 0 157.5 1t141.5 1q95 0 161.5 -25t100.5 -74t34 -121q0 -73 -34 -125t-100 -80l168 -259h-213z
M462 737h-212l-108 150h156l60 -66l60 66h152z" />
    <glyph glyph-name="rcaron" unicode="&#x159;" horiz-adv-x="408" 
d="M65 0v240q0 61 -0.5 110.5t-2.5 149.5h148l4 -82h1q29 52 65 75t85 23q21 0 35 -2v-159q-18 2 -38 2q-33 0 -57 -8t-40 -24q-22 -22 -31 -54t-9 -110v-161h-160zM322 552h-192l-108 150h146l60 -66l60 66h142z" />
    <glyph glyph-name="Sacute" unicode="&#x15a;" horiz-adv-x="688" 
d="M102 204q60 -38 125.5 -59t124.5 -21q37 0 62 7.5t38 21.5t13 33t-12.5 32.5t-38 22.5t-119 26t-144.5 44.5t-75 71t-24 104.5q0 62 35 111t100 75.5t151 26.5q60 0 127 -16.5t129 -46.5l-60 -139q-48 29 -100.5 45t-99.5 16q-34 0 -57 -7t-34 -19.5t-11 -28.5
q0 -18 12 -30t36.5 -20.5t118 -24t146 -43.5t77.5 -73.5t25 -109.5t-37 -115t-105 -78.5t-157 -27.5q-75 0 -158.5 23t-150.5 63zM324 884h213l-141 -150h-155z" />
    <glyph glyph-name="sacute" unicode="&#x15b;" horiz-adv-x="528" 
d="M83 163q46 -28 93.5 -42.5t94.5 -14.5q34 0 50 8t16 25q0 11 -7.5 19t-24 13.5t-83.5 16.5t-104.5 31.5t-55.5 53t-18 77.5q0 52 27.5 89.5t78.5 57t119 19.5q50 0 103.5 -12t95.5 -33l-51 -111q-32 18 -72 28.5t-78 10.5q-19 0 -32.5 -3.5t-20.5 -10t-7 -16.5
q0 -11 8.5 -19t25 -13t82 -15.5t104 -31t57 -53.5t18.5 -79q0 -53 -27.5 -92.5t-80.5 -60.5t-125 -21q-60 0 -121 16t-120 47zM255 706h203l-141 -150h-145z" />
    <glyph glyph-name="Scircumflex" unicode="&#x15c;" horiz-adv-x="688" 
d="M102 204q60 -38 125.5 -59t124.5 -21q37 0 62 7.5t38 21.5t13 33t-12.5 32.5t-38 22.5t-119 26t-144.5 44.5t-75 71t-24 104.5q0 62 35 111t100 75.5t151 26.5q60 0 127 -16.5t129 -46.5l-60 -139q-48 29 -100.5 45t-99.5 16q-34 0 -57 -7t-34 -19.5t-11 -28.5
q0 -18 12 -30t36.5 -20.5t118 -24t146 -43.5t77.5 -73.5t25 -109.5t-37 -115t-105 -78.5t-157 -27.5q-75 0 -158.5 23t-150.5 63zM238 887h212l108 -150h-156l-60 66l-60 -66h-152z" />
    <glyph glyph-name="scircumflex" unicode="&#x15d;" horiz-adv-x="528" 
d="M83 163q46 -28 93.5 -42.5t94.5 -14.5q34 0 50 8t16 25q0 11 -7.5 19t-24 13.5t-83.5 16.5t-104.5 31.5t-55.5 53t-18 77.5q0 52 27.5 89.5t78.5 57t119 19.5q50 0 103.5 -12t95.5 -33l-51 -111q-32 18 -72 28.5t-78 10.5q-19 0 -32.5 -3.5t-20.5 -10t-7 -16.5
q0 -11 8.5 -19t25 -13t82 -15.5t104 -31t57 -53.5t18.5 -79q0 -53 -27.5 -92.5t-80.5 -60.5t-125 -21q-60 0 -121 16t-120 47zM170 706h192l108 -150h-146l-60 66l-60 -66h-142z" />
    <glyph glyph-name="Scedilla" unicode="&#x15e;" horiz-adv-x="688" 
d="M225 -180q28 26 37 40t9 25q0 20 -35 39l35 62q-76 15 -125.5 33t-106.5 49l63 136q60 -38 125.5 -59t124.5 -21q55 0 84 16.5t29 45.5q0 27 -26.5 43.5t-119 33t-137 34t-73 43.5t-43 62.5t-14.5 84.5q0 62 35 111t100 75.5t151 26.5q60 0 127 -16.5t129 -46.5l-60 -139
q-48 29 -100.5 45t-99.5 16q-49 0 -75.5 -14.5t-26.5 -40.5q0 -25 25.5 -40t117.5 -30.5t137.5 -33t75 -44.5t44.5 -65t15 -88q0 -57 -29.5 -104t-84.5 -76.5t-129 -37.5l-10 -17q24 -19 34 -35t10 -36q0 -21 -15 -41.5t-39 -35.5h-159z" />
    <glyph glyph-name="scedilla" unicode="&#x15f;" horiz-adv-x="528" 
d="M157 -180q22 21 32.5 37t10.5 28t-10 21.5t-25 18.5l36 64q-42 6 -88.5 21.5t-84.5 36.5l55 116q93 -57 188 -57q34 0 50 8t16 25q0 16 -17.5 26t-81.5 20.5t-96.5 23t-54 32t-32.5 46.5t-11 63q0 52 27.5 89.5t78.5 57t119 19.5q50 0 103.5 -12t95.5 -33l-51 -111
q-32 18 -72 28.5t-78 10.5q-30 0 -45 -8t-15 -22q0 -16 17 -25t81 -19.5t97.5 -23t55.5 -32.5t33 -47.5t11 -63.5q0 -46 -21 -82t-61 -58.5t-96 -29.5l-11 -20q24 -19 34 -35t10 -36t-13 -40.5t-35 -36.5h-152z" />
    <glyph glyph-name="Scaron" unicode="&#x160;" horiz-adv-x="688" 
d="M102 204q60 -38 125.5 -59t124.5 -21q37 0 62 7.5t38 21.5t13 33t-12.5 32.5t-38 22.5t-119 26t-144.5 44.5t-75 71t-24 104.5q0 62 35 111t100 75.5t151 26.5q60 0 127 -16.5t129 -46.5l-60 -139q-48 29 -100.5 45t-99.5 16q-34 0 -57 -7t-34 -19.5t-11 -28.5
q0 -18 12 -30t36.5 -20.5t118 -24t146 -43.5t77.5 -73.5t25 -109.5t-37 -115t-105 -78.5t-157 -27.5q-75 0 -158.5 23t-150.5 63zM450 737h-212l-108 150h156l60 -66l60 66h152z" />
    <glyph glyph-name="scaron" unicode="&#x161;" horiz-adv-x="528" 
d="M83 163q46 -28 93.5 -42.5t94.5 -14.5q34 0 50 8t16 25q0 11 -7.5 19t-24 13.5t-83.5 16.5t-104.5 31.5t-55.5 53t-18 77.5q0 52 27.5 89.5t78.5 57t119 19.5q50 0 103.5 -12t95.5 -33l-51 -111q-32 18 -72 28.5t-78 10.5q-19 0 -32.5 -3.5t-20.5 -10t-7 -16.5
q0 -11 8.5 -19t25 -13t82 -15.5t104 -31t57 -53.5t18.5 -79q0 -53 -27.5 -92.5t-80.5 -60.5t-125 -21q-60 0 -121 16t-120 47zM362 556h-192l-108 150h146l60 -66l60 66h142z" />
    <glyph glyph-name="Tcommaaccent" unicode="&#x162;" horiz-adv-x="542" 
d="M182 539h-185v143h548v-143h-185v-539h-178v539zM355 -42v-63q0 -47 -38.5 -68t-120.5 -21h-29v54h17q19 0 26.5 6t7.5 18h-31v74h168z" />
    <glyph glyph-name="tcommaaccent" unicode="&#x163;" horiz-adv-x="376" 
d="M18 373v127h61v139l160 29v-168h108v-127h-108v-162q0 -34 1 -49t3.5 -22t7.5 -12q6 -6 14 -8.5t21 -2.5q16 0 32.5 2t28.5 5v-123q-20 -8 -48.5 -12.5t-57.5 -4.5q-60 0 -95.5 18t-51.5 55t-15 97v219h-61zM295 -42v-62q0 -43 -34 -65.5t-115 -22.5h-29v53h17
q21 0 27.5 6.5t6.5 17.5h-31v73h158z" />
    <glyph glyph-name="Tcaron" unicode="&#x164;" horiz-adv-x="542" 
d="M182 539h-185v143h548v-143h-185v-539h-178v539zM377 737h-212l-108 150h156l60 -66l60 66h152z" />
    <glyph glyph-name="tcaron" unicode="&#x165;" horiz-adv-x="376" 
d="M18 373v127h61v139l160 29v-168h108v-127h-108v-162q0 -34 1 -49t3.5 -22t7.5 -12q6 -6 14 -8.5t21 -2.5q16 0 32.5 2t28.5 5v-123q-20 -8 -48.5 -12.5t-57.5 -4.5q-60 0 -95.5 18t-51.5 55t-15 97v219h-61zM295 760h161l-57 -194h-127z" />
    <glyph glyph-name="Tbar" unicode="&#x166;" horiz-adv-x="542" 
d="M182 0v255h-141v132h141v152h-185v143h548v-143h-185v-152h141v-132h-141v-255h-178z" />
    <glyph glyph-name="tbar" unicode="&#x167;" horiz-adv-x="376" 
d="M79 373h-61v127h61v139l160 29v-168h108v-127h-108v-65h78v-118h-78v-1q0 -30 2.5 -42t9.5 -19q11 -11 35 -11q16 0 32.5 2t28.5 5v-123q-20 -8 -48.5 -12.5t-57.5 -4.5q-60 0 -95.5 18t-51.5 55t-15 97v36h-48v118h48v65z" />
    <glyph glyph-name="Utilde" unicode="&#x168;" horiz-adv-x="746" 
d="M239 287q0 -47 17 -80.5t48.5 -51t74.5 -17.5q44 0 75 16.5t47 50t16 82.5v395h164v-405q0 -88 -36.5 -155.5t-105 -103.5t-163.5 -36q-97 0 -167 35t-107 101t-37 155v409h174v-395zM297 769q-12 0 -17 -8t-5 -27h-126q0 51 17 86.5t51 54t85 18.5q29 0 54.5 -6.5
t49.5 -19.5t30.5 -15.5t12.5 -2.5q12 0 17 8t5 27h126q0 -51 -17 -86.5t-51 -54t-85 -18.5q-29 0 -54.5 6.5t-49.5 19.5t-30.5 15.5t-12.5 2.5z" />
    <glyph glyph-name="utilde" unicode="&#x169;" horiz-adv-x="610" 
d="M400 0l-3 60h-1q-25 -36 -65.5 -56t-89.5 -20q-61 0 -103 24.5t-62.5 71t-20.5 112.5v308h160v-250q0 -51 2 -69t9 -32q9 -18 25.5 -27.5t40.5 -9.5q19 0 35 6.5t26 16.5q17 17 24.5 43.5t7.5 70.5v251h160v-253q0 -60 0.5 -109.5t2.5 -137.5h-148zM232 591
q-12 0 -17 -7.5t-5 -27.5h-115q0 52 15.5 86.5t47 52t80.5 17.5q27 0 50.5 -6t47 -18t30 -14.5t12.5 -2.5q12 0 17 7.5t5 27.5h115q0 -52 -15.5 -86.5t-47 -52t-80.5 -17.5q-27 0 -50.5 6t-47 18.5t-30.5 14.5t-12 2z" />
    <glyph glyph-name="Umacron" unicode="&#x16a;" horiz-adv-x="746" 
d="M239 287q0 -47 17 -80.5t48.5 -51t74.5 -17.5q44 0 75 16.5t47 50t16 82.5v395h164v-405q0 -88 -36.5 -155.5t-105 -103.5t-163.5 -36q-97 0 -167 35t-107 101t-37 155v409h174v-395zM556 741h-366v132h366v-132z" />
    <glyph glyph-name="umacron" unicode="&#x16b;" horiz-adv-x="610" 
d="M400 0l-3 60h-1q-25 -36 -65.5 -56t-89.5 -20q-61 0 -103 24.5t-62.5 71t-20.5 112.5v308h160v-250q0 -51 2 -69t9 -32q9 -18 25.5 -27.5t40.5 -9.5q19 0 35 6.5t26 16.5q17 17 24.5 43.5t7.5 70.5v251h160v-253q0 -60 0.5 -109.5t2.5 -137.5h-148zM478 559h-346v128h346
v-128z" />
    <glyph glyph-name="Ubreve" unicode="&#x16c;" horiz-adv-x="746" 
d="M239 287q0 -47 17 -80.5t48.5 -51t74.5 -17.5q44 0 75 16.5t47 50t16 82.5v395h164v-405q0 -88 -36.5 -155.5t-105 -103.5t-163.5 -36q-97 0 -167 35t-107 101t-37 155v409h174v-395zM563 908q0 -60 -22 -99.5t-64.5 -58.5t-105.5 -19t-104.5 19t-62.5 58.5t-21 99.5h129
q0 -21 6 -33.5t19.5 -19t35.5 -6.5t35.5 6.5t19.5 19t6 33.5h129z" />
    <glyph glyph-name="ubreve" unicode="&#x16d;" horiz-adv-x="610" 
d="M400 0l-3 60h-1q-25 -36 -65.5 -56t-89.5 -20q-61 0 -103 24.5t-62.5 71t-20.5 112.5v308h160v-250q0 -51 2 -69t9 -32q9 -18 25.5 -27.5t40.5 -9.5q19 0 35 6.5t26 16.5q17 17 24.5 43.5t7.5 70.5v251h160v-253q0 -60 0.5 -109.5t2.5 -137.5h-148zM482 720
q0 -57 -20 -94.5t-59.5 -56.5t-99.5 -19q-59 0 -98 19t-58 56t-19 95h120q0 -20 6 -32.5t18.5 -18.5t32.5 -6q21 0 33.5 6.5t18 19t5.5 31.5h120z" />
    <glyph glyph-name="Uring" unicode="&#x16e;" horiz-adv-x="746" 
d="M239 287q0 -47 17 -80.5t48.5 -51t74.5 -17.5q44 0 75 16.5t47 50t16 82.5v395h164v-405q0 -88 -36.5 -155.5t-105 -103.5t-163.5 -36q-97 0 -167 35t-107 101t-37 155v409h174v-395zM405 834q0 17 -8 27.5t-24 10.5t-24 -10.5t-8 -27.5t8 -27.5t24 -10.5t24 10.5t8 27.5
zM526 835q0 -51 -40.5 -84t-113.5 -33q-74 0 -113 32t-39 83t40.5 84t113.5 33q74 0 113 -32t39 -83z" />
    <glyph glyph-name="uring" unicode="&#x16f;" horiz-adv-x="610" 
d="M400 0l-3 60h-1q-25 -36 -65.5 -56t-89.5 -20q-61 0 -103 24.5t-62.5 71t-20.5 112.5v308h160v-250q0 -51 2 -69t9 -32q9 -18 25.5 -27.5t40.5 -9.5q19 0 35 6.5t26 16.5q17 17 24.5 43.5t7.5 70.5v251h160v-253q0 -60 0.5 -109.5t2.5 -137.5h-148zM337 662q0 17 -8 27.5
t-24 10.5t-24 -10.5t-8 -27.5t8 -27.5t24 -10.5t24 10.5t8 27.5zM458 663q0 -51 -40.5 -84t-113.5 -33q-74 0 -113 32t-39 83t40.5 84t113.5 33q74 0 113 -32t39 -83z" />
    <glyph glyph-name="Uhungarumlaut" unicode="&#x170;" horiz-adv-x="746" 
d="M239 287q0 -47 17 -80.5t48.5 -51t74.5 -17.5q44 0 75 16.5t47 50t16 82.5v395h164v-405q0 -88 -36.5 -155.5t-105 -103.5t-163.5 -36q-97 0 -167 35t-107 101t-37 155v409h174v-395zM503 884h213l-141 -150h-155zM230 884h200l-102 -150h-152z" />
    <glyph glyph-name="uhungarumlaut" unicode="&#x171;" horiz-adv-x="610" 
d="M400 0l-3 60h-1q-25 -36 -65.5 -56t-89.5 -20q-61 0 -103 24.5t-62.5 71t-20.5 112.5v308h160v-250q0 -51 2 -69t9 -32q9 -18 25.5 -27.5t40.5 -9.5q19 0 35 6.5t26 16.5q17 17 24.5 43.5t7.5 70.5v251h160v-253q0 -60 0.5 -109.5t2.5 -137.5h-148zM411 702h202
l-141 -150h-145zM156 702h195l-107 -150h-142z" />
    <glyph glyph-name="Uogonek" unicode="&#x172;" horiz-adv-x="746" 
d="M577 -183q-22 -5 -42.5 -8t-40.5 -3q-54 0 -86.5 9t-46.5 27t-14 47q0 21 12 46.5t34 48.5q-10 -2 -17 -2q-97 0 -167 35t-107 101t-37 155v409h174v-395q0 -47 17 -80.5t48.5 -51t74.5 -17.5q44 0 75 16.5t47 50t16 82.5v395h164v-405q0 -65 -20.5 -120.5t-58.5 -93.5
q-6 -6 -18.5 -17t-19.5 -18q-22 -22 -36 -52.5t-14 -53.5q0 -11 7.5 -16t24.5 -5h31v-84z" />
    <glyph glyph-name="uogonek" unicode="&#x173;" horiz-adv-x="610" 
d="M397 60h-1q-25 -36 -65.5 -56t-89.5 -20q-60 0 -101.5 23.5t-63 70t-21.5 114.5v308h160v-250q0 -51 2 -69t9 -32q9 -18 25.5 -27.5t40.5 -9.5q19 0 35 6.5t26 16.5q17 17 24.5 43.5t7.5 70.5v251h160v-240q0 -84 1 -150t2 -110q-25 -23 -38.5 -44.5t-13.5 -37.5
q0 -11 7 -16t23 -5h33v-81q-16 -5 -37 -7.5t-42 -2.5q-49 0 -80 8.5t-46 26t-15 48.5q0 24 15 50t46 57z" />
    <glyph glyph-name="Wcircumflex" unicode="&#x174;" horiz-adv-x="1077" 
d="M199 0l-183 682h194l71 -314q8 -36 19 -91t20 -108h4q8 40 20.5 96.5t24.5 101.5l82 315h191l80 -315q21 -83 31 -125t16 -73h4q7 41 17.5 95t22.5 109l70 309h178l-183 -682h-227l-66 252q-30 116 -36 142.5t-9 49.5h-4q-4 -28 -11.5 -61t-32.5 -131l-66 -252h-227z
M432 887h212l108 -150h-156l-60 66l-60 -66h-152z" />
    <glyph glyph-name="wcircumflex" unicode="&#x175;" horiz-adv-x="836" 
d="M489 0l-42 165q-8 33 -15 67.5t-13 74.5h-2q-6 -40 -13 -74.5t-15 -67.5l-42 -165h-190l-151 500h170l56 -202q10 -36 17.5 -70.5t14.5 -78.5h3q8 54 14.5 87.5t13.5 62.5l51 201h156l51 -202q7 -30 14.5 -67t15.5 -82h3q5 33 12 69t17 80l47 202h168l-151 -500h-190z
M322 702h192l108 -150h-146l-60 66l-60 -66h-142z" />
    <glyph glyph-name="Ycircumflex" unicode="&#x176;" horiz-adv-x="658" 
d="M242 0v271l-242 411h209l125 -238l121 238h203l-242 -411v-271h-174zM223 887h212l108 -150h-156l-60 66l-60 -66h-152z" />
    <glyph glyph-name="ycircumflex" unicode="&#x177;" horiz-adv-x="538" 
d="M126 -180l79 180h-34l-174 500h179l58 -195q13 -46 23 -86t15 -71h3q5 27 14 64t23 93l51 195h178l-236 -680h-179zM173 702h192l108 -150h-146l-60 66l-60 -66h-142z" />
    <glyph glyph-name="Ydieresis" unicode="&#x178;" horiz-adv-x="658" 
d="M242 0v271l-242 411h209l125 -238l121 238h203l-242 -411v-271h-174zM374 734v150h160v-150h-160zM124 734v150h160v-150h-160z" />
    <glyph glyph-name="Zacute" unicode="&#x179;" horiz-adv-x="628" 
d="M596 0h-564v144l325 397q-134 -2 -202 -2h-108v143h534v-143l-326 -396q125 2 179 2h162v-145zM294 884h213l-141 -150h-155z" />
    <glyph glyph-name="zacute" unicode="&#x17a;" horiz-adv-x="535" 
d="M491 0h-447v130l222 244q-18 0 -63.5 -1t-64.5 -1h-83v128h424v-128l-222 -244q15 0 61.5 1t67.5 1h105v-130zM254 702h203l-141 -150h-145z" />
    <glyph glyph-name="Zdotaccent" unicode="&#x17b;" horiz-adv-x="628" 
d="M596 0h-564v144l325 397q-134 -2 -202 -2h-108v143h534v-143l-326 -396q125 2 179 2h162v-145zM228 734v150h172v-150h-172z" />
    <glyph glyph-name="zdotaccent" unicode="&#x17c;" horiz-adv-x="535" 
d="M491 0h-447v130l222 244q-18 0 -63.5 -1t-64.5 -1h-83v128h424v-128l-222 -244q15 0 61.5 1t67.5 1h105v-130zM186 552v150h162v-150h-162z" />
    <glyph glyph-name="Zcaron" unicode="&#x17d;" horiz-adv-x="628" 
d="M596 0h-564v144l325 397q-134 -2 -202 -2h-108v143h534v-143l-326 -396q125 2 179 2h162v-145zM420 737h-212l-108 150h156l60 -66l60 66h152z" />
    <glyph glyph-name="zcaron" unicode="&#x17e;" horiz-adv-x="535" 
d="M491 0h-447v130l222 244q-18 0 -63.5 -1t-64.5 -1h-83v128h424v-128l-222 -244q15 0 61.5 1t67.5 1h105v-130zM363 552h-192l-108 150h146l60 -66l60 66h142z" />
    <glyph glyph-name="longs" unicode="&#x17f;" horiz-adv-x="290" 
d="M65 0v536q0 60 21.5 100t65.5 60t112 20q14 0 29.5 -1t24.5 -2v-130q-10 1 -22 2t-21 1q-19 0 -29.5 -6t-15.5 -20t-5 -38v-522h-160z" />
    <glyph glyph-name="uni018F" unicode="&#x18f;" horiz-adv-x="729" 
d="M57 532q52 85 126 126.5t172 41.5q97 0 174.5 -45t120 -126.5t42.5 -186.5q0 -102 -43 -184.5t-121 -129t-174 -46.5q-103 0 -175.5 40.5t-110.5 119.5t-38 189q0 36 6 70h467q-8 47 -29 79.5t-53.5 49t-72.5 16.5q-51 0 -87 -21.5t-60 -65.5zM356 138q40 0 70.5 16.5
t49.5 47.5t27 75h-289q0 -41 17 -73t49 -49t76 -17z" />
    <glyph glyph-name="florin" unicode="&#x192;" horiz-adv-x="543" 
d="M488 308h-152l-24 -229q-7 -63 -23.5 -106.5t-44.5 -71t-71 -41t-105 -13.5q-21 0 -46 3t-40 7l26 132q17 -4 34.5 -6t30.5 -2q18 0 29 5.5t18.5 17t12.5 30t8 45.5l24 229h-117v130h131l8 67q7 65 24.5 109t46 71t71 39.5t102.5 12.5q22 0 43.5 -2.5t41.5 -7.5l-26 -132
q-16 4 -33 6t-31 2q-16 0 -27 -5t-19 -16t-13.5 -30t-8.5 -47l-8 -67h138v-130z" />
    <glyph glyph-name="Gcaron" unicode="&#x1e6;" horiz-adv-x="777" 
d="M569 0v58h-1q-35 -40 -82.5 -58t-113.5 -18q-97 0 -174 44.5t-119 125.5t-42 187q0 105 45.5 187.5t128.5 128t188 45.5q100 0 178 -31.5t127 -91.5l-133 -117q-28 42 -72.5 64t-101.5 22q-54 0 -94 -25t-61 -71t-21 -107q0 -64 21.5 -111t61.5 -71.5t93 -24.5
q45 0 78 14.5t50 40.5t17 58v5h-132v131h303v-385h-144zM506 737h-212l-108 150h156l60 -66l60 66h152z" />
    <glyph glyph-name="gcaron" unicode="&#x1e7;" horiz-adv-x="621" 
d="M399 258q0 39 -12 68.5t-34.5 45.5t-52.5 16q-31 0 -53 -16.5t-33.5 -47t-11.5 -69.5q0 -38 12 -68.5t35 -47.5t54 -17q29 0 51 17t33.5 47t11.5 68v4zM564 500q-4 -46 -6 -108.5t-2 -143.5v-232q0 -105 -65 -157.5t-192 -52.5q-62 0 -120 10t-107 29l38 126
q44 -19 95.5 -30.5t95.5 -11.5q48 0 71.5 17.5t23.5 53.5q0 10 1 26.5t2 30.5h-2q-23 -29 -62 -45t-85 -16q-68 0 -117.5 31.5t-75 90t-25.5 136.5q0 75 29.5 135t83 93.5t122.5 33.5q49 0 85.5 -18t58.5 -52h1l5 54h147zM399 556h-192l-108 150h146l60 -66l60 66h142z" />
    <glyph glyph-name="Aringacute" unicode="&#x1fa;" horiz-adv-x="713" 
d="M349 538q-18 -80 -35 -137l-42 -147h156l-43 147q-17 57 -35 137h-1zM466 682l238 -682h-202l-36 124h-232l-35 -124h-190l238 682h219zM348 980h195l-127 -120h-141zM388 721q0 17 -8 27.5t-24 10.5t-24 -10.5t-8 -27.5t8 -27.5t24 -10.5t24 10.5t8 27.5zM509 722
q0 -51 -40.5 -84t-113.5 -33q-74 0 -113 32t-39 83t40.5 84t113.5 33q74 0 113 -32t39 -83z" />
    <glyph glyph-name="aringacute" unicode="&#x1fb;" horiz-adv-x="555" 
d="M22 141q0 43 19 76t58.5 55.5t99.5 33.5t141 11v10q0 35 -22.5 52.5t-64.5 17.5q-41 0 -80.5 -14.5t-71.5 -41.5l-67 96q49 38 111 58.5t128 20.5q112 0 169.5 -48t57.5 -141v-90v-80.5t3 -156.5h-149l-2 51h-1q-29 -34 -66.5 -50.5t-85.5 -16.5q-83 0 -130 42t-47 115z
M340 211q-43 0 -72 -3.5t-46.5 -10.5t-25 -18t-7.5 -27q0 -23 14.5 -35t40.5 -12t49 13.5t35 35t12 47.5v10v0zM280 930h179l-124 -133h-128zM307 657q0 15 -7.5 25t-22.5 10t-22.5 -10t-7.5 -25t7.5 -25t22.5 -10t22.5 10t7.5 25zM423 658q0 -46 -38.5 -77t-108.5 -31
q-71 0 -108 29.5t-37 76.5q0 46 38.5 77t108.5 31q71 0 108 -29.5t37 -76.5z" />
    <glyph glyph-name="AEacute" unicode="&#x1fc;" horiz-adv-x="996" 
d="M271 236h170v311h-45zM937 682v-135h-322v-135h275v-130h-275v-146h339v-136h-513v106h-222l-41 -106h-191l292 682h658zM591 884h213l-141 -150h-155z" />
    <glyph glyph-name="aeacute" unicode="&#x1fd;" horiz-adv-x="890" 
d="M244 105q25 0 47.5 12.5t35.5 34.5t13 49v10q-43 0 -72 -3.5t-46.5 -10.5t-25 -18t-7.5 -27q0 -23 14.5 -35t40.5 -12zM689 305q-1 30 -12.5 51t-31 31.5t-45.5 10.5t-46 -10.5t-32.5 -31.5t-17.5 -51h185zM205 -16q-87 0 -135 42t-48 115q0 43 19 76t58.5 55.5
t99.5 33.5t141 11v10q0 35 -22.5 52.5t-64.5 17.5q-41 0 -80.5 -14.5t-71.5 -41.5l-67 96q49 38 111 58.5t128 20.5q58 0 99 -13t68 -40q27 25 70 39t92 14q80 0 138 -30.5t88 -89t30 -141.5q0 -33 -5 -56h-350q8 -48 38 -70.5t85 -22.5q43 0 85 13.5t75 37.5l55 -104
q-50 -33 -109.5 -51t-119.5 -18q-77 0 -127.5 24t-83.5 76q-27 -48 -78.5 -74t-117.5 -26zM445 702h203l-141 -150h-145z" />
    <glyph glyph-name="Oslashacute" unicode="&#x1fe;" horiz-adv-x="794" 
d="M217 341q0 -19 3 -41.5t7 -41.5l250 276q-17 7 -38.5 11t-41.5 4q-56 0 -96.5 -26t-62 -73t-21.5 -109zM577 341q0 19 -3 41.5t-7 41.5l-250 -276q17 -7 38.5 -11t41.5 -4q56 0 96.5 26t62 73t21.5 109zM33 48l68 75q-32 45 -48 99.5t-16 116.5q0 105 45.5 187.5
t128.5 128t188 45.5q50 0 96.5 -11t87.5 -33l67 75l111 -97l-68 -75q31 -44 47.5 -99t16.5 -117q0 -105 -45.5 -187.5t-128.5 -128t-188 -45.5q-50 0 -96.5 11t-87.5 33l-67 -75zM377 884h213l-141 -150h-155z" />
    <glyph glyph-name="oslashacute" unicode="&#x1ff;" horiz-adv-x="604" 
d="M410 250q0 19 0.5 27t2.5 15l-156 -173q7 -4 19.5 -6.5t25.5 -2.5q34 0 58.5 17t37 48.5t12.5 74.5zM194 250q0 -19 -0.5 -27t-2.5 -15l156 173q-9 4 -21 6.5t-24 2.5q-34 0 -58.5 -17t-37 -48.5t-12.5 -74.5zM27 31l50 55q-22 32 -33.5 73t-11.5 90q0 80 33 140.5
t95.5 93.5t143.5 33q38 0 71 -7t63 -20l53 60l86 -80l-50 -55q22 -32 33.5 -73t11.5 -90q0 -80 -33 -140.5t-95.5 -93.5t-143.5 -33q-38 0 -71 7t-63 20l-53 -60zM289 706h203l-141 -150h-145z" />
    <glyph glyph-name="Scommaaccent" unicode="&#x218;" horiz-adv-x="688" 
d="M102 204q60 -38 125.5 -59t124.5 -21q37 0 62 7.5t38 21.5t13 33t-12.5 32.5t-38 22.5t-119 26t-144.5 44.5t-75 71t-24 104.5q0 62 35 111t100 75.5t151 26.5q60 0 127 -16.5t129 -46.5l-60 -139q-48 29 -100.5 45t-99.5 16q-34 0 -57 -7t-34 -19.5t-11 -28.5
q0 -18 12 -30t36.5 -20.5t118 -24t146 -43.5t77.5 -73.5t25 -109.5t-37 -115t-105 -78.5t-157 -27.5q-75 0 -158.5 23t-150.5 63zM438 -42v-63q0 -47 -38.5 -68t-120.5 -21h-29v54h17q19 0 26.5 6t7.5 18h-31v74h168z" />
    <glyph glyph-name="scommaaccent" unicode="&#x219;" horiz-adv-x="528" 
d="M83 163q46 -28 93.5 -42.5t94.5 -14.5q34 0 50 8t16 25q0 11 -7.5 19t-24 13.5t-83.5 16.5t-104.5 31.5t-55.5 53t-18 77.5q0 52 27.5 89.5t78.5 57t119 19.5q50 0 103.5 -12t95.5 -33l-51 -111q-32 18 -72 28.5t-78 10.5q-19 0 -32.5 -3.5t-20.5 -10t-7 -16.5
q0 -11 8.5 -19t25 -13t82 -15.5t104 -31t57 -53.5t18.5 -79q0 -53 -27.5 -92.5t-80.5 -60.5t-125 -21q-60 0 -121 16t-120 47zM353 -42v-62q0 -43 -34 -65.5t-115 -22.5h-29v53h17q21 0 27.5 6.5t6.5 17.5h-31v73h158z" />
    <glyph glyph-name="uni021A" unicode="&#x21a;" horiz-adv-x="542" 
d="M182 539h-185v143h548v-143h-185v-539h-178v539zM355 -42v-63q0 -47 -38.5 -68t-120.5 -21h-29v54h17q19 0 26.5 6t7.5 18h-31v74h168z" />
    <glyph glyph-name="uni021B" unicode="&#x21b;" horiz-adv-x="376" 
d="M18 373v127h61v139l160 29v-168h108v-127h-108v-162q0 -34 1 -49t3.5 -22t7.5 -12q6 -6 14 -8.5t21 -2.5q16 0 32.5 2t28.5 5v-123q-20 -8 -48.5 -12.5t-57.5 -4.5q-60 0 -95.5 18t-51.5 55t-15 97v219h-61zM295 -42v-62q0 -43 -34 -65.5t-115 -22.5h-29v53h17
q21 0 27.5 6.5t6.5 17.5h-31v73h158z" />
    <glyph glyph-name="dotlessj" unicode="&#x237;" horiz-adv-x="294" 
d="M229 500v-485q0 -68 -19.5 -113.5t-59 -68.5t-100.5 -23q-17 0 -34 2.5t-24 6.5v124h33q22 0 30 7.5t11 26t3 62.5v461h160z" />
    <glyph glyph-name="uni0259" unicode="&#x259;" horiz-adv-x="591" 
d="M49 447q50 33 109.5 51t119.5 18q89 0 152 -30.5t96 -90t33 -144.5q0 -82 -34 -142.5t-95.5 -92.5t-141.5 -32q-81 0 -139 31t-87.5 89.5t-29.5 140.5q0 33 5 56h350q-6 33 -21.5 53.5t-40.5 30t-61 9.5q-43 0 -85 -13.5t-75 -37.5zM201 195q1 -28 12 -49t30.5 -32.5
t46.5 -11.5q26 0 46 10.5t32.5 31.5t17.5 51h-185z" />
    <glyph glyph-name="quoteleft" unicode="&#x2bb;" horiz-adv-x="320" 
d="M66 490v147q0 61 16 100t52 66t101 48l32 -88q-32 -17 -48 -30.5t-22.5 -28t-6.5 -37.5h64v-177h-188z" />
    <glyph glyph-name="quoteleft" unicode="&#x2018;" horiz-adv-x="320" 
d="M66 490v147q0 61 16 100t52 66t101 48l32 -88q-32 -17 -48 -30.5t-22.5 -28t-6.5 -37.5h64v-177h-188z" />
    <glyph glyph-name="quoteright" unicode="&#x2bc;" horiz-adv-x="320" 
d="M254 821v-147q0 -60 -16 -99.5t-51 -66t-102 -48.5l-32 87q36 21 50.5 34t20.5 27.5t6 35.5h-64v177h188z" />
    <glyph glyph-name="quoteright" unicode="&#x2019;" horiz-adv-x="320" 
d="M254 821v-147q0 -60 -16 -99.5t-51 -66t-102 -48.5l-32 87q36 21 50.5 34t20.5 27.5t6 35.5h-64v177h188z" />
    <glyph glyph-name="circumflex" unicode="&#x2c6;" horiz-adv-x="512" 
d="M160 702h192l108 -150h-146l-60 66l-60 -66h-142z" />
    <glyph glyph-name="caron" unicode="&#x2c7;" horiz-adv-x="512" 
d="M352 552h-192l-108 150h146l60 -66l60 66h142z" />
    <glyph glyph-name="breve" unicode="&#x2d8;" horiz-adv-x="476" 
d="M415 720q0 -57 -20 -94.5t-59.5 -56.5t-99.5 -19q-59 0 -98 19t-58 56t-19 95h120q0 -20 6 -32.5t18.5 -18.5t32.5 -6q21 0 33.5 6.5t18 19t5.5 31.5h120z" />
    <glyph glyph-name="dotaccent" unicode="&#x2d9;" horiz-adv-x="286" 
d="M62 552v150h162v-150h-162z" />
    <glyph glyph-name="ring" unicode="&#x2da;" horiz-adv-x="450" 
d="M257 662q0 17 -8 27.5t-24 10.5t-24 -10.5t-8 -27.5t8 -27.5t24 -10.5t24 10.5t8 27.5zM378 663q0 -51 -40.5 -84t-113.5 -33q-74 0 -113 32t-39 83t40.5 84t113.5 33q74 0 113 -32t39 -83z" />
    <glyph glyph-name="ogonek" unicode="&#x2db;" horiz-adv-x="344" 
d="M264 0q-25 -31 -35 -48.5t-10 -33.5q0 -11 7 -16t23 -5h33v-81q-16 -5 -37 -7.5t-42 -2.5q-51 0 -82 9t-45 27t-14 47q0 25 16.5 52.5t49.5 58.5h136z" />
    <glyph glyph-name="tilde" unicode="&#x2dc;" horiz-adv-x="544" 
d="M199 591q-12 0 -17 -7.5t-5 -27.5h-115q0 52 15.5 86.5t47 52t80.5 17.5q27 0 50.5 -6t47 -18t30 -14.5t12.5 -2.5q12 0 17 7.5t5 27.5h115q0 -52 -15.5 -86.5t-47 -52t-80.5 -17.5q-27 0 -50.5 6t-47 18.5t-30.5 14.5t-12 2z" />
    <glyph glyph-name="hungarumlaut" unicode="&#x2dd;" horiz-adv-x="625" 
d="M366 702h202l-141 -150h-145zM111 702h195l-107 -150h-142z" />
    <glyph glyph-name="uni0312" unicode="&#x312;" horiz-adv-x="302" 
d="M62 552v69q0 43 34 66.5t115 23.5h29v-57h-17q-21 0 -27.5 -6.5t-6.5 -17.5h31v-78h-158z" />
    <glyph glyph-name="uni0315" unicode="&#x315;" horiz-adv-x="304" 
d="M84 760h161l-57 -194h-127z" />
    <glyph glyph-name="uni0326" unicode="&#x326;" horiz-adv-x="302" 
d="M240 -42v-62q0 -43 -34 -65.5t-115 -22.5h-29v53h17q21 0 27.5 6.5t6.5 17.5h-31v73h158z" />
    <glyph glyph-name="Delta" unicode="&#x394;" horiz-adv-x="711" 
d="M216 136h264l-95 283q-24 70 -36 119h-3q-12 -49 -36 -119zM675 0h-639v123l207 559h225l207 -559v-123z" />
    <glyph glyph-name="Delta" unicode="&#x2206;" horiz-adv-x="711" 
d="M216 136h264l-95 283q-24 70 -36 119h-3q-12 -49 -36 -119zM675 0h-639v123l207 559h225l207 -559v-123z" />
    <glyph glyph-name="Omega" unicode="&#x3a9;" horiz-adv-x="810" 
d="M50 0v142h146v2q-67 44 -103.5 109t-36.5 139q0 92 44.5 162.5t124.5 108t183 37.5t181.5 -37.5t121.5 -107.5t43 -163q0 -74 -36.5 -139t-103.5 -109v-2h146v-142h-311v191q60 32 90.5 78.5t30.5 105.5q0 49 -20 87.5t-57.5 60t-87.5 21.5t-87.5 -21.5t-57.5 -60
t-20 -87.5q0 -59 30.5 -105.5t90.5 -78.5v-191h-311z" />
    <glyph glyph-name="Omega" unicode="&#x2126;" horiz-adv-x="810" 
d="M50 0v142h146v2q-67 44 -103.5 109t-36.5 139q0 92 44.5 162.5t124.5 108t183 37.5t181.5 -37.5t121.5 -107.5t43 -163q0 -74 -36.5 -139t-103.5 -109v-2h146v-142h-311v191q60 32 90.5 78.5t30.5 105.5q0 49 -20 87.5t-57.5 60t-87.5 21.5t-87.5 -21.5t-57.5 -60
t-20 -87.5q0 -59 30.5 -105.5t90.5 -78.5v-191h-311z" />
    <glyph glyph-name="pi" unicode="&#x3c0;" horiz-adv-x="683" 
d="M640 358h-100l12 -147q2 -30 9.5 -51t20.5 -32t31 -11q23 0 35 6v-125q-37 -14 -86 -14q-58 0 -95.5 21t-56 63t-21.5 107l-8 183h-102l-38 -358h-163l40 358h-80v142h602v-142z" />
    <glyph glyph-name="uni0E3F" unicode="&#xe3f;" 
d="M394 793v-112q88 -8 131 -38t57.5 -62.5t14.5 -68.5q0 -57 -26.5 -93.5t-80.5 -53.5q63 -14 97.5 -55t34.5 -102q0 -96 -54.5 -146.5t-173.5 -60.5v-108h-150v105q-60 0 -182 2v682q46 0 182 2v109h150zM236 136q35 -2 94 -2q60 0 86 18t26 56q0 26 -12 42.5t-35 24.5
t-58 8h-101v-147zM236 414h82q40 0 60.5 7t31.5 22t11 40q0 23 -12 38.5t-35.5 21t-69.5 5.5q-24 0 -68 -2v-132z" />
    <glyph glyph-name="uni1E02" unicode="&#x1e02;" horiz-adv-x="729" 
d="M72 682q57 1 144 1.5t153 0.5q97 0 156 -15t93 -49q43 -43 43 -108q0 -56 -28 -93t-83 -54q63 -14 99.5 -56t36.5 -102q0 -72 -36 -118.5t-108 -68.5t-188 -22q-199 0 -282 2v682zM246 414h112q45 0 69 5.5t36 17.5q9 9 13.5 20.5t4.5 25.5q0 26 -16 42q-14 14 -39 18.5
t-82 4.5q-32 0 -98 -2v-132zM246 136q92 -2 134 -2q45 0 70.5 7.5t38.5 23.5t13 42q0 25 -11.5 42t-35.5 25.5t-68 8.5h-141v-147zM278 734v150h172v-150h-172z" />
    <glyph glyph-name="uni1E03" unicode="&#x1e03;" horiz-adv-x="621" 
d="M222 242q0 -39 12 -68.5t34.5 -45.5t52.5 -16q31 0 53 16.5t33.5 48t11.5 73.5q0 43 -12.5 74.5t-35.5 47.5t-53 16q-29 0 -51 -16t-33.5 -45.5t-11.5 -70.5v-14zM65 702h160v-159q0 -49 -8 -97h2q24 33 64.5 51.5t87.5 18.5q65 0 114.5 -32.5t76.5 -93t27 -139.5
q0 -77 -29 -138t-82.5 -95t-123.5 -34q-49 0 -85.5 18t-58.5 52h-1l-3 -54h-148q5 99 6 145.5t1 106.5v450zM280 556v150h162v-150h-162z" />
    <glyph glyph-name="uni1E0A" unicode="&#x1e0a;" horiz-adv-x="755" 
d="M72 682q129 1 257 1q109 0 178.5 -22.5t118.5 -71.5q45 -45 68.5 -107t23.5 -138t-24.5 -141.5t-68.5 -109.5q-48 -48 -118.5 -71t-168.5 -23q-133 0 -266 1v682zM245 144q56 -2 90 -2q63 0 93 9.5t53 32.5q27 27 40 66.5t13 90.5q0 49 -14.5 89t-40.5 66q-25 25 -57 35
t-97 10q-56 0 -80 -1v-396zM271 734v150h172v-150h-172z" />
    <glyph glyph-name="uni1E0B" unicode="&#x1e0b;" horiz-adv-x="621" 
d="M410 0l-2 60h-1q-24 -36 -65.5 -56t-91.5 -20q-67 0 -116.5 33.5t-75.5 94t-26 137.5t29 138t82.5 95t123.5 34q43 0 77 -14.5t55 -40.5h1q-4 40 -4 82v159h160v-452q0 -61 0.5 -107t2.5 -143h-149zM399 258q0 40 -12.5 69.5t-35 45t-51.5 15.5q-31 0 -53 -16.5
t-33.5 -48t-11.5 -73.5q0 -41 12 -72.5t35 -48.5t54 -17q30 0 52 16.5t33 46t11 69.5v14zM179 556v150h162v-150h-162z" />
    <glyph glyph-name="uni1E1E" unicode="&#x1e1e;" horiz-adv-x="607" 
d="M72 682h501v-137h-327v-158h283v-132h-283v-255h-174v682zM230 734v150h172v-150h-172z" />
    <glyph glyph-name="uni1E1F" unicode="&#x1e1f;" horiz-adv-x="337" 
d="M75 374h-62v126h62v61q-1 49 19.5 84t59.5 53t92 18q29 0 54.5 -3t42.5 -9v-125q-21 4 -37.5 5.5t-31.5 1.5q-13 0 -21.5 -4t-13 -13t-4.5 -24v-45h91v-126h-91v-374h-160v374zM157 754v150h162v-150h-162z" />
    <glyph glyph-name="uni1E40" unicode="&#x1e40;" horiz-adv-x="972" 
d="M72 682h290l90 -281q17 -52 26 -89t12 -64h3q4 31 13 70.5t23 82.5l90 281h281v-682h-174v240q0 103 1.5 176.5t5.5 129.5h-6q-10 -45 -20.5 -85t-26.5 -88l-120 -373h-158l-120 373q-16 48 -26.5 88t-20.5 85h-6q4 -55 5.5 -129.5t1.5 -176.5v-240h-164v682zM400 734
v150h172v-150h-172z" />
    <glyph glyph-name="uni1E41" unicode="&#x1e41;" horiz-adv-x="940" 
d="M725 0v250q0 51 -2 69t-9 32q-9 18 -25.5 27.5t-40.5 9.5q-19 0 -35 -6.5t-26 -16.5q-17 -17 -24.5 -43.5t-7.5 -70.5v-251h-160v250q0 51 -2 69t-9 32q-9 18 -25.5 27.5t-40.5 9.5q-19 0 -35 -6.5t-26 -16.5q-17 -17 -24.5 -43.5t-7.5 -70.5v-251h-160v240v78t-0.5 66.5
t-1 59t-1.5 56.5h148l3 -60h1q25 36 65.5 56t89.5 20q55 0 95 -20.5t63 -59.5q32 41 74.5 60.5t97.5 19.5q90 0 138 -53t48 -155v-308h-160zM389 552v150h162v-150h-162z" />
    <glyph glyph-name="uni1E56" unicode="&#x1e56;" horiz-adv-x="689" 
d="M72 682q144 1 287 2q108 0 176.5 -26t102.5 -78.5t34 -131.5q0 -77 -36 -130t-107.5 -80.5t-176.5 -27.5q-77 0 -106 1v-211h-174v682zM488 446q0 34 -14 54.5t-43.5 30.5t-76.5 10q-74 0 -108 -1v-187q35 -1 111 -1q46 0 75 10.5t42.5 31t13.5 52.5zM267 734v150h172
v-150h-172z" />
    <glyph glyph-name="uni1E57" unicode="&#x1e57;" horiz-adv-x="621" 
d="M65 -180v430q0 62 -1 128.5t-2 121.5h148l3 -60h1q24 36 65.5 56t91.5 20q65 0 114.5 -32.5t76.5 -93t27 -139.5q0 -77 -29 -138t-82.5 -95t-123.5 -34q-43 0 -77 14.5t-55 40.5h-1q4 -40 4 -82v-137h-160zM222 242q0 -40 12.5 -69.5t35 -45t51.5 -15.5q31 0 53 16.5
t33.5 48t11.5 73.5q0 43 -12.5 74.5t-35.5 47.5t-53 16q-29 0 -51 -16t-33.5 -45.5t-11.5 -70.5v-14zM239 556v150h162v-150h-162z" />
    <glyph glyph-name="uni1E60" unicode="&#x1e60;" horiz-adv-x="688" 
d="M102 204q60 -38 125.5 -59t124.5 -21q37 0 62 7.5t38 21.5t13 33t-12.5 32.5t-38 22.5t-119 26t-144.5 44.5t-75 71t-24 104.5q0 62 35 111t100 75.5t151 26.5q60 0 127 -16.5t129 -46.5l-60 -139q-48 29 -100.5 45t-99.5 16q-34 0 -57 -7t-34 -19.5t-11 -28.5
q0 -18 12 -30t36.5 -20.5t118 -24t146 -43.5t77.5 -73.5t25 -109.5t-37 -115t-105 -78.5t-157 -27.5q-75 0 -158.5 23t-150.5 63zM258 734v150h172v-150h-172z" />
    <glyph glyph-name="uni1E61" unicode="&#x1e61;" horiz-adv-x="528" 
d="M83 163q46 -28 93.5 -42.5t94.5 -14.5q34 0 50 8t16 25q0 11 -7.5 19t-24 13.5t-83.5 16.5t-104.5 31.5t-55.5 53t-18 77.5q0 52 27.5 89.5t78.5 57t119 19.5q50 0 103.5 -12t95.5 -33l-51 -111q-32 18 -72 28.5t-78 10.5q-19 0 -32.5 -3.5t-20.5 -10t-7 -16.5
q0 -11 8.5 -19t25 -13t82 -15.5t104 -31t57 -53.5t18.5 -79q0 -53 -27.5 -92.5t-80.5 -60.5t-125 -21q-60 0 -121 16t-120 47zM184 556v150h162v-150h-162z" />
    <glyph glyph-name="uni1E6A" unicode="&#x1e6a;" horiz-adv-x="542" 
d="M182 539h-185v143h548v-143h-185v-539h-178v539zM185 734v150h172v-150h-172z" />
    <glyph glyph-name="uni1E6B" unicode="&#x1e6b;" horiz-adv-x="376" 
d="M18 373v127h61v139l160 29v-168h108v-127h-108v-162q0 -34 1 -49t3.5 -22t7.5 -12q6 -6 14 -8.5t21 -2.5q16 0 32.5 2t28.5 5v-123q-20 -8 -48.5 -12.5t-57.5 -4.5q-60 0 -95.5 18t-51.5 55t-15 97v219h-61zM79 714v150h162v-150h-162z" />
    <glyph glyph-name="Wgrave" unicode="&#x1e80;" horiz-adv-x="1077" 
d="M199 0l-183 682h194l71 -314q8 -36 19 -91t20 -108h4q8 40 20.5 96.5t24.5 101.5l82 315h191l80 -315q21 -83 31 -125t16 -73h4q7 41 17.5 95t22.5 109l70 309h178l-183 -682h-227l-66 252q-30 116 -36 142.5t-9 49.5h-4q-4 -28 -11.5 -61t-32.5 -131l-66 -252h-227z
M638 734h-155l-141 150h213z" />
    <glyph glyph-name="wgrave" unicode="&#x1e81;" horiz-adv-x="836" 
d="M489 0l-42 165q-8 33 -15 67.5t-13 74.5h-2q-6 -40 -13 -74.5t-15 -67.5l-42 -165h-190l-151 500h170l56 -202q10 -36 17.5 -70.5t14.5 -78.5h3q8 54 14.5 87.5t13.5 62.5l51 201h156l51 -202q7 -30 14.5 -67t15.5 -82h3q5 33 12 69t17 80l47 202h168l-151 -500h-190z
M514 552h-145l-141 150h203z" />
    <glyph glyph-name="Wacute" unicode="&#x1e82;" horiz-adv-x="1077" 
d="M199 0l-183 682h194l71 -314q8 -36 19 -91t20 -108h4q8 40 20.5 96.5t24.5 101.5l82 315h191l80 -315q21 -83 31 -125t16 -73h4q7 41 17.5 95t22.5 109l70 309h178l-183 -682h-227l-66 252q-30 116 -36 142.5t-9 49.5h-4q-4 -28 -11.5 -61t-32.5 -131l-66 -252h-227z
M521 884h213l-141 -150h-155z" />
    <glyph glyph-name="wacute" unicode="&#x1e83;" horiz-adv-x="836" 
d="M489 0l-42 165q-8 33 -15 67.5t-13 74.5h-2q-6 -40 -13 -74.5t-15 -67.5l-42 -165h-190l-151 500h170l56 -202q10 -36 17.5 -70.5t14.5 -78.5h3q8 54 14.5 87.5t13.5 62.5l51 201h156l51 -202q7 -30 14.5 -67t15.5 -82h3q5 33 12 69t17 80l47 202h168l-151 -500h-190z
M405 702h203l-141 -150h-145z" />
    <glyph glyph-name="Wdieresis" unicode="&#x1e84;" horiz-adv-x="1077" 
d="M199 0l-183 682h194l71 -314q8 -36 19 -91t20 -108h4q8 40 20.5 96.5t24.5 101.5l82 315h191l80 -315q21 -83 31 -125t16 -73h4q7 41 17.5 95t22.5 109l70 309h178l-183 -682h-227l-66 252q-30 116 -36 142.5t-9 49.5h-4q-4 -28 -11.5 -61t-32.5 -131l-66 -252h-227z
M583 734v150h160v-150h-160zM333 734v150h160v-150h-160z" />
    <glyph glyph-name="wdieresis" unicode="&#x1e85;" horiz-adv-x="836" 
d="M489 0l-42 165q-8 33 -15 67.5t-13 74.5h-2q-6 -40 -13 -74.5t-15 -67.5l-42 -165h-190l-151 500h170l56 -202q10 -36 17.5 -70.5t14.5 -78.5h3q8 54 14.5 87.5t13.5 62.5l51 201h156l51 -202q7 -30 14.5 -67t15.5 -82h3q5 33 12 69t17 80l47 202h168l-151 -500h-190z
M453 552v150h150v-150h-150zM233 552v150h150v-150h-150z" />
    <glyph glyph-name="uni1E9E" unicode="&#x1e9e;" horiz-adv-x="805" 
d="M65 431q0 89 38.5 149t113 90t182.5 30q70 0 153.5 -10t146.5 -26v-131l-140 -138q69 -11 115 -37t68.5 -66t22.5 -92q0 -66 -33.5 -115.5t-98 -76t-156.5 -26.5q-37 0 -82 7t-77 17l25 136q27 -8 65.5 -13t69.5 -5q33 0 56 7t35 22t12 38q0 26 -17 41t-55 22.5t-100 7.5
h-60v132l161 157q-25 4 -55 6t-58 2q-56 0 -90.5 -14.5t-51 -43t-16.5 -71.5v-430h-174v431z" />
    <glyph glyph-name="Ygrave" unicode="&#x1ef2;" horiz-adv-x="658" 
d="M242 0v271l-242 411h209l125 -238l121 238h203l-242 -411v-271h-174zM430 734h-155l-141 150h213z" />
    <glyph glyph-name="ygrave" unicode="&#x1ef3;" horiz-adv-x="538" 
d="M126 -180l79 180h-34l-174 500h179l58 -195q13 -46 23 -86t15 -71h3q5 27 14 64t23 93l51 195h178l-236 -680h-179zM365 552h-145l-141 150h203z" />
    <glyph glyph-name="endash" unicode="&#x2013;" 
d="M605 212h-560v144h560v-144z" />
    <glyph glyph-name="emdash" unicode="&#x2014;" horiz-adv-x="984" 
d="M947 212h-910v144h910v-144z" />
    <glyph glyph-name="emdash" unicode="&#x2015;" horiz-adv-x="984" 
d="M947 212h-910v144h910v-144z" />
    <glyph glyph-name="quotesinglbase" unicode="&#x201a;" horiz-adv-x="320" 
d="M254 177v-147q0 -60 -16 -99.5t-51 -66t-102 -48.5l-32 87q36 21 50.5 34t20.5 27.5t6 35.5h-64v177h188z" />
    <glyph glyph-name="quotedblleft" unicode="&#x201c;" horiz-adv-x="553" 
d="M66 490v147q0 59 15 99.5t48.5 68.5t90.5 46l32 -88q-33 -18 -49 -31.5t-22 -28t-6 -36.5h64v-177h-173zM314 490v147q0 62 16 102.5t49.5 67.5t88.5 44l32 -88q-33 -18 -49 -31.5t-22 -28t-6 -36.5h64v-177h-173z" />
    <glyph glyph-name="quotedblright" unicode="&#x201d;" horiz-adv-x="553" 
d="M487 821v-147q0 -58 -15.5 -99.5t-49 -69.5t-89.5 -45l-32 88q33 18 48.5 31.5t22 28t6.5 36.5h-64v177h173zM239 821v-147q0 -58 -15.5 -99.5t-49 -69.5t-89.5 -45l-32 88q33 18 48.5 31.5t22 28t6.5 36.5h-64v177h173z" />
    <glyph glyph-name="quotedblbase" unicode="&#x201e;" horiz-adv-x="553" 
d="M487 177v-147q0 -58 -15.5 -99.5t-49 -69.5t-89.5 -45l-32 88q33 18 48.5 31.5t22 28t6.5 36.5h-64v177h173zM239 177v-147q0 -58 -15.5 -99.5t-49 -69.5t-89.5 -45l-32 88q33 18 48.5 31.5t22 28t6.5 36.5h-64v177h173z" />
    <glyph glyph-name="dagger" unicode="&#x2020;" horiz-adv-x="556" 
d="M198 100v408h-160v132h160v166h160v-166h160v-132h-160v-408h-160z" />
    <glyph glyph-name="daggerdbl" unicode="&#x2021;" horiz-adv-x="556" 
d="M518 217h-160v-167h-160v167h-160v132h160v159h-160v132h160v166h160v-166h160v-132h-160v-159h160v-132z" />
    <glyph glyph-name="bullet" unicode="&#x2022;" horiz-adv-x="434" 
d="M379 323q0 -44 -22.5 -82t-60 -59.5t-80.5 -21.5q-44 0 -81.5 22t-58.5 59t-21 80q0 44 22.5 82t60 59.5t80.5 21.5q44 0 81.5 -22t58.5 -59t21 -80z" />
    <glyph glyph-name="ellipsis" unicode="&#x2026;" horiz-adv-x="992" 
d="M738 0v184h188v-184h-188zM402 0v184h188v-184h-188zM66 0v184h188v-184h-188z" />
    <glyph glyph-name="perthousand" unicode="&#x2030;" horiz-adv-x="1652" 
d="M499 560q0 -110 -61.5 -172t-169.5 -62t-165.5 60t-57.5 170q0 109 61 171.5t170 62.5q108 0 165.5 -60t57.5 -170zM344 558q0 52 -18.5 79t-53.5 27t-53.5 -27t-18.5 -79t18.5 -79t53.5 -27t53.5 27t18.5 79zM927 778l-542 -874h-174l542 874h174zM1093 126
q0 -110 -61.5 -172t-169.5 -62t-165.5 60t-57.5 170q0 109 61 171.5t170 62.5q108 0 165.5 -60t57.5 -170zM938 124q0 52 -18.5 79t-53.5 27t-53.5 -27t-18.5 -79t18.5 -79t53.5 -27t53.5 27t18.5 79zM1607 126q0 -110 -61.5 -172t-169.5 -62t-165.5 60t-57.5 170
q0 109 61 171.5t170 62.5q108 0 165.5 -60t57.5 -170zM1452 124q0 52 -18.5 79t-53.5 27t-53.5 -27t-18.5 -79t18.5 -79t53.5 -27t53.5 27t18.5 79z" />
    <glyph glyph-name="guilsinglleft" unicode="&#x2039;" horiz-adv-x="416" 
d="M209 30l-154 254l156 253l133 -61l-97 -191l96 -191z" />
    <glyph glyph-name="guilsinglright" unicode="&#x203a;" horiz-adv-x="416" 
d="M207 537l154 -254l-156 -253l-133 61l97 191l-96 191z" />
    <glyph glyph-name="fraction" unicode="&#x2044;" horiz-adv-x="416" 
d="M571 778l-542 -874h-174l542 874h174z" />
    <glyph glyph-name="zero.superior" unicode="&#x2070;" horiz-adv-x="544" 
d="M499 560q0 -110 -61.5 -172t-169.5 -62t-165.5 60t-57.5 170q0 109 61 171.5t170 62.5q108 0 165.5 -60t57.5 -170zM344 558q0 52 -18.5 79t-53.5 27t-53.5 -27t-18.5 -79t18.5 -79t53.5 -27t53.5 27t18.5 79z" />
    <glyph glyph-name="four.superior" unicode="&#x2074;" horiz-adv-x="545" 
d="M179 533q84 2 102 2v76q0 11 1 57h-4zM281 338v77h-245v126l174 237h231v-242h68v-121h-68v-77h-160z" />
    <glyph glyph-name="uni2081" unicode="&#x2081;" horiz-adv-x="390" 
d="M154 -96v279q-16 -14 -46.5 -21t-70.5 -7v122q50 0 86.5 18.5t46.5 48.5h146v-440h-162z" />
    <glyph glyph-name="uni2082" unicode="&#x2082;" horiz-adv-x="543" 
d="M480 -96h-418v137q78 36 126 60t74.5 41.5t35.5 31t9 30.5q0 18 -12.5 28.5t-33.5 10.5q-22 0 -34 -10.5t-12 -30.5q0 -19 6 -37h-151q-6 17 -6 36q0 71 56 113t148 42q101 0 155 -38.5t54 -111.5q0 -27 -11.5 -51.5t-36 -46.5t-64.5 -41.5t-97 -37.5v-5q78 2 110 2h102
v-122z" />
    <glyph glyph-name="uni2083" unicode="&#x2083;" horiz-adv-x="543" 
d="M196 54q4 -58 66 -58q22 0 34.5 10t12.5 29q0 23 -17 33.5t-51 10.5h-47v94h41q23 0 36.5 3.5t21.5 11.5q11 11 11 28t-11.5 27t-32.5 10q-27 0 -43 -15.5t-19 -42.5l-144 20q10 66 65.5 103.5t145.5 37.5q100 0 154 -32.5t54 -93.5q0 -34 -23 -59.5t-61 -34.5v-3
q95 -20 95 -105q0 -63 -59.5 -99.5t-162.5 -36.5q-100 0 -153 35t-61 107z" />
    <glyph glyph-name="uni2084" unicode="&#x2084;" horiz-adv-x="545" 
d="M179 99q84 2 102 2v76q0 11 1 57h-4zM281 -96v77h-245v126l174 237h231v-242h68v-121h-68v-77h-160z" />
    <glyph glyph-name="Euro" unicode="&#x20ac;" horiz-adv-x="720" 
d="M473 201h-173q20 -36 51.5 -54t75.5 -18q42 0 81 16.5t65 44.5l98 -106q-43 -47 -108.5 -74.5t-137.5 -27.5q-118 0 -200 57t-114 162h-88v112h70q-1 14 -1 27q0 14 1 27h-70v112h88q33 105 118.5 163t200.5 58q66 0 124.5 -22t103.5 -64l-94 -116q-27 28 -62.5 42.5
t-74.5 14.5q-43 0 -75 -19.5t-52 -56.5h173v-112h-200v-25q0 -14 1 -29h199v-112z" />
    <glyph glyph-name="uni20AE" unicode="&#x20ae;" 
d="M573 477v-112l-161 -35v-54l161 35v-112l-161 -35v-164h-174v126l-161 -35v112l161 35v54l-161 -35v112l161 35v135h-217v143h608v-143h-217v-97z" />
    <glyph glyph-name="uni20B4" unicode="&#x20b4;" 
d="M624 486v-112h-141q-19 -18 -43 -35t-27 -19h211v-112h-342q-2 -5 -3 -10.5t-1 -11.5q0 -38 20 -55t64 -17q37 0 74 13.5t72 40.5l57 -118q-41 -31 -103.5 -49.5t-122.5 -18.5q-117 0 -179 50.5t-62 144.5q0 8 0.5 15.5t2.5 15.5h-75v112h149q15 13 33 26t40 28h-222v112
h344q1 4 1.5 7.5t0.5 6.5q0 34 -19.5 51.5t-58.5 17.5q-32 0 -64 -11.5t-61 -33.5l-56 122q43 26 97 40t111 14q110 0 170.5 -50.5t60.5 -140.5q0 -5 -0.5 -10t-1.5 -13h74z" />
    <glyph glyph-name="uni20B8" unicode="&#x20b8;" 
d="M619 364h-207v-364h-174v364h-207v132h588v-132zM619 682v-132h-588v132h588z" />
    <glyph glyph-name="uni20BA" unicode="&#x20ba;" 
d="M500 573v-112l-196 -50v-54l196 50v-112l-196 -50v-103q14 -1 25 -1q73 0 136 16t116 47v-156q-47 -27 -114.5 -41t-149.5 -14q-84 0 -187 7v201l-91 -23v113l91 23v52l-91 -23v114l91 23v202h174v-159z" />
    <glyph glyph-name="uni20BD" unicode="&#x20bd;" 
d="M34 94v112h76v60h-76v116h76v300q62 1 246 2q93 0 155 -23.5t93 -70t31 -114.5q0 -70 -32.5 -117t-96 -70t-157.5 -23h-65v-60h203v-112h-203v-94h-174v94h-76zM451 474q0 28 -11.5 48.5t-34 31t-54.5 10.5q-44 0 -67 -1v-181h67q31 0 53.5 11t34.5 31.5t12 49.5z" />
    <glyph glyph-name="afii61289" unicode="&#x2113;" horiz-adv-x="529" 
d="M279 -16q-71 0 -117.5 33t-69.5 99l-38 -14l-49 124l60 23q-3 35 -3 109q0 124 23.5 203t72 117t129.5 38q63 0 105.5 -24t63.5 -71t21 -116q0 -120 -57.5 -198t-181.5 -135q8 -28 23 -40.5t42 -12.5q26 0 50 9t48 28l60 -105q-36 -33 -83 -50t-99 -17v0zM314 501
q0 45 -8 63.5t-27 18.5q-22 0 -33 -23t-16.5 -71t-5.5 -124v-46q47 31 68.5 73.5t21.5 108.5z" />
    <glyph glyph-name="uni2116" unicode="&#x2116;" horiz-adv-x="1236" 
d="M977 313q-98 0 -155.5 52.5t-57.5 140.5q0 84 61.5 139t155.5 55q98 0 155.5 -52t57.5 -140q0 -84 -61.5 -139.5t-155.5 -55.5zM979 419q34 0 53 23t19 64q0 42 -19 65t-53 23q-35 0 -53.5 -22.5t-18.5 -64.5t19 -65t53 -23zM785 157v116h388v-116h-388zM490 0l-194 341
q-39 70 -67 139h-4q11 -125 11 -278v-202h-164v682h230l180 -316q39 -70 67 -139h4q-5 56 -8 132.5t-3 145.5v177h164v-682h-216z" />
    <glyph glyph-name="trademark" unicode="&#x2122;" horiz-adv-x="1044" 
d="M407 682h215l51 -158q5 -16 11.5 -40.5t12.5 -51.5h3q6 26 13 50.5t13 41.5l50 158h205v-370h-121v130v101t1 43h-4q-8 -29 -17.5 -58.5t-17.5 -52.5l-58 -163h-140l-58 164q-7 18 -15.5 43.5t-21.5 66.5h-4q1 -18 1 -41v-103v-130h-119v370zM123 576h-108v106h348v-106
h-108v-264h-132v264z" />
    <glyph glyph-name="estimated" unicode="&#x212e;" horiz-adv-x="946" 
d="M470 -18q-96 0 -176 25t-137 71.5t-88.5 112.5t-31.5 148q0 81 32.5 148t90.5 114t138.5 73t176.5 26t176 -25t137.5 -71.5t89 -112.5t31.5 -148q0 -15 -1 -31t-4 -30h-607v-78q0 -8 1 -13.5t6 -9.5q24 -20 65 -35.5t107 -15.5q62 0 110.5 19.5t78.5 51.5h231
q-23 -50 -64.5 -90.5t-96.5 -69t-122.5 -44t-142.5 -15.5zM649 412v66q0 8 -1 13.5t-6 9.5q-26 22 -68.5 36.5t-100.5 14.5t-100 -15t-69 -36q-5 -4 -6 -9.5t-1 -13.5v-66h352z" />
    <glyph glyph-name="partialdiff" unicode="&#x2202;" horiz-adv-x="635" 
d="M298 -16q-82 0 -142.5 32t-92 92t-31.5 140q0 78 31 137t88.5 91t134.5 32q45 0 80.5 -14.5t60.5 -43.5h1q-5 10 -13.5 30t-14 30t-11.5 19t-14 17q-20 20 -43 28.5t-58 8.5q-68 0 -125 -18v136q56 15 134 15q102 0 169 -41t100 -124.5t33 -212.5q0 -116 -32 -195
t-96 -119t-159 -40zM302 117q30 0 52.5 15t34.5 44t12 70t-12.5 70.5t-35 44t-52.5 14.5t-52.5 -15t-34.5 -44t-12 -70q0 -40 11.5 -69t34 -44.5t54.5 -15.5z" />
    <glyph glyph-name="product" unicode="&#x220f;" horiz-adv-x="870" 
d="M574 -180v811h-278v-811h-174v811h-120v147h866v-147h-120v-811h-174z" />
    <glyph glyph-name="summation" unicode="&#x2211;" horiz-adv-x="708" 
d="M47 -39l246 345l-236 332v140h574v-143q-88 0 -177.5 1t-168.5 2l230 -321l-256 -356q80 1 190.5 2t204.5 1v-144h-607v141z" />
    <glyph glyph-name="minus" unicode="&#x2212;" 
d="M605 255h-560v134h560v-134z" />
    <glyph glyph-name="radical" unicode="&#x221a;" horiz-adv-x="718" 
d="M223 -96l-102 304h-104v136h243l26 -88q18 -61 28.5 -102t17.5 -82h4q7 35 18.5 80t30.5 106l155 520h186l-292 -874h-211z" />
    <glyph glyph-name="infinity" unicode="&#x221e;" horiz-adv-x="1038" 
d="M290 228q22 0 43.5 9t44.5 27.5t53 52.5q-31 39 -53 59.5t-43.5 30t-44.5 9.5q-37 0 -57.5 -25.5t-20.5 -68.5q0 -44 20.5 -69t57.5 -25zM748 416q-22 0 -44 -9t-45 -28t-52 -52q30 -39 52.5 -59.5t44.5 -30t44 -9.5q37 0 57.5 25.5t20.5 68.5q0 44 -20.5 69t-57.5 25z
M274 95q-104 0 -168 62t-64 163q0 104 66.5 166.5t177.5 62.5q69 0 127 -29.5t114 -92.5q59 64 116 93t121 29q104 0 168 -61.5t64 -161.5q0 -106 -67 -168.5t-179 -62.5q-68 0 -125.5 28.5t-114.5 92.5q-60 -64 -116.5 -92.5t-119.5 -28.5z" />
    <glyph glyph-name="integral" unicode="&#x222b;" horiz-adv-x="390" 
d="M104 -192q-27 0 -55.5 3t-46.5 8l10 127q13 -3 31 -5.5t33 -2.5q20 0 29.5 10t9.5 31v656q0 73 44.5 114t126.5 41q30 0 56.5 -3t45.5 -9l-10 -126q-13 4 -31.5 6t-32.5 2q-20 0 -29.5 -10t-9.5 -31v-656q1 -73 -44 -114t-127 -41z" />
    <glyph glyph-name="approxequal" unicode="&#x2248;" 
d="M427 109q-28 0 -54 6.5t-64.5 25t-55.5 23t-33 4.5q-24 0 -47 -12.5t-49 -39.5l-86 88q37 49 86 77.5t99 28.5q28 0 54 -6.5t64.5 -25t55.5 -23t33 -4.5q23 0 46 12.5t51 39.5l85 -88q-37 -49 -86 -77.5t-99 -28.5zM427 334q-28 0 -54 6.5t-64.5 25t-55.5 23t-33 4.5
q-24 0 -47 -12.5t-49 -39.5l-86 88q37 49 86 77.5t99 28.5q28 0 54 -6.5t64.5 -25t55.5 -23t33 -4.5q23 0 46 12.5t51 39.5l85 -88q-37 -49 -86 -77.5t-99 -28.5z" />
    <glyph glyph-name="notequal" unicode="&#x2260;" 
d="M101 21l65 129h-111v134h175l37 76h-212v134h276l57 121h155l-60 -121h112v-134h-177l-36 -76h213v-134h-277l-61 -129h-156z" />
    <glyph glyph-name="lessequal" unicode="&#x2264;" 
d="M595 157l-540 200v150l540 201v-161q-168 -59 -241.5 -82.5t-115.5 -30.5v-2q42 -7 116 -30.5t241 -82.5v-162zM595 0h-540v134h540v-134z" />
    <glyph glyph-name="greaterequal" unicode="&#x2265;" 
d="M55 708l540 -201v-150l-540 -200v162q168 59 241.5 82.5t115.5 30.5v2q-42 7 -116 30.5t-241 82.5v161zM595 0h-540v134h540v-134z" />
    <glyph glyph-name="lozenge" unicode="&#x25ca;" horiz-adv-x="664" 
d="M336 153q11 26 37.5 71t70.5 114q-42 65 -70.5 113t-43.5 78h-2q-11 -26 -37.5 -71t-70.5 -114q42 -65 70.5 -113t43.5 -78h2zM232 0l-213 341l213 341h200l213 -341l-213 -341h-200z" />
    <glyph glyph-name="uniF8FF" unicode="&#xf8ff;" horiz-adv-x="828" 
d="M528 304h-152v76h152v76h-152v76h228v-380h-76v152zM224 532h76v-304h152v-76h-228v380zM72 684h684v-684h-684v684zM148 76h532v532h-532v-532z" />
    <glyph glyph-name="fi" unicode="&#xfb01;" horiz-adv-x="635" 
d="M75 374h-62v126h62v61q-1 49 19.5 84t59.5 53t92 18q29 0 54.5 -3t42.5 -9v-125q-21 4 -37.5 5.5t-31.5 1.5q-13 0 -21.5 -4t-13 -13t-4.5 -24v-45h91v-126h-91v-374h-160v374zM409 552v150h162v-150h-162v0zM410 0v500h160v-500h-160z" />
    <glyph glyph-name="fl" unicode="&#xfb02;" horiz-adv-x="635" 
d="M410 702h160v-702h-160v702zM75 374h-62v126h62v61q-1 49 19.5 84t59.5 53t92 18q29 0 54.5 -3t42.5 -9v-125q-21 4 -37.5 5.5t-31.5 1.5q-13 0 -21.5 -4t-13 -13t-4.5 -24v-45h91v-126h-91v-374h-160v374z" />
    <glyph glyph-name="uni04D8" horiz-adv-x="729" 
d="M57 532q52 85 126 126.5t172 41.5q97 0 174.5 -45t120 -126.5t42.5 -186.5q0 -102 -43 -184.5t-121 -129t-174 -46.5q-103 0 -175.5 40.5t-110.5 119.5t-38 189q0 36 6 70h467q-8 47 -29 79.5t-53.5 49t-72.5 16.5q-51 0 -87 -21.5t-60 -65.5zM356 138q40 0 70.5 16.5
t49.5 47.5t27 75h-289q0 -41 17 -73t49 -49t76 -17z" />
    <glyph glyph-name="uni04D9" horiz-adv-x="591" 
d="M49 447q50 33 109.5 51t119.5 18q89 0 152 -30.5t96 -90t33 -144.5q0 -82 -34 -142.5t-95.5 -92.5t-141.5 -32q-81 0 -139 31t-87.5 89.5t-29.5 140.5q0 33 5 56h350q-6 33 -21.5 53.5t-40.5 30t-61 9.5q-43 0 -85 -13.5t-75 -37.5zM201 195q1 -28 12 -49t30.5 -32.5
t46.5 -11.5q26 0 46 10.5t32.5 31.5t17.5 51h-185z" />
    <glyph glyph-name="grave.cap" horiz-adv-x="392" 
d="M344 734h-155l-141 150h213z" />
    <glyph glyph-name="acute.cap" horiz-adv-x="404" 
d="M137 884h213l-141 -150h-155z" />
    <glyph glyph-name="circumflex.cap" horiz-adv-x="532" 
d="M160 887h212l108 -150h-156l-60 66l-60 -66h-152z" />
    <glyph glyph-name="caron.cap" horiz-adv-x="532" 
d="M372 737h-212l-108 150h156l60 -66l60 66h152z" />
    <glyph glyph-name="tilde.narrow" horiz-adv-x="484" 
d="M183 595q-10 0 -14.5 -9.5t-4.5 -29.5h-102q0 57 13.5 92t40.5 51.5t69 16.5q24 0 44 -7t38 -22t23.5 -17.5t10.5 -2.5q10 0 14.5 9.5t4.5 29.5h102q0 -57 -13.5 -92t-40.5 -51.5t-69 -16.5q-24 0 -44 7t-38 22t-23.5 17.5t-10.5 2.5z" />
    <glyph glyph-name="tilde.cap" horiz-adv-x="570" 
d="M209 769q-12 0 -17 -8t-5 -27h-126q0 51 17 86.5t51 54t85 18.5q29 0 54.5 -6.5t49.5 -19.5t30.5 -15.5t12.5 -2.5q12 0 17 8t5 27h126q0 -51 -17 -86.5t-51 -54t-85 -18.5q-29 0 -54.5 6.5t-49.5 19.5t-30.5 15.5t-12.5 2.5z" />
    <glyph glyph-name="dieresis.narrow" horiz-adv-x="444" 
d="M242 552v150h140v-150h-140zM62 552v150h140v-150h-140z" />
    <glyph glyph-name="dieresis.cap" horiz-adv-x="534" 
d="M312 734v150h160v-150h-160zM62 734v150h160v-150h-160z" />
    <glyph glyph-name="macron.cap" horiz-adv-x="490" 
d="M428 741h-366v132h366v-132z" />
    <glyph glyph-name="breve.cap" horiz-adv-x="502" 
d="M441 908q0 -60 -22 -99.5t-64.5 -58.5t-105.5 -19t-104.5 19t-62.5 58.5t-21 99.5h129q0 -21 6 -33.5t19.5 -19t35.5 -6.5t35.5 6.5t19.5 19t6 33.5h129z" />
    <glyph glyph-name="ring.cap" horiz-adv-x="474" 
d="M269 834q0 17 -8 27.5t-24 10.5t-24 -10.5t-8 -27.5t8 -27.5t24 -10.5t24 10.5t8 27.5zM390 835q0 -51 -40.5 -84t-113.5 -33q-74 0 -113 32t-39 83t40.5 84t113.5 33q74 0 113 -32t39 -83z" />
    <glyph glyph-name="ringacute" horiz-adv-x="461" 
d="M220 926h179l-124 -133h-128zM247 653q0 15 -7.5 25t-22.5 10t-22.5 -10t-7.5 -25t7.5 -25t22.5 -10t22.5 10t7.5 25zM363 654q0 -46 -38.5 -77t-108.5 -31q-71 0 -108 29.5t-37 76.5q0 46 38.5 77t108.5 31q71 0 108 -29.5t37 -76.5z" />
    <glyph glyph-name="ringacute.cap" horiz-adv-x="487" 
d="M230 980h195l-127 -120h-141zM270 721q0 17 -8 27.5t-24 10.5t-24 -10.5t-8 -27.5t8 -27.5t24 -10.5t24 10.5t8 27.5zM391 722q0 -51 -40.5 -84t-113.5 -33q-74 0 -113 32t-39 83t40.5 84t113.5 33q74 0 113 -32t39 -83z" />
    <glyph glyph-name="hungarumlaut.cap" horiz-adv-x="654" 
d="M384 884h213l-141 -150h-155zM111 884h200l-102 -150h-152z" />
    <glyph glyph-name="dotaccent.cap" horiz-adv-x="296" 
d="M62 734v150h172v-150h-172z" />
    <glyph glyph-name="uni0326.cap" horiz-adv-x="312" 
d="M250 -42v-63q0 -47 -38.5 -68t-120.5 -21h-29v54h17q19 0 26.5 6t7.5 18h-31v74h168z" />
    <glyph glyph-name="cedilla.cap" horiz-adv-x="340" 
d="M61 -180q46 40 46 65q0 10 -8.5 19.5t-26.5 19.5l48 84h133l-23 -40q24 -19 34 -35t10 -36q0 -21 -15 -41.5t-39 -35.5h-159z" />
    <glyph glyph-name="breve.cyr" horiz-adv-x="502" 
d="M440 720q-8 -87 -54.5 -128.5t-134.5 -41.5q-92 0 -136.5 40t-52.5 130h134q3 -39 17 -58t40 -19t40 19.5t17 57.5h130z" />
    <glyph glyph-name="breve.cyr.cap" horiz-adv-x="528" 
d="M466 908q-6 -90 -56.5 -133.5t-148.5 -43.5q-97 0 -145 43t-54 134h135q7 -42 23.5 -62.5t43.5 -20.5q28 0 44.5 21t22.5 62h135z" />
    <glyph glyph-name="breve.bul" horiz-adv-x="516" 
d="M454 602q-80 -36 -196 -36t-196 36l37 109q72 -24 159 -24t159 24z" />
    <glyph glyph-name="breve.bul.cap" horiz-adv-x="538" 
d="M476 785q-71 -44 -205 -44q-136 0 -209 45l49 106q84 -30 161 -30q92 0 162 30z" />
    <glyph glyph-name="guilsinglleft.cap" horiz-adv-x="436" 
d="M219 87l-154 254l156 253l133 -61l-97 -191l96 -191z" />
    <glyph glyph-name="guilsinglright.cap" horiz-adv-x="436" 
d="M217 594l154 -254l-156 -253l-133 61l97 191l-96 191z" />
    <glyph glyph-name="guillemotleft.cap" horiz-adv-x="704" 
d="M487 103l-142 238l144 238l132 -62l-84 -175l84 -175zM219 87l-154 254l156 253l133 -61l-97 -191l96 -191z" />
    <glyph glyph-name="guillemotright.cap" horiz-adv-x="704" 
d="M217 579l142 -238l-144 -238l-132 62l84 175l-84 175zM485 595l154 -254l-156 -253l-133 61l97 191l-96 191z" />
    <glyph glyph-name="slash.cap" horiz-adv-x="485" 
d="M10 -18l293 718h172l-293 -718h-172z" />
    <glyph glyph-name="backslash.cap" horiz-adv-x="485" 
d="M302 -18l-293 718h173l293 -718h-173z" />
    <glyph glyph-name="hyphen.cap" horiz-adv-x="396" 
d="M50 263v156h296v-156h-296z" />
    <glyph glyph-name="endash.cap" horiz-adv-x="670" 
d="M615 269h-560v144h560v-144z" />
    <glyph glyph-name="emdash.cap" horiz-adv-x="1004" 
d="M957 269h-910v144h910v-144z" />
    <glyph glyph-name="bullet.cap" horiz-adv-x="454" 
d="M389 353q0 -44 -22.5 -82t-60 -59.5t-80.5 -21.5q-44 0 -81.5 22t-58.5 59t-21 80q0 44 22.5 82t60 59.5t80.5 21.5q44 0 81.5 -22t58.5 -59t21 -80z" />
    <glyph glyph-name="periodcentered.cap" horiz-adv-x="340" 
d="M76 260v184h188v-184h-188z" />
    <glyph glyph-name="zero.oldstyle" horiz-adv-x="670" 
d="M624 284q0 -94 -34.5 -162t-101 -104t-158.5 -36q-93 0 -156.5 34.5t-95.5 100.5t-32 161q0 94 34.5 162t101 104t158.5 36q93 0 156.5 -34.5t95.5 -100.5t32 -161zM443 280q0 75 -27.5 115t-80.5 40t-80.5 -39.5t-27.5 -113.5q0 -75 27.5 -115t80.5 -40t80.5 39.5
t27.5 113.5z" />
    <glyph glyph-name="one.oldstyle" horiz-adv-x="462" 
d="M202 366q-35 -19 -72 -27t-93 -8v141q82 0 126 20.5t65 69.5h157v-562h-183v366z" />
    <glyph glyph-name="two.oldstyle" horiz-adv-x="640" 
d="M595 0h-544v170q79 34 135 61t93.5 48.5t59 38.5t33 30.5t14.5 24t3 20.5q0 17 -7.5 28.5t-24.5 17.5t-43 6q-27 0 -44 -7t-25.5 -20.5t-8.5 -32.5q0 -14 3 -26.5t8 -20.5h-172q-6 9 -9.5 24t-3.5 31q0 59 30.5 101t88.5 64t139 22q82 0 140.5 -21.5t88.5 -62t30 -94.5
q0 -31 -10.5 -65.5t-42 -68t-88 -65.5t-148.5 -58v-5q51 5 129.5 7.5t175.5 2.5v-150z" />
    <glyph glyph-name="three.oldstyle" horiz-adv-x="646" 
d="M202 113q7 -60 36.5 -88.5t83.5 -28.5q44 0 68.5 21t24.5 61q0 44 -30.5 63.5t-94.5 18.5h-54v132h55q32 -1 55 6t38 22q10 10 15 23.5t5 30.5q0 34 -24.5 53t-64.5 19q-49 0 -77 -27t-34 -82l-170 23q17 106 91 163t191 57q84 0 144.5 -22.5t92.5 -65t32 -99.5
q0 -58 -31 -100t-83 -58v-3q64 -12 98 -50.5t34 -100.5q0 -69 -33 -118.5t-97.5 -75t-156.5 -25.5q-135 0 -206 54t-84 167z" />
    <glyph glyph-name="four.oldstyle" 
d="M352 -120v153h-328v133l243 396h259v-390h100v-139h-100v-153h-174zM186 169q83 3 166 3v143q0 43 2 119h-7z" />
    <glyph glyph-name="five.oldstyle" horiz-adv-x="634" 
d="M554 421h-322l-17 -127h3q28 26 63.5 38t81.5 12q72 0 125.5 -28t81.5 -79.5t28 -122.5q0 -79 -36 -136t-102 -86.5t-154 -29.5q-110 0 -180 47.5t-92 136.5l164 43q13 -44 42 -68t69 -24q32 0 55.5 13t36.5 37.5t13 58.5q0 31 -14 55.5t-38 37.5t-53 13q-33 0 -56 -13.5
t-41 -43.5h-156l40 407h458v-141z" />
    <glyph glyph-name="six.oldstyle" horiz-adv-x="658" 
d="M452 492q-17 41 -40 57.5t-64 16.5q-58 0 -86.5 -48t-36.5 -155q25 36 66 54t99 18q111 0 169.5 -55t58.5 -158q0 -108 -78 -174t-204 -66q-143 0 -217.5 85.5t-74.5 250.5q0 186 78.5 284t228.5 98q108 0 166 -35.5t93 -121.5zM345 306q-46 0 -71.5 -25.5t-25.5 -68.5
q0 -44 24.5 -70t64.5 -26q49 0 73 25.5t24 76.5q0 41 -24 64.5t-65 23.5z" />
    <glyph glyph-name="seven.oldstyle" horiz-adv-x="630" 
d="M156 -120q6 92 34 181t78.5 177t126.5 180l-355 -1v145h550v-141q-86 -102 -138.5 -192t-77.5 -175.5t-25 -173.5h-193z" />
    <glyph glyph-name="eight.oldstyle" horiz-adv-x="670" 
d="M432 489q0 34 -26.5 55.5t-71.5 21.5t-71 -21.5t-26 -55.5t26 -55.5t71 -21.5t71.5 21.5t26.5 55.5zM444 198q0 38 -29 60t-81 22q-51 0 -79.5 -22t-28.5 -60t29 -60t80 -22t80 22t29 60zM628 198q0 -69 -35 -117.5t-102 -73.5t-160 -25t-158 23t-98 69t-33 113
q0 56 31.5 99t87.5 64v3q-47 16 -75.5 55t-28.5 89q0 61 34 107t98 71t148 25q87 0 149 -24t94 -68.5t32 -106.5q0 -46 -28 -86t-75 -59v-3q58 -19 88.5 -58.5t30.5 -96.5z" />
    <glyph glyph-name="nine.oldstyle" horiz-adv-x="658" 
d="M198 73q18 -42 44 -59.5t68 -17.5q58 0 86.5 48t36.5 155q-23 -36 -64.5 -54t-100.5 -18q-111 0 -169.5 55t-58.5 158q0 108 78 174t204 66q143 0 217.5 -85.5t74.5 -250.5q0 -186 -78.5 -284t-228.5 -98q-106 0 -169.5 38.5t-97.5 121.5zM313 256q46 0 71.5 25.5
t25.5 68.5q0 44 -24.5 70t-64.5 26q-49 0 -73 -25.5t-24 -76.5q0 -41 24 -64.5t65 -23.5z" />
    <glyph glyph-name="zero.LinTab" 
d="M614 344q0 -114 -33.5 -195.5t-99.5 -124t-161 -42.5q-94 0 -157.5 41t-95 120.5t-31.5 194.5q0 114 33.5 195.5t99.5 124t161 42.5q94 0 157.5 -41t95 -120.5t31.5 -194.5zM430 340q0 79 -10.5 124t-33.5 66.5t-61 21.5t-61 -21.5t-33.5 -66.5t-10.5 -122
q0 -79 10.5 -124t33.5 -66.5t61 -21.5t61 21.5t33.5 66.5t10.5 122z" />
    <glyph glyph-name="one.LinTab" 
d="M268 0v459q-37 -23 -78.5 -33t-106.5 -10v146q56 0 95.5 12t67.5 38t48 70h157v-682h-183z" />
    <glyph glyph-name="one.LinTab.001" 
d="M63 0v147h185v312q-37 -23 -78.5 -33t-106.5 -10v146q56 0 95.5 12t67.5 38t48 70h157v-535h168v-147h-536z" />
    <glyph glyph-name="two.LinTab" 
d="M611 0h-571v149q73 48 129.5 86.5t97.5 69t68.5 55.5t44.5 45.5t24 38.5t7 35q0 25 -10.5 43.5t-31.5 28.5t-51 10q-29 0 -50 -11.5t-32 -31.5t-11 -44q0 -20 2.5 -38t6.5 -30h-171q-5 12 -8.5 30.5t-3.5 36.5q0 69 32.5 120t95 79t145.5 28q84 0 145.5 -26.5t93.5 -74.5
t32 -112q0 -26 -5.5 -50.5t-19 -49.5t-36 -51t-56.5 -54t-80 -59t-106 -66v-5q82 2 147 2h172v-154z" />
    <glyph glyph-name="three.LinTab" 
d="M206 233q9 -61 39.5 -89t86.5 -28q46 0 73.5 21.5t27.5 60.5q0 42 -33 62t-100 20h-60v132h61q35 0 61 7t40 21q10 10 15 23.5t5 30.5q0 32 -27.5 52t-69.5 20q-52 0 -81.5 -27.5t-35.5 -81.5l-169 24q16 104 92 161.5t195 57.5q85 0 148 -23t96 -65.5t33 -98.5
t-28.5 -96t-80.5 -61v-3q59 -14 93.5 -55t34.5 -99q0 -68 -34.5 -117t-101.5 -74.5t-160 -25.5q-135 0 -207 53.5t-90 167.5z" />
    <glyph glyph-name="four.LinTab" 
d="M352 0v153h-328v133l243 396h259v-390h100v-139h-100v-153h-174zM186 289q83 3 166 3v143q0 43 2 119h-7z" />
    <glyph glyph-name="five.LinTab" 
d="M562 541h-322l-17 -127h3q28 26 63.5 38t81.5 12q72 0 125.5 -28t81.5 -79.5t28 -122.5q0 -79 -36 -136t-102 -86.5t-154 -29.5q-110 0 -180 47.5t-92 136.5l164 43q13 -44 42 -68t69 -24q32 0 55.5 13t36.5 37.5t13 58.5q0 31 -14 55.5t-38 37.5t-53 13q-33 0 -56 -13.5
t-41 -43.5h-156l40 407h458v-141z" />
    <glyph glyph-name="six.LinTab" 
d="M448 492q-17 41 -40 57.5t-64 16.5q-58 0 -86.5 -48t-36.5 -155q25 36 66 54t99 18q111 0 169.5 -55t58.5 -158q0 -108 -78 -174t-204 -66q-143 0 -217.5 85.5t-74.5 250.5q0 186 78.5 284t228.5 98q108 0 166 -35.5t93 -121.5zM341 306q-46 0 -71.5 -25.5t-25.5 -68.5
q0 -44 24.5 -70t64.5 -26q49 0 73 25.5t24 76.5q0 41 -24 64.5t-65 23.5z" />
    <glyph glyph-name="seven.LinTab" 
d="M143 0q7 92 38 181t86.5 177t140.5 180h-363v144h560v-141q-112 -134 -166 -219.5t-78 -162.5t-24 -159h-194z" />
    <glyph glyph-name="eight.LinTab" 
d="M422 489q0 34 -26.5 55.5t-71.5 21.5t-71 -21.5t-26 -55.5t26 -55.5t71 -21.5t71.5 21.5t26.5 55.5zM434 198q0 38 -29 60t-81 22q-51 0 -79.5 -22t-28.5 -60t29 -60t80 -22t80 22t29 60zM618 198q0 -69 -35 -117.5t-102 -73.5t-160 -25t-158 23t-98 69t-33 113
q0 56 31.5 99t87.5 64v3q-47 16 -75.5 55t-28.5 89q0 61 34 107t98 71t148 25q87 0 149 -24t94 -68.5t32 -106.5q0 -46 -28 -86t-75 -59v-3q58 -19 88.5 -58.5t30.5 -96.5z" />
    <glyph glyph-name="nine.LinTab" 
d="M194 193q18 -42 44 -59.5t68 -17.5q58 0 86.5 48t36.5 155q-23 -36 -64.5 -54t-100.5 -18q-111 0 -169.5 55t-58.5 158q0 108 78 174t204 66q143 0 217.5 -85.5t74.5 -250.5q0 -186 -78.5 -284t-228.5 -98q-106 0 -169.5 38.5t-97.5 121.5zM309 376q46 0 71.5 25.5
t25.5 68.5q0 44 -24.5 70t-64.5 26q-49 0 -73 -25.5t-24 -76.5q0 -41 24 -64.5t65 -23.5z" />
    <glyph glyph-name="zero.OnumTab" 
d="M613 284q0 -94 -34.5 -162t-101 -104t-158.5 -36q-93 0 -156.5 34.5t-95.5 100.5t-32 161q0 94 34.5 162t101 104t158.5 36q93 0 156.5 -34.5t95.5 -100.5t32 -161zM432 280q0 75 -27.5 115t-80.5 40t-80.5 -39.5t-27.5 -113.5q0 -75 27.5 -115t80.5 -40t80.5 39.5
t27.5 113.5z" />
    <glyph glyph-name="one.OnumTab" 
d="M263 0v366q-32 -18 -71 -26.5t-94 -8.5v141q84 0 127.5 21t63.5 69h157v-562h-183z" />
    <glyph glyph-name="one.OnumTab.001" 
d="M83 0v142h165v224q-32 -18 -71 -26.5t-94 -8.5v141q84 0 127.5 21t63.5 69h157v-420h148v-142h-496z" />
    <glyph glyph-name="two.OnumTab" 
d="M604 0h-557v171q81 34 138.5 61.5t96.5 48.5t62 37.5t35 30t15.5 24t3.5 20.5q0 16 -9.5 28t-28 18t-45.5 6q-28 0 -46.5 -7.5t-27.5 -21t-9 -31.5q0 -14 2 -25t6 -22h-170q-6 11 -9 25.5t-3 29.5q0 58 31 100t90.5 64.5t141.5 22.5q87 0 147 -21t90 -61t30 -96
q0 -34 -11 -67t-42 -65t-86 -61.5t-143 -55.5v-5q96 2 155 2h143v-150z" />
    <glyph glyph-name="three.OnumTab" 
d="M206 113q9 -61 39.5 -89t86.5 -28q46 0 73.5 21.5t27.5 60.5q0 42 -33 62t-100 20h-60v132h61q35 0 61 7t40 21q10 10 15 23.5t5 30.5q0 32 -27.5 52t-69.5 20q-52 0 -81.5 -27.5t-35.5 -81.5l-169 24q16 104 92 161.5t195 57.5q85 0 148 -23t96 -65.5t33 -98.5
t-28.5 -96t-80.5 -61v-3q59 -14 93.5 -55t34.5 -99q0 -68 -34.5 -117t-101.5 -74.5t-160 -25.5q-135 0 -207 53.5t-90 167.5z" />
    <glyph glyph-name="four.OnumTab" 
d="M352 -120v153h-328v133l243 396h259v-390h100v-139h-100v-153h-174zM186 169q83 3 166 3v143q0 43 2 119h-7z" />
    <glyph glyph-name="five.OnumTab" 
d="M562 421h-322l-17 -127h3q28 26 63.5 38t81.5 12q72 0 125.5 -28t81.5 -79.5t28 -122.5q0 -79 -36 -136t-102 -86.5t-154 -29.5q-110 0 -180 47.5t-92 136.5l164 43q13 -44 42 -68t69 -24q32 0 55.5 13t36.5 37.5t13 58.5q0 31 -14 55.5t-38 37.5t-53 13q-33 0 -56 -13.5
t-41 -43.5h-156l40 407h458v-141z" />
    <glyph glyph-name="six.OnumTab" 
d="M448 492q-17 41 -40 57.5t-64 16.5q-58 0 -86.5 -48t-36.5 -155q25 36 66 54t99 18q111 0 169.5 -55t58.5 -158q0 -108 -78 -174t-204 -66q-143 0 -217.5 85.5t-74.5 250.5q0 186 78.5 284t228.5 98q108 0 166 -35.5t93 -121.5zM341 306q-46 0 -71.5 -25.5t-25.5 -68.5
q0 -44 24.5 -70t64.5 -26q49 0 73 25.5t24 76.5q0 41 -24 64.5t-65 23.5z" />
    <glyph glyph-name="seven.OnumTab" 
d="M143 -120q7 92 38 181t86.5 177t140.5 180h-363v144h560v-141q-112 -134 -166 -219.5t-78 -162.5t-24 -159h-194z" />
    <glyph glyph-name="eight.OnumTab" 
d="M422 489q0 34 -26.5 55.5t-71.5 21.5t-71 -21.5t-26 -55.5t26 -55.5t71 -21.5t71.5 21.5t26.5 55.5zM434 198q0 38 -29 60t-81 22q-51 0 -79.5 -22t-28.5 -60t29 -60t80 -22t80 22t29 60zM618 198q0 -69 -35 -117.5t-102 -73.5t-160 -25t-158 23t-98 69t-33 113
q0 56 31.5 99t87.5 64v3q-47 16 -75.5 55t-28.5 89q0 61 34 107t98 71t148 25q87 0 149 -24t94 -68.5t32 -106.5q0 -46 -28 -86t-75 -59v-3q58 -19 88.5 -58.5t30.5 -96.5z" />
    <glyph glyph-name="nine.OnumTab" 
d="M194 73q18 -42 44 -59.5t68 -17.5q58 0 86.5 48t36.5 155q-23 -36 -64.5 -54t-100.5 -18q-111 0 -169.5 55t-58.5 158q0 108 78 174t204 66q143 0 217.5 -85.5t74.5 -250.5q0 -186 -78.5 -284t-228.5 -98q-106 0 -169.5 38.5t-97.5 121.5zM309 256q46 0 71.5 25.5
t25.5 68.5q0 44 -24.5 70t-64.5 26q-49 0 -73 -25.5t-24 -76.5q0 -41 24 -64.5t65 -23.5z" />
    <glyph glyph-name="percent.cap" horiz-adv-x="1103" 
d="M225 0l492 682h162l-492 -682h-162zM1067 188q0 -99 -57 -152.5t-160 -53.5q-105 0 -159.5 52t-54.5 152q0 99 57 152.5t160 53.5q105 0 159.5 -52t54.5 -152zM924 187q0 45 -19 69.5t-54 24.5t-53.5 -25t-18.5 -69q0 -45 19 -69.5t54 -24.5t53.5 25t18.5 69zM467 496
q0 -99 -57 -152.5t-160 -53.5q-105 0 -159.5 52t-54.5 152q0 99 57 152.5t160 53.5q105 0 159.5 -52t54.5 -152zM324 495q0 45 -19 69.5t-54 24.5t-53.5 -25t-18.5 -69q0 -45 19 -69.5t54 -24.5t53.5 25t18.5 69z" />
    <glyph glyph-name="perthousand.cap" horiz-adv-x="1581" 
d="M225 0l492 682h162l-492 -682h-162zM1545 188q0 -99 -57 -152.5t-160 -53.5q-105 0 -159.5 52t-54.5 152q0 99 57 152.5t160 53.5q105 0 159.5 -52t54.5 -152zM1402 187q0 45 -19 69.5t-54 24.5t-53.5 -25t-18.5 -69q0 -45 19 -69.5t54 -24.5t53.5 25t18.5 69zM1067 188
q0 -99 -57 -152.5t-160 -53.5q-105 0 -159.5 52t-54.5 152q0 99 57 152.5t160 53.5q105 0 159.5 -52t54.5 -152zM924 187q0 45 -19 69.5t-54 24.5t-53.5 -25t-18.5 -69q0 -45 19 -69.5t54 -24.5t53.5 25t18.5 69zM467 496q0 -99 -57 -152.5t-160 -53.5q-105 0 -159.5 52
t-54.5 152q0 99 57 152.5t160 53.5q105 0 159.5 -52t54.5 -152zM324 495q0 45 -19 69.5t-54 24.5t-53.5 -25t-18.5 -69q0 -45 19 -69.5t54 -24.5t53.5 25t18.5 69z" />
    </font>
</defs>
</svg>
